<svg xmlns="http://www.w3.org/2000/svg" xmlns:xlink="http://www.w3.org/1999/xlink" width="1920" zoomAndPan="magnify" viewBox="0 0 1440 599.999999" height="800" preserveAspectRatio="xMidYMid meet" version="1.0"><defs><g/><clipPath id="f0b651e078"><path d="M 0 0 L 1440 0 L 1440 339.019531 L 0 339.019531 Z M 0 0 " clip-rule="nonzero"/></clipPath><clipPath id="8beb1e17fb"><path d="M 558 27 L 1131 27 L 1131 242.347656 L 558 242.347656 Z M 558 27 " clip-rule="nonzero"/></clipPath><clipPath id="3ccd5e9460"><path d="M 0 84 L 554 84 L 554 352.703125 L 0 352.703125 Z M 0 84 " clip-rule="nonzero"/></clipPath><clipPath id="4d81ad30b8"><path d="M 0 184 L 532 184 L 532 352.703125 L 0 352.703125 Z M 0 184 " clip-rule="nonzero"/></clipPath><clipPath id="05adbf759a"><path d="M 878 59 L 1440 59 L 1440 352.90625 L 878 352.90625 Z M 878 59 " clip-rule="nonzero"/></clipPath><clipPath id="ace38a964e"><path d="M 902 168 L 1440 168 L 1440 352.90625 L 902 352.90625 Z M 902 168 " clip-rule="nonzero"/></clipPath><clipPath id="b815acb9f6"><path d="M 461 138 L 1034 138 L 1034 352.867188 L 461 352.867188 Z M 461 138 " clip-rule="nonzero"/></clipPath><clipPath id="6f23e46dc0"><path d="M 1154.363281 285.3125 L 1202.363281 285.3125 L 1202.363281 352 L 1154.363281 352 Z M 1154.363281 285.3125 " clip-rule="nonzero"/></clipPath><clipPath id="24bac837b0"><path d="M 295 415 L 344 415 L 344 483 L 295 483 Z M 295 415 " clip-rule="nonzero"/></clipPath><clipPath id="374a64e3da"><path d="M 338.066406 485.347656 L 290.375 479.925781 L 297.996094 412.859375 L 345.6875 418.277344 Z M 338.066406 485.347656 " clip-rule="nonzero"/></clipPath><clipPath id="de7c4e93b0"><path d="M 338.066406 485.347656 L 290.375 479.925781 L 297.996094 412.859375 L 345.6875 418.277344 Z M 338.066406 485.347656 " clip-rule="nonzero"/></clipPath></defs><rect x="-144" width="1728" fill="#ffffff" y="-60" height="719.999999" fill-opacity="1"/><rect x="-144" width="1728" fill="#e3f2ff" y="-60" height="719.999999" fill-opacity="1"/><g clip-path="url(#f0b651e078)"><path fill="#325e7b" d="M 0 -9.296875 L 1453.292969 -9.296875 L 1453.292969 339.019531 L 0 339.019531 Z M 0 -9.296875 " fill-opacity="1" fill-rule="nonzero"/></g><g clip-path="url(#8beb1e17fb)"><path fill="#40799e" d="M 566.882812 235.246094 C 571.664062 238.867188 577.375 240.800781 583.285156 242.117188 L 1126.828125 242.117188 C 1129.332031 237.332031 1130.636719 231.894531 1130.195312 225.882812 C 1129.449219 215.792969 1121.03125 206.796875 1111.015625 205.378906 C 1104.460938 204.453125 1097.886719 206.457031 1091.570312 208.433594 C 1100.90625 205.507812 1092.171875 178.375 1087.402344 173.84375 C 1077.078125 164.027344 1053.214844 163.378906 1040.34375 165.195312 C 1042.511719 158.554688 1044.703125 151.691406 1044.074219 144.734375 C 1043.089844 133.808594 1034.953125 124.359375 1024.976562 119.808594 C 1013.550781 114.59375 998.347656 114.335938 986.601562 118.210938 C 999.921875 90.867188 989.171875 53.941406 963.46875 37.605469 C 937.53125 21.132812 901.648438 26.792969 877.382812 45.601562 C 853.117188 64.410156 839.136719 93.902344 832.304688 123.832031 C 826.921875 114.878906 815.804688 109.761719 805.503906 111.496094 C 795.203125 113.230469 786.371094 121.707031 784.21875 131.929688 C 781.269531 124.546875 771.96875 121.421875 764.152344 122.894531 C 756.335938 124.367188 749.679688 129.289062 743.328125 134.074219 C 743.050781 118.171875 741.417969 101.945312 734.824219 87.46875 C 728.230469 72.996094 715.960938 60.40625 700.476562 56.773438 C 674.101562 50.578125 647.773438 72.691406 639.398438 98.457031 C 631.027344 124.226562 635.847656 152.195312 640.742188 178.84375 C 623.898438 149.605469 592.992188 185.300781 593.804688 206.277344 C 581.988281 202.847656 566.3125 200.804688 560.058594 211.402344 C 555.453125 219.195312 559.664062 229.785156 566.882812 235.246094 Z M 566.882812 235.246094 " fill-opacity="1" fill-rule="nonzero"/></g><path fill="#40799e" d="M 263.953125 292.523438 C 269.148438 296.453125 275.347656 298.550781 281.761719 299.980469 L 871.933594 299.980469 C 874.652344 294.78125 876.070312 288.878906 875.585938 282.351562 C 874.777344 271.398438 865.636719 261.628906 854.761719 260.09375 C 847.648438 259.085938 840.507812 261.257812 833.652344 263.40625 C 843.789062 260.234375 834.300781 230.769531 829.125 225.851562 C 817.914062 215.195312 792.003906 214.488281 778.03125 216.460938 C 780.382812 209.25 782.761719 201.796875 782.082031 194.242188 C 781.011719 182.382812 772.175781 172.121094 761.34375 167.179688 C 748.9375 161.519531 732.429688 161.238281 719.679688 165.445312 C 734.140625 135.757812 722.46875 95.664062 694.558594 77.921875 C 666.394531 60.042969 627.4375 66.1875 601.089844 86.609375 C 574.742188 107.03125 559.5625 139.050781 552.144531 171.550781 C 546.300781 161.828125 534.230469 156.269531 523.042969 158.15625 C 511.859375 160.039062 502.273438 169.242188 499.933594 180.339844 C 496.730469 172.324219 486.632812 168.929688 478.148438 170.53125 C 469.660156 172.128906 462.433594 177.472656 455.53125 182.667969 C 455.234375 165.402344 453.460938 147.78125 446.300781 132.066406 C 439.140625 116.355469 425.820312 102.683594 409.011719 98.734375 C 380.371094 92.011719 351.78125 116.019531 342.691406 143.996094 C 333.601562 171.976562 338.835938 202.34375 344.148438 231.28125 C 325.863281 199.53125 292.304688 238.289062 293.1875 261.066406 C 280.355469 257.34375 263.335938 255.125 256.542969 266.628906 C 251.546875 275.09375 256.117188 286.589844 263.953125 292.523438 Z M 263.953125 292.523438 " fill-opacity="1" fill-rule="nonzero"/><g clip-path="url(#3ccd5e9460)"><path fill="#e3f2ff" d="M 547.769531 303.4375 C 543.449219 298.585938 536.625 296.074219 530.183594 296.972656 C 529.863281 297.023438 529.53125 297.070312 529.210938 297.144531 C 528.816406 290.421875 526.167969 283.878906 521.5 278.820312 C 516.253906 273.128906 509.40625 270.441406 502.210938 270.171875 C 503.8125 263.878906 508.753906 258.507812 506.300781 251.15625 C 502.976562 241.144531 492.890625 233.777344 482.335938 233.65625 C 479.007812 233.617188 475.648438 234.222656 472.382812 233.566406 C 469.128906 232.902344 470.84375 228.433594 470.992188 225.105469 C 471.507812 213.429688 471.617188 200.472656 463.921875 191.667969 C 459.300781 186.371094 452.453125 183.453125 445.53125 182.28125 C 439.523438 181.273438 432.574219 180.804688 426.554688 182.320312 C 425.015625 182.6875 423.535156 183.207031 422.15625 183.871094 C 422.191406 181.800781 422.121094 179.757812 421.933594 177.738281 C 418.179688 134.765625 366.84375 101.746094 325.363281 112.820312 C 315.59375 115.417969 288.363281 128.238281 292.824219 143.253906 C 285.988281 120.234375 268.792969 100.195312 247.695312 89 C 231.597656 80.464844 204.894531 86.414062 189.917969 94.910156 C 160.101562 111.847656 143.277344 146.898438 142.871094 181.175781 C 142.871094 175.027344 117.054688 170.605469 112.621094 170.054688 C 96.4375 168.007812 83.320312 181.324219 73.726562 193.699219 C 62.667969 207.988281 65.917969 223.445312 60.242188 239.257812 C 60.90625 235.675781 36.925781 239.738281 34.574219 241.339844 C 26.65625 246.746094 23.464844 257.277344 21.039062 266.058594 C 16.566406 257.621094 3.550781 255.824219 -3.398438 262.082031 C -3.925781 262.535156 -4.417969 263.054688 -4.863281 263.621094 C -6.980469 266.28125 -8.175781 269.542969 -10.085938 272.363281 C -11.824219 274.925781 -14.054688 276.976562 -16.558594 278.714844 C -16.625 278.636719 -16.683594 278.554688 -16.75 278.476562 C -25.792969 268.316406 -42.53125 270.101562 -54.425781 276.691406 C -60.78125 280.210938 -66.691406 285.683594 -70.171875 291.988281 C -73.042969 291.867188 -75.925781 292.289062 -78.5625 293.363281 C -88.6875 297.464844 -94.648438 308.082031 -95.375 318.710938 C -95.425781 319.457031 -95.4375 320.203125 -95.4375 320.949219 C -99.996094 326.527344 -102.035156 334.222656 -99.234375 340.933594 C -101.207031 339.246094 -103.777344 338.382812 -106.367188 338.332031 C -109.667969 338.261719 -113.003906 339.492188 -115.234375 341.941406 C -117.808594 344.789062 -118.59375 348.976562 -117.660156 352.683594 L 530.363281 352.683594 C 531.054688 350.5625 531.128906 348.261719 530.941406 346.019531 C 530.5625 341.421875 529.007812 336.996094 526.617188 333.058594 L 551.808594 333.058594 C 554.386719 322.664062 554.703125 311.210938 547.769531 303.4375 Z M 547.769531 303.4375 " fill-opacity="1" fill-rule="nonzero"/></g><path fill="#40799e" d="M 551.808594 333.058594 L -92.113281 333.058594 C -94.167969 329.84375 -95.277344 325.941406 -95.425781 322.097656 C -95.460938 320.976562 -95.449219 319.84375 -95.375 318.710938 C -94.648438 308.082031 -88.6875 297.464844 -78.5625 293.363281 C -73.664062 291.367188 -67.921875 291.554688 -62.996094 293.476562 C -57.527344 295.59375 -53.058594 299.855469 -51.835938 305.605469 C -50.617188 296.457031 -41.675781 290.507812 -33.214844 286.824219 C -24.742188 283.140625 -15.269531 280 -10.085938 272.363281 C -8.175781 269.542969 -6.980469 266.28125 -4.863281 263.621094 C -4.417969 263.054688 -3.925781 262.535156 -3.398438 262.082031 C 3.550781 255.824219 16.566406 257.621094 21.039062 266.058594 C 23.464844 257.277344 26.652344 246.746094 34.574219 241.339844 C 36.925781 239.738281 60.90625 235.675781 60.242188 239.257812 C 65.917969 223.445312 62.667969 207.988281 73.726562 193.699219 C 83.320312 181.324219 96.4375 168.007812 112.621094 170.050781 C 117.054688 170.605469 142.871094 175.027344 142.871094 181.175781 C 143.277344 146.898438 160.101562 111.847656 189.917969 94.910156 C 204.894531 86.414062 231.597656 80.464844 247.695312 89 C 268.792969 100.195312 285.988281 120.234375 292.824219 143.253906 C 288.363281 128.238281 315.59375 115.417969 325.363281 112.820312 C 366.84375 101.746094 418.179688 134.765625 421.933594 177.738281 C 422.121094 179.757812 422.191406 181.800781 422.15625 183.871094 C 423.535156 183.207031 425.015625 182.6875 426.554688 182.320312 C 432.574219 180.804688 439.523438 181.273438 445.53125 182.28125 C 452.453125 183.453125 459.300781 186.371094 463.921875 191.667969 C 471.617188 200.472656 471.507812 213.429688 470.992188 225.105469 C 470.84375 228.433594 469.132812 232.902344 472.382812 233.566406 C 475.644531 234.222656 479.007812 233.617188 482.335938 233.65625 C 492.890625 233.777344 502.976562 241.144531 506.300781 251.15625 C 508.753906 258.507812 503.8125 263.878906 502.210938 270.171875 C 509.40625 270.441406 516.253906 273.128906 521.5 278.816406 C 526.167969 283.878906 528.816406 290.421875 529.210938 297.144531 C 529.53125 297.070312 529.863281 297.023438 530.183594 296.972656 C 536.625 296.074219 543.449219 298.585938 547.769531 303.4375 C 554.703125 311.210938 554.382812 322.664062 551.808594 333.058594 Z M 551.808594 333.058594 " fill-opacity="1" fill-rule="nonzero"/><g clip-path="url(#4d81ad30b8)"><path fill="#e3f2ff" d="M 530.363281 352.683594 L -117.660156 352.683594 C -118.59375 348.976562 -117.808594 344.789062 -115.234375 341.941406 C -113.003906 339.492188 -109.667969 338.261719 -106.367188 338.332031 C -103.777344 338.382812 -101.203125 339.246094 -99.234375 340.933594 C -104.566406 328.160156 -92.375 311.816406 -78.617188 313.292969 C -77.066406 313.453125 -75.351562 313.773438 -73.984375 313.097656 C -73.863281 313.035156 -73.75 312.972656 -73.640625 312.902344 C -72.226562 311.976562 -70.820312 309.15625 -72.519531 309.15625 C -76.472656 296.335938 -66.164062 283.195312 -54.425781 276.691406 C -42.53125 270.101562 -25.792969 268.316406 -16.75 278.476562 C -15.851562 279.5 -15.0625 280.570312 -14.386719 281.703125 C -6.910156 294.191406 -12.195312 312.925781 -3.191406 324.984375 C 4.886719 311.964844 18.238281 296.988281 34.285156 309.933594 C 38.796875 313.566406 38.84375 320.117188 42.574219 323.566406 C 50.164062 330.5625 54.03125 318.527344 61.828125 314.894531 C 69.621094 311.261719 78.121094 314.292969 85.730469 317.25 C 87.507812 310.09375 83.21875 302.949219 82.148438 295.644531 C 80.191406 282.234375 90.105469 268.894531 102.890625 264.375 C 111.867188 261.195312 121.316406 261.984375 130.292969 264.683594 C 140.589844 267.773438 143.078125 272.121094 145.921875 259.300781 C 149.273438 244.199219 159.382812 231.613281 169.617188 220.011719 C 176.503906 212.214844 183.929688 204.355469 193.625 200.550781 C 199.03125 198.433594 204.894531 197.691406 210.707031 197.667969 C 224.597656 197.632812 238.886719 201.953125 248.925781 211.5625 C 259.058594 221.28125 261.855469 234.003906 260.488281 247.476562 C 270.28125 235.367188 277.558594 229.726562 293.632812 231.527344 C 295.726562 231.761719 311.8125 240.542969 311.503906 241.21875 C 321.257812 218.851562 330.101562 197.792969 354.597656 188.605469 C 373.269531 181.609375 395.265625 183.851562 410.660156 197.101562 C 410.761719 197.1875 410.859375 197.261719 410.945312 197.359375 C 412.582031 198.789062 414.136719 200.316406 415.5625 201.941406 C 427.375 215.242188 432.339844 234.433594 428.558594 251.898438 C 426.699219 260.457031 422.976562 269.65625 426.773438 277.566406 C 434.0625 268.5 451.75 273.5625 453.152344 285.101562 C 453.71875 289.78125 452.253906 295.238281 455.40625 298.75 C 461.847656 291.890625 473.007812 290.042969 481.320312 294.460938 C 489.511719 298.835938 490.101562 305.425781 492.726562 313.183594 C 494.226562 317.640625 491.742188 317.863281 493.996094 319.007812 C 494.449219 319.230469 495.089844 319.503906 495.988281 319.847656 C 497.863281 320.546875 503.75 317.914062 506.691406 318.527344 C 519.5 321.238281 529.859375 332.976562 530.941406 346.019531 C 531.128906 348.261719 531.054688 350.5625 530.363281 352.683594 Z M 530.363281 352.683594 " fill-opacity="1" fill-rule="nonzero"/></g><g clip-path="url(#05adbf759a)"><path fill="#e3f2ff" d="M 884.542969 298.726562 C 889.277344 293.410156 896.753906 290.65625 903.8125 291.640625 C 904.164062 291.695312 904.527344 291.75 904.878906 291.828125 C 905.308594 284.460938 908.210938 277.296875 913.324219 271.75 C 919.074219 265.515625 926.578125 262.574219 934.457031 262.277344 C 932.703125 255.382812 927.292969 249.496094 929.976562 241.441406 C 933.621094 230.46875 944.671875 222.402344 956.238281 222.265625 C 959.882812 222.226562 963.566406 222.886719 967.140625 222.171875 C 970.703125 221.441406 968.828125 216.542969 968.667969 212.902344 C 968.101562 200.109375 967.980469 185.910156 976.414062 176.261719 C 981.472656 170.460938 988.976562 167.261719 996.558594 165.980469 C 1003.144531 164.875 1010.757812 164.359375 1017.355469 166.019531 C 1019.042969 166.425781 1020.660156 166.992188 1022.171875 167.71875 C 1022.132812 165.453125 1022.214844 163.214844 1022.414062 161 C 1026.53125 113.917969 1082.777344 77.738281 1128.226562 89.871094 C 1138.925781 92.71875 1168.765625 106.765625 1163.878906 123.214844 C 1171.367188 97.996094 1190.207031 76.039062 1213.324219 63.773438 C 1230.960938 54.421875 1260.214844 60.9375 1276.625 70.25 C 1309.296875 88.804688 1327.730469 127.210938 1328.175781 164.765625 C 1328.175781 158.03125 1356.460938 153.1875 1361.316406 152.578125 C 1379.050781 150.339844 1393.421875 164.925781 1403.933594 178.488281 C 1416.050781 194.144531 1412.488281 211.078125 1418.707031 228.40625 C 1417.980469 224.480469 1444.253906 228.933594 1446.832031 230.6875 C 1455.507812 236.609375 1459.003906 248.148438 1461.664062 257.769531 C 1466.5625 248.527344 1480.824219 246.554688 1488.4375 253.410156 C 1489.015625 253.910156 1489.554688 254.476562 1490.042969 255.097656 C 1492.363281 258.011719 1493.671875 261.589844 1495.761719 264.679688 C 1497.667969 267.484375 1500.109375 269.730469 1502.855469 271.636719 C 1502.929688 271.550781 1502.992188 271.460938 1503.066406 271.375 C 1512.972656 260.242188 1531.3125 262.199219 1544.347656 269.417969 C 1551.308594 273.273438 1557.785156 279.269531 1561.597656 286.179688 C 1564.742188 286.046875 1567.898438 286.507812 1570.792969 287.6875 C 1581.886719 292.179688 1588.417969 303.8125 1589.210938 315.457031 C 1589.265625 316.277344 1589.28125 317.09375 1589.277344 317.910156 C 1594.273438 324.023438 1596.511719 332.453125 1593.441406 339.804688 C 1595.597656 337.957031 1598.417969 337.011719 1601.253906 336.957031 C 1604.871094 336.878906 1608.527344 338.226562 1610.96875 340.914062 C 1613.789062 344.03125 1614.652344 348.617188 1613.628906 352.679688 L 903.613281 352.679688 C 902.859375 350.359375 902.777344 347.835938 902.980469 345.378906 C 903.398438 340.339844 905.101562 335.492188 907.71875 331.179688 L 880.117188 331.179688 C 877.296875 319.789062 876.945312 307.242188 884.542969 298.726562 Z M 884.542969 298.726562 " fill-opacity="1" fill-rule="nonzero"/></g><path fill="#40799e" d="M 880.117188 331.179688 L 1585.636719 331.179688 C 1587.890625 327.65625 1589.105469 323.378906 1589.265625 319.167969 C 1589.308594 317.941406 1589.292969 316.699219 1589.210938 315.457031 C 1588.417969 303.8125 1581.886719 292.179688 1570.792969 287.6875 C 1565.421875 285.5 1559.132812 285.703125 1553.734375 287.808594 C 1547.742188 290.128906 1542.84375 294.796875 1541.507812 301.101562 C 1540.171875 291.074219 1530.375 284.554688 1521.105469 280.519531 C 1511.820312 276.488281 1501.445312 273.046875 1495.761719 264.679688 C 1493.671875 261.589844 1492.363281 258.011719 1490.042969 255.097656 C 1489.554688 254.476562 1489.015625 253.910156 1488.4375 253.410156 C 1480.824219 246.554688 1466.5625 248.527344 1461.664062 257.769531 C 1459.003906 248.148438 1455.507812 236.609375 1446.832031 230.6875 C 1444.253906 228.933594 1417.980469 224.480469 1418.710938 228.40625 C 1412.488281 211.078125 1416.050781 194.144531 1403.933594 178.488281 C 1393.421875 164.925781 1379.050781 150.339844 1361.316406 152.578125 C 1356.460938 153.1875 1328.175781 158.03125 1328.175781 164.765625 C 1327.730469 127.210938 1309.296875 88.804688 1276.625 70.25 C 1260.214844 60.9375 1230.960938 54.421875 1213.324219 63.773438 C 1190.207031 76.039062 1171.367188 97.996094 1163.878906 123.214844 C 1168.761719 106.765625 1138.925781 92.71875 1128.226562 89.871094 C 1082.777344 77.738281 1026.53125 113.917969 1022.414062 161 C 1022.214844 163.214844 1022.132812 165.453125 1022.171875 167.722656 C 1020.660156 166.992188 1019.042969 166.425781 1017.355469 166.019531 C 1010.757812 164.359375 1003.144531 164.875 996.558594 165.980469 C 988.976562 167.261719 981.472656 170.460938 976.414062 176.261719 C 967.980469 185.910156 968.101562 200.109375 968.667969 212.902344 C 968.828125 216.542969 970.703125 221.441406 967.140625 222.171875 C 963.566406 222.886719 959.882812 222.226562 956.238281 222.265625 C 944.671875 222.402344 933.621094 230.46875 929.976562 241.441406 C 927.292969 249.496094 932.703125 255.382812 934.457031 262.277344 C 926.578125 262.574219 919.074219 265.515625 913.324219 271.75 C 908.210938 277.296875 905.308594 284.460938 904.878906 291.828125 C 904.527344 291.75 904.164062 291.695312 903.8125 291.640625 C 896.753906 290.65625 889.277344 293.410156 884.542969 298.726562 C 876.945312 307.242188 877.296875 319.789062 880.117188 331.179688 Z M 880.117188 331.179688 " fill-opacity="1" fill-rule="nonzero"/><g clip-path="url(#ace38a964e)"><path fill="#e3f2ff" d="M 903.613281 352.679688 L 1613.628906 352.679688 C 1614.652344 348.617188 1613.789062 344.03125 1610.96875 340.914062 C 1608.527344 338.226562 1604.871094 336.878906 1601.253906 336.957031 C 1598.417969 337.011719 1595.597656 337.957031 1593.441406 339.804688 C 1599.28125 325.8125 1585.921875 307.90625 1570.851562 309.523438 C 1569.148438 309.699219 1567.273438 310.050781 1565.777344 309.308594 C 1565.640625 309.242188 1565.519531 309.171875 1565.398438 309.09375 C 1563.847656 308.082031 1562.308594 304.988281 1564.171875 304.988281 C 1568.503906 290.941406 1557.207031 276.542969 1544.347656 269.417969 C 1531.3125 262.199219 1512.972656 260.242188 1503.066406 271.375 C 1502.082031 272.496094 1501.21875 273.667969 1500.476562 274.910156 C 1492.285156 288.59375 1498.074219 309.121094 1488.210938 322.332031 C 1479.355469 308.066406 1464.730469 291.65625 1447.144531 305.839844 C 1442.207031 309.820312 1442.152344 317 1438.0625 320.777344 C 1429.75 328.445312 1425.515625 315.257812 1416.972656 311.277344 C 1408.429688 307.296875 1399.117188 310.617188 1390.777344 313.855469 C 1388.835938 306.015625 1393.53125 298.1875 1394.707031 290.1875 C 1396.851562 275.492188 1385.988281 260.875 1371.980469 255.925781 C 1362.144531 252.441406 1351.792969 253.304688 1341.957031 256.261719 C 1330.675781 259.648438 1327.949219 264.410156 1324.832031 250.363281 C 1321.160156 233.820312 1310.082031 220.027344 1298.867188 207.316406 C 1291.324219 198.773438 1283.1875 190.164062 1272.566406 185.996094 C 1266.644531 183.675781 1260.21875 182.863281 1253.851562 182.835938 C 1238.628906 182.796875 1222.976562 187.535156 1211.976562 198.058594 C 1200.871094 208.707031 1197.808594 222.648438 1199.304688 237.410156 C 1188.578125 224.144531 1180.601562 217.964844 1162.992188 219.933594 C 1160.699219 220.191406 1143.074219 229.8125 1143.410156 230.554688 C 1132.722656 206.046875 1123.035156 182.972656 1096.195312 172.90625 C 1075.734375 165.242188 1051.636719 167.695312 1034.765625 182.214844 C 1034.660156 182.3125 1034.550781 182.390625 1034.457031 182.5 C 1032.660156 184.066406 1030.960938 185.738281 1029.394531 187.519531 C 1016.453125 202.09375 1011.015625 223.117188 1015.160156 242.253906 C 1017.195312 251.632812 1021.273438 261.710938 1017.117188 270.375 C 1009.128906 260.445312 989.75 265.992188 988.210938 278.636719 C 987.589844 283.761719 989.195312 289.742188 985.742188 293.585938 C 978.683594 286.070312 966.457031 284.046875 957.347656 288.890625 C 948.375 293.679688 947.726562 300.902344 944.851562 309.402344 C 943.207031 314.289062 945.933594 314.53125 943.460938 315.785156 C 942.964844 316.027344 942.261719 316.324219 941.277344 316.703125 C 939.226562 317.472656 932.773438 314.585938 929.550781 315.257812 C 915.515625 318.226562 904.167969 331.089844 902.980469 345.378906 C 902.777344 347.835938 902.859375 350.359375 903.613281 352.679688 Z M 903.613281 352.679688 " fill-opacity="1" fill-rule="nonzero"/></g><g clip-path="url(#b815acb9f6)"><path fill="#e3f2ff" d="M 469.902344 345.769531 C 474.6875 349.386719 480.398438 351.320312 486.304688 352.636719 L 1029.851562 352.636719 C 1032.355469 347.851562 1033.660156 342.414062 1033.214844 336.402344 C 1032.472656 326.3125 1024.054688 317.316406 1014.035156 315.898438 C 1007.484375 314.972656 1000.910156 316.976562 994.59375 318.953125 C 1003.929688 316.03125 995.191406 288.894531 990.425781 284.363281 C 980.097656 274.550781 956.238281 273.902344 943.367188 275.714844 C 945.53125 269.074219 947.726562 262.210938 947.097656 255.253906 C 946.109375 244.328125 937.976562 234.878906 927.996094 230.328125 C 916.574219 225.113281 901.367188 224.855469 889.625 228.730469 C 902.941406 201.390625 892.195312 164.460938 866.488281 148.125 C 840.550781 131.65625 804.671875 137.3125 780.40625 156.121094 C 756.136719 174.929688 742.160156 204.421875 735.324219 234.355469 C 729.945312 225.398438 718.828125 220.28125 708.523438 222.015625 C 698.222656 223.75 689.394531 232.226562 687.242188 242.449219 C 684.289062 235.066406 674.992188 231.941406 667.175781 233.414062 C 659.359375 234.886719 652.703125 239.808594 646.347656 244.59375 C 646.070312 228.691406 644.441406 212.464844 637.847656 197.992188 C 631.25 183.519531 618.984375 170.925781 603.5 167.292969 C 577.125 161.101562 550.792969 183.210938 542.421875 208.976562 C 534.046875 234.746094 538.871094 262.714844 543.761719 289.363281 C 526.921875 260.125 496.011719 295.820312 496.828125 316.796875 C 485.011719 313.367188 469.335938 311.324219 463.078125 321.921875 C 458.476562 329.714844 462.683594 340.304688 469.902344 345.769531 Z M 469.902344 345.769531 " fill-opacity="1" fill-rule="nonzero"/></g><g clip-path="url(#6f23e46dc0)"><path fill="#0097b2" d="M 1180.726562 321.148438 C 1184.589844 318.542969 1189.160156 316.472656 1193.777344 317.105469 C 1198.394531 317.738281 1202.726562 321.957031 1202.042969 326.5625 C 1201.671875 329.0625 1199.945312 331.199219 1197.871094 332.640625 C 1195.796875 334.082031 1193.375 334.925781 1190.988281 335.757812 C 1186.816406 337.207031 1182.644531 338.652344 1178.476562 340.101562 C 1174.640625 341.433594 1170.003906 343.988281 1165.984375 344.441406 C 1161.332031 344.964844 1164.664062 339.8125 1165.820312 337.667969 C 1167.5 334.542969 1169.539062 331.609375 1171.882812 328.945312 C 1174.417969 326.058594 1177.410156 323.136719 1180.726562 321.148438 Z M 1182.042969 346.214844 C 1179.949219 346.769531 1174.363281 348.101562 1173.253906 350.171875 C 1171.941406 352.628906 1179.054688 351.527344 1180.648438 351.511719 C 1184.355469 351.472656 1188.0625 351.4375 1191.769531 351.398438 C 1192.710938 351.386719 1193.671875 351.375 1194.5625 351.070312 C 1195.453125 350.765625 1196.277344 350.109375 1196.539062 349.203125 C 1196.878906 348.015625 1196.136719 346.726562 1195.089844 346.074219 C 1194.042969 345.417969 1192.761719 345.265625 1191.53125 345.207031 C 1188.324219 345.089844 1185.148438 345.394531 1182.042969 346.21875 Z M 1154.894531 321.882812 C 1154.757812 325.78125 1154.363281 330.976562 1154.960938 335.382812 C 1155.164062 336.878906 1157.207031 337.160156 1157.796875 335.769531 C 1159.34375 332.125 1161.707031 326.84375 1165.949219 320.949219 C 1170.851562 314.132812 1177.484375 308.253906 1179.910156 300.21875 C 1181.066406 296.398438 1181.15625 291.859375 1178.554688 288.832031 C 1176.234375 286.136719 1172.171875 285.339844 1168.773438 286.382812 C 1165.371094 287.425781 1162.625 290.058594 1160.808594 293.117188 C 1158.84375 296.421875 1157.863281 300.214844 1157.058594 303.960938 C 1155.792969 309.855469 1155.101562 315.859375 1154.894531 321.882812 Z M 1154.894531 321.882812 " fill-opacity="1" fill-rule="nonzero"/></g><g fill="#737373" fill-opacity="0.2706"><g transform="translate(343.945174, 428.085909)"><g><path d="M 27.515625 -24.109375 L 22.140625 -64.375 L 21.96875 -64.375 L 17.046875 -24.109375 Z M 2.375 0 L 13.8125 -80.1875 L 29.9375 -80.1875 L 42.09375 0 L 30.703125 0 L 28.796875 -14.3125 L 15.859375 -14.3125 L 14.125 0 Z M 2.375 0 "/></g></g></g><g fill="#737373" fill-opacity="0.2706"><g transform="translate(388.410688, 428.085909)"><g><path d="M 6.015625 0 L 6.015625 -80.1875 L 24.421875 -80.1875 C 30.648438 -80.1875 34.910156 -78.296875 37.203125 -74.515625 C 39.492188 -70.734375 40.703125 -65.09375 40.828125 -57.59375 L 40.828125 -55.90625 C 40.828125 -47.945312 39.691406 -41.910156 37.421875 -37.796875 C 35.160156 -33.679688 30.960938 -31.625 24.828125 -31.625 L 18.21875 -31.625 L 18.21875 0 Z M 18.21875 -41.6875 L 22.421875 -41.6875 C 25.003906 -41.6875 26.679688 -42.679688 27.453125 -44.671875 C 28.222656 -46.660156 28.609375 -50.453125 28.609375 -56.046875 L 28.609375 -57.59375 C 28.578125 -62.332031 28.160156 -65.71875 27.359375 -67.75 C 26.554688 -69.78125 24.941406 -70.796875 22.515625 -70.796875 L 18.21875 -70.796875 Z M 18.21875 -41.6875 "/></g></g></g><g fill="#737373" fill-opacity="0.2706"><g transform="translate(431.418315, 428.085909)"><g><path d="M 6.015625 0 L 6.015625 -80.1875 L 18.21875 -80.1875 L 18.21875 -10.390625 L 33.671875 -10.390625 L 33.671875 0 Z M 6.015625 0 "/></g></g></g><g fill="#737373" fill-opacity="0.2706"><g transform="translate(466.088659, 428.085909)"><g><path d="M 6.46875 0 L 6.46875 -80.1875 L 18.6875 -80.1875 L 18.6875 0 Z M 6.46875 0 "/></g></g></g><g fill="#737373" fill-opacity="0.2706"><g transform="translate(491.237187, 428.085909)"><g><path d="M 39.875 -21.875 C 39.875 -14.125 38.488281 -8.390625 35.71875 -4.671875 C 32.957031 -0.953125 28.613281 0.90625 22.6875 0.90625 C 16.769531 0.90625 12.34375 -1.070312 9.40625 -5.03125 C 6.476562 -9 5.015625 -14.703125 5.015625 -22.140625 L 5.015625 -57.09375 C 5.015625 -69.03125 8.140625 -76.488281 14.390625 -79.46875 C 16.703125 -80.5625 19.5 -81.109375 22.78125 -81.109375 C 34.050781 -81.109375 39.6875 -74 39.6875 -59.78125 L 39.6875 -48.75 L 27.890625 -48.75 L 27.890625 -59 C 27.890625 -63.132812 27.535156 -66.085938 26.828125 -67.859375 C 26.128906 -69.640625 24.765625 -70.53125 22.734375 -70.53125 C 20.703125 -70.53125 19.289062 -69.585938 18.5 -67.703125 C 17.707031 -65.816406 17.3125 -62.929688 17.3125 -59.046875 L 17.3125 -21.59375 C 17.3125 -17.28125 17.691406 -14.195312 18.453125 -12.34375 C 19.210938 -10.488281 20.59375 -9.5625 22.59375 -9.5625 C 24.601562 -9.5625 25.988281 -10.503906 26.75 -12.390625 C 27.507812 -14.273438 27.890625 -17.390625 27.890625 -21.734375 L 27.890625 -33.21875 L 39.875 -33.21875 Z M 39.875 -21.875 "/></g></g></g><g fill="#737373" fill-opacity="0.2706"><g transform="translate(535.019316, 428.085909)"><g><path d="M 27.515625 -24.109375 L 22.140625 -64.375 L 21.96875 -64.375 L 17.046875 -24.109375 Z M 2.375 0 L 13.8125 -80.1875 L 29.9375 -80.1875 L 42.09375 0 L 30.703125 0 L 28.796875 -14.3125 L 15.859375 -14.3125 L 14.125 0 Z M 2.375 0 "/></g></g></g><g fill="#737373" fill-opacity="0.2706"><g transform="translate(579.48483, 428.085909)"><g><path d="M 10.109375 0 L 10.109375 -69.625 L 0.734375 -69.625 L 0.734375 -80.1875 L 31.296875 -80.1875 L 31.296875 -69.625 L 22.28125 -69.625 L 22.28125 0 Z M 10.109375 0 "/></g></g></g><g fill="#737373" fill-opacity="0.2706"><g transform="translate(611.512745, 428.085909)"><g><path d="M 6.46875 0 L 6.46875 -80.1875 L 18.6875 -80.1875 L 18.6875 0 Z M 6.46875 0 "/></g></g></g><g fill="#737373" fill-opacity="0.2706"><g transform="translate(636.661273, 428.085909)"><g><path d="M 14.984375 0 L 2.546875 -80.1875 L 14.171875 -80.1875 L 19.40625 -43.96875 L 22.640625 -18.453125 L 22.96875 -18.453125 L 25.75 -43.96875 L 30.109375 -80.1875 L 41.5 -80.1875 L 30.078125 0 Z M 14.984375 0 "/></g></g></g><g fill="#737373" fill-opacity="0.2706"><g transform="translate(680.671196, 428.085909)"><g><path d="M 17.3125 -22.28125 C 17.3125 -17.570312 17.664062 -14.289062 18.375 -12.4375 C 19.09375 -10.582031 20.5625 -9.65625 22.78125 -9.65625 C 25 -9.65625 26.457031 -10.601562 27.15625 -12.5 C 27.851562 -14.40625 28.203125 -17.664062 28.203125 -22.28125 L 28.203125 -59.640625 C 28.203125 -63.441406 27.84375 -66.210938 27.125 -67.953125 C 26.414062 -69.703125 25.019531 -70.578125 22.9375 -70.578125 C 20.851562 -70.578125 19.394531 -69.703125 18.5625 -67.953125 C 17.726562 -66.210938 17.3125 -63.457031 17.3125 -59.6875 Z M 40.453125 -22.421875 C 40.453125 -14.578125 39.054688 -8.726562 36.265625 -4.875 C 33.472656 -1.019531 29 0.90625 22.84375 0.90625 C 16.695312 0.90625 12.1875 -1.023438 9.3125 -4.890625 C 6.445312 -8.765625 5.015625 -14.609375 5.015625 -22.421875 L 5.015625 -59.09375 C 5.015625 -73.789062 11.015625 -81.140625 23.015625 -81.140625 C 29.203125 -81.140625 33.65625 -79.269531 36.375 -75.53125 C 39.09375 -71.800781 40.453125 -66.320312 40.453125 -59.09375 Z M 40.453125 -22.421875 "/></g></g></g><g fill="#737373" fill-opacity="0.2706"><g transform="translate(726.184554, 428.085909)"><g><path d="M 4.421875 -22.546875 L 4.421875 -29.703125 L 16 -29.703125 L 16 -21.640625 C 16 -17.171875 16.375 -14.03125 17.125 -12.21875 C 17.882812 -10.414062 19.3125 -9.515625 21.40625 -9.515625 C 23.507812 -9.515625 24.898438 -10.257812 25.578125 -11.75 C 26.265625 -13.238281 26.609375 -15.671875 26.609375 -19.046875 C 26.609375 -22.421875 26 -25.359375 24.78125 -27.859375 C 23.570312 -30.367188 21.644531 -32.988281 19 -35.71875 L 13.078125 -41.828125 C 10.316406 -44.710938 8.164062 -47.703125 6.625 -50.796875 C 5.09375 -53.898438 4.328125 -57.488281 4.328125 -61.5625 C 4.328125 -68.175781 5.601562 -73.09375 8.15625 -76.3125 C 10.707031 -79.53125 15.09375 -81.140625 21.3125 -81.140625 C 27.539062 -81.140625 31.753906 -79.265625 33.953125 -75.515625 C 36.160156 -71.765625 37.265625 -66.289062 37.265625 -59.09375 L 37.265625 -54.125 L 26.015625 -54.125 L 26.015625 -59.875 C 26.015625 -63.757812 25.679688 -66.546875 25.015625 -68.234375 C 24.347656 -69.921875 23.0625 -70.765625 21.15625 -70.765625 C 19.257812 -70.765625 17.894531 -70.125 17.0625 -68.84375 C 16.226562 -67.570312 15.8125 -65.660156 15.8125 -63.109375 C 15.8125 -60.554688 16.234375 -58.519531 17.078125 -57 C 17.929688 -55.476562 19.46875 -53.535156 21.6875 -51.171875 L 28.296875 -44.015625 C 31.609375 -40.429688 34.101562 -36.800781 35.78125 -33.125 C 37.46875 -29.445312 38.3125 -25.4375 38.3125 -21.09375 C 38.3125 -13.59375 37.050781 -8.050781 34.53125 -4.46875 C 32.007812 -0.882812 27.597656 0.90625 21.296875 0.90625 C 14.992188 0.90625 10.601562 -1.085938 8.125 -5.078125 C 5.65625 -9.078125 4.421875 -14.898438 4.421875 -22.546875 Z M 4.421875 -22.546875 "/></g></g></g><g fill="#737373" fill-opacity="0.2706"><g transform="translate(767.415371, 428.085909)"><g/></g></g><g fill="#737373" fill-opacity="0.2706"><g transform="translate(784.135509, 428.085909)"><g><path d="M 27.515625 -24.109375 L 22.140625 -64.375 L 21.96875 -64.375 L 17.046875 -24.109375 Z M 2.375 0 L 13.8125 -80.1875 L 29.9375 -80.1875 L 42.09375 0 L 30.703125 0 L 28.796875 -14.3125 L 15.859375 -14.3125 L 14.125 0 Z M 2.375 0 "/></g></g></g><g fill="#737373" fill-opacity="0.2706"><g transform="translate(828.601023, 428.085909)"><g><path d="M 39.875 -21.875 C 39.875 -14.125 38.488281 -8.390625 35.71875 -4.671875 C 32.957031 -0.953125 28.613281 0.90625 22.6875 0.90625 C 16.769531 0.90625 12.34375 -1.070312 9.40625 -5.03125 C 6.476562 -9 5.015625 -14.703125 5.015625 -22.140625 L 5.015625 -57.09375 C 5.015625 -69.03125 8.140625 -76.488281 14.390625 -79.46875 C 16.703125 -80.5625 19.5 -81.109375 22.78125 -81.109375 C 34.050781 -81.109375 39.6875 -74 39.6875 -59.78125 L 39.6875 -48.75 L 27.890625 -48.75 L 27.890625 -59 C 27.890625 -63.132812 27.535156 -66.085938 26.828125 -67.859375 C 26.128906 -69.640625 24.765625 -70.53125 22.734375 -70.53125 C 20.703125 -70.53125 19.289062 -69.585938 18.5 -67.703125 C 17.707031 -65.816406 17.3125 -62.929688 17.3125 -59.046875 L 17.3125 -21.59375 C 17.3125 -17.28125 17.691406 -14.195312 18.453125 -12.34375 C 19.210938 -10.488281 20.59375 -9.5625 22.59375 -9.5625 C 24.601562 -9.5625 25.988281 -10.503906 26.75 -12.390625 C 27.507812 -14.273438 27.890625 -17.390625 27.890625 -21.734375 L 27.890625 -33.21875 L 39.875 -33.21875 Z M 39.875 -21.875 "/></g></g></g><g fill="#737373" fill-opacity="0.2706"><g transform="translate(872.383141, 428.085909)"><g><path d="M 6.015625 0 L 6.015625 -80.1875 L 32.890625 -80.1875 L 32.890625 -69.671875 L 18.21875 -69.671875 L 18.21875 -46.34375 L 32.171875 -46.34375 L 32.171875 -36.046875 L 18.21875 -36.046875 L 18.21875 -10.53125 L 33.4375 -10.53125 L 33.4375 0 Z M 6.015625 0 "/></g></g></g><g fill="#737373" fill-opacity="0.2706"><g transform="translate(909.559226, 428.085909)"><g><path d="M 4.421875 -22.546875 L 4.421875 -29.703125 L 16 -29.703125 L 16 -21.640625 C 16 -17.171875 16.375 -14.03125 17.125 -12.21875 C 17.882812 -10.414062 19.3125 -9.515625 21.40625 -9.515625 C 23.507812 -9.515625 24.898438 -10.257812 25.578125 -11.75 C 26.265625 -13.238281 26.609375 -15.671875 26.609375 -19.046875 C 26.609375 -22.421875 26 -25.359375 24.78125 -27.859375 C 23.570312 -30.367188 21.644531 -32.988281 19 -35.71875 L 13.078125 -41.828125 C 10.316406 -44.710938 8.164062 -47.703125 6.625 -50.796875 C 5.09375 -53.898438 4.328125 -57.488281 4.328125 -61.5625 C 4.328125 -68.175781 5.601562 -73.09375 8.15625 -76.3125 C 10.707031 -79.53125 15.09375 -81.140625 21.3125 -81.140625 C 27.539062 -81.140625 31.753906 -79.265625 33.953125 -75.515625 C 36.160156 -71.765625 37.265625 -66.289062 37.265625 -59.09375 L 37.265625 -54.125 L 26.015625 -54.125 L 26.015625 -59.875 C 26.015625 -63.757812 25.679688 -66.546875 25.015625 -68.234375 C 24.347656 -69.921875 23.0625 -70.765625 21.15625 -70.765625 C 19.257812 -70.765625 17.894531 -70.125 17.0625 -68.84375 C 16.226562 -67.570312 15.8125 -65.660156 15.8125 -63.109375 C 15.8125 -60.554688 16.234375 -58.519531 17.078125 -57 C 17.929688 -55.476562 19.46875 -53.535156 21.6875 -51.171875 L 28.296875 -44.015625 C 31.609375 -40.429688 34.101562 -36.800781 35.78125 -33.125 C 37.46875 -29.445312 38.3125 -25.4375 38.3125 -21.09375 C 38.3125 -13.59375 37.050781 -8.050781 34.53125 -4.46875 C 32.007812 -0.882812 27.597656 0.90625 21.296875 0.90625 C 14.992188 0.90625 10.601562 -1.085938 8.125 -5.078125 C 5.65625 -9.078125 4.421875 -14.898438 4.421875 -22.546875 Z M 4.421875 -22.546875 "/></g></g></g><g fill="#737373" fill-opacity="0.2706"><g transform="translate(950.790043, 428.085909)"><g><path d="M 4.421875 -22.546875 L 4.421875 -29.703125 L 16 -29.703125 L 16 -21.640625 C 16 -17.171875 16.375 -14.03125 17.125 -12.21875 C 17.882812 -10.414062 19.3125 -9.515625 21.40625 -9.515625 C 23.507812 -9.515625 24.898438 -10.257812 25.578125 -11.75 C 26.265625 -13.238281 26.609375 -15.671875 26.609375 -19.046875 C 26.609375 -22.421875 26 -25.359375 24.78125 -27.859375 C 23.570312 -30.367188 21.644531 -32.988281 19 -35.71875 L 13.078125 -41.828125 C 10.316406 -44.710938 8.164062 -47.703125 6.625 -50.796875 C 5.09375 -53.898438 4.328125 -57.488281 4.328125 -61.5625 C 4.328125 -68.175781 5.601562 -73.09375 8.15625 -76.3125 C 10.707031 -79.53125 15.09375 -81.140625 21.3125 -81.140625 C 27.539062 -81.140625 31.753906 -79.265625 33.953125 -75.515625 C 36.160156 -71.765625 37.265625 -66.289062 37.265625 -59.09375 L 37.265625 -54.125 L 26.015625 -54.125 L 26.015625 -59.875 C 26.015625 -63.757812 25.679688 -66.546875 25.015625 -68.234375 C 24.347656 -69.921875 23.0625 -70.765625 21.15625 -70.765625 C 19.257812 -70.765625 17.894531 -70.125 17.0625 -68.84375 C 16.226562 -67.570312 15.8125 -65.660156 15.8125 -63.109375 C 15.8125 -60.554688 16.234375 -58.519531 17.078125 -57 C 17.929688 -55.476562 19.46875 -53.535156 21.6875 -51.171875 L 28.296875 -44.015625 C 31.609375 -40.429688 34.101562 -36.800781 35.78125 -33.125 C 37.46875 -29.445312 38.3125 -25.4375 38.3125 -21.09375 C 38.3125 -13.59375 37.050781 -8.050781 34.53125 -4.46875 C 32.007812 -0.882812 27.597656 0.90625 21.296875 0.90625 C 14.992188 0.90625 10.601562 -1.085938 8.125 -5.078125 C 5.65625 -9.078125 4.421875 -14.898438 4.421875 -22.546875 Z M 4.421875 -22.546875 "/></g></g></g><g fill="#737373" fill-opacity="0.2706"><g transform="translate(992.020861, 428.085909)"><g><path d="M 3.203125 -86.484375 L 3.203125 -93.59375 L 23.28125 -102.34375 L 23.28125 -90.578125 Z M 6.46875 0 L 6.46875 -80.1875 L 18.6875 -80.1875 L 18.6875 0 Z M 6.46875 0 "/></g></g></g><g fill="#737373" fill-opacity="0.2706"><g transform="translate(1017.169389, 428.085909)"><g><path d="M 14.984375 0 L 2.546875 -80.1875 L 14.171875 -80.1875 L 19.40625 -43.96875 L 22.640625 -18.453125 L 22.96875 -18.453125 L 25.75 -43.96875 L 30.109375 -80.1875 L 41.5 -80.1875 L 30.078125 0 Z M 14.984375 0 "/></g></g></g><g fill="#737373" fill-opacity="0.2706"><g transform="translate(1061.179336, 428.085909)"><g><path d="M 6.015625 0 L 6.015625 -80.1875 L 32.890625 -80.1875 L 32.890625 -69.671875 L 18.21875 -69.671875 L 18.21875 -46.34375 L 32.171875 -46.34375 L 32.171875 -36.046875 L 18.21875 -36.046875 L 18.21875 -10.53125 L 33.4375 -10.53125 L 33.4375 0 Z M 6.015625 0 "/></g></g></g><g fill="#737373" fill-opacity="0.2706"><g transform="translate(1098.355421, 428.085909)"><g><path d="M 6.46875 0 L 6.46875 -80.1875 L 18.6875 -80.1875 L 18.6875 0 Z M 6.46875 0 "/></g></g></g><g fill="#737373" fill-opacity="0.2706"><g transform="translate(1123.503949, 428.085909)"><g><path d="M 4.421875 -22.546875 L 4.421875 -29.703125 L 16 -29.703125 L 16 -21.640625 C 16 -17.171875 16.375 -14.03125 17.125 -12.21875 C 17.882812 -10.414062 19.3125 -9.515625 21.40625 -9.515625 C 23.507812 -9.515625 24.898438 -10.257812 25.578125 -11.75 C 26.265625 -13.238281 26.609375 -15.671875 26.609375 -19.046875 C 26.609375 -22.421875 26 -25.359375 24.78125 -27.859375 C 23.570312 -30.367188 21.644531 -32.988281 19 -35.71875 L 13.078125 -41.828125 C 10.316406 -44.710938 8.164062 -47.703125 6.625 -50.796875 C 5.09375 -53.898438 4.328125 -57.488281 4.328125 -61.5625 C 4.328125 -68.175781 5.601562 -73.09375 8.15625 -76.3125 C 10.707031 -79.53125 15.09375 -81.140625 21.3125 -81.140625 C 27.539062 -81.140625 31.753906 -79.265625 33.953125 -75.515625 C 36.160156 -71.765625 37.265625 -66.289062 37.265625 -59.09375 L 37.265625 -54.125 L 26.015625 -54.125 L 26.015625 -59.875 C 26.015625 -63.757812 25.679688 -66.546875 25.015625 -68.234375 C 24.347656 -69.921875 23.0625 -70.765625 21.15625 -70.765625 C 19.257812 -70.765625 17.894531 -70.125 17.0625 -68.84375 C 16.226562 -67.570312 15.8125 -65.660156 15.8125 -63.109375 C 15.8125 -60.554688 16.234375 -58.519531 17.078125 -57 C 17.929688 -55.476562 19.46875 -53.535156 21.6875 -51.171875 L 28.296875 -44.015625 C 31.609375 -40.429688 34.101562 -36.800781 35.78125 -33.125 C 37.46875 -29.445312 38.3125 -25.4375 38.3125 -21.09375 C 38.3125 -13.59375 37.050781 -8.050781 34.53125 -4.46875 C 32.007812 -0.882812 27.597656 0.90625 21.296875 0.90625 C 14.992188 0.90625 10.601562 -1.085938 8.125 -5.078125 C 5.65625 -9.078125 4.421875 -14.898438 4.421875 -22.546875 Z M 4.421875 -22.546875 "/></g></g></g><g fill="#325e7b" fill-opacity="1"><g transform="translate(335.697349, 419.838079)"><g><path d="M 27.515625 -24.109375 L 22.140625 -64.375 L 21.96875 -64.375 L 17.046875 -24.109375 Z M 2.375 0 L 13.8125 -80.1875 L 29.9375 -80.1875 L 42.09375 0 L 30.703125 0 L 28.796875 -14.3125 L 15.859375 -14.3125 L 14.125 0 Z M 2.375 0 "/></g></g></g><g fill="#325e7b" fill-opacity="1"><g transform="translate(380.162862, 419.838079)"><g><path d="M 6.015625 0 L 6.015625 -80.1875 L 24.421875 -80.1875 C 30.648438 -80.1875 34.910156 -78.296875 37.203125 -74.515625 C 39.492188 -70.734375 40.703125 -65.09375 40.828125 -57.59375 L 40.828125 -55.90625 C 40.828125 -47.945312 39.691406 -41.910156 37.421875 -37.796875 C 35.160156 -33.679688 30.960938 -31.625 24.828125 -31.625 L 18.21875 -31.625 L 18.21875 0 Z M 18.21875 -41.6875 L 22.421875 -41.6875 C 25.003906 -41.6875 26.679688 -42.679688 27.453125 -44.671875 C 28.222656 -46.660156 28.609375 -50.453125 28.609375 -56.046875 L 28.609375 -57.59375 C 28.578125 -62.332031 28.160156 -65.71875 27.359375 -67.75 C 26.554688 -69.78125 24.941406 -70.796875 22.515625 -70.796875 L 18.21875 -70.796875 Z M 18.21875 -41.6875 "/></g></g></g><g fill="#325e7b" fill-opacity="1"><g transform="translate(423.17049, 419.838079)"><g><path d="M 6.015625 0 L 6.015625 -80.1875 L 18.21875 -80.1875 L 18.21875 -10.390625 L 33.671875 -10.390625 L 33.671875 0 Z M 6.015625 0 "/></g></g></g><g fill="#325e7b" fill-opacity="1"><g transform="translate(457.840834, 419.838079)"><g><path d="M 6.46875 0 L 6.46875 -80.1875 L 18.6875 -80.1875 L 18.6875 0 Z M 6.46875 0 "/></g></g></g><g fill="#325e7b" fill-opacity="1"><g transform="translate(482.989362, 419.838079)"><g><path d="M 39.875 -21.875 C 39.875 -14.125 38.488281 -8.390625 35.71875 -4.671875 C 32.957031 -0.953125 28.613281 0.90625 22.6875 0.90625 C 16.769531 0.90625 12.34375 -1.070312 9.40625 -5.03125 C 6.476562 -9 5.015625 -14.703125 5.015625 -22.140625 L 5.015625 -57.09375 C 5.015625 -69.03125 8.140625 -76.488281 14.390625 -79.46875 C 16.703125 -80.5625 19.5 -81.109375 22.78125 -81.109375 C 34.050781 -81.109375 39.6875 -74 39.6875 -59.78125 L 39.6875 -48.75 L 27.890625 -48.75 L 27.890625 -59 C 27.890625 -63.132812 27.535156 -66.085938 26.828125 -67.859375 C 26.128906 -69.640625 24.765625 -70.53125 22.734375 -70.53125 C 20.703125 -70.53125 19.289062 -69.585938 18.5 -67.703125 C 17.707031 -65.816406 17.3125 -62.929688 17.3125 -59.046875 L 17.3125 -21.59375 C 17.3125 -17.28125 17.691406 -14.195312 18.453125 -12.34375 C 19.210938 -10.488281 20.59375 -9.5625 22.59375 -9.5625 C 24.601562 -9.5625 25.988281 -10.503906 26.75 -12.390625 C 27.507812 -14.273438 27.890625 -17.390625 27.890625 -21.734375 L 27.890625 -33.21875 L 39.875 -33.21875 Z M 39.875 -21.875 "/></g></g></g><g fill="#325e7b" fill-opacity="1"><g transform="translate(526.771491, 419.838079)"><g><path d="M 27.515625 -24.109375 L 22.140625 -64.375 L 21.96875 -64.375 L 17.046875 -24.109375 Z M 2.375 0 L 13.8125 -80.1875 L 29.9375 -80.1875 L 42.09375 0 L 30.703125 0 L 28.796875 -14.3125 L 15.859375 -14.3125 L 14.125 0 Z M 2.375 0 "/></g></g></g><g fill="#325e7b" fill-opacity="1"><g transform="translate(571.237005, 419.838079)"><g><path d="M 10.109375 0 L 10.109375 -69.625 L 0.734375 -69.625 L 0.734375 -80.1875 L 31.296875 -80.1875 L 31.296875 -69.625 L 22.28125 -69.625 L 22.28125 0 Z M 10.109375 0 "/></g></g></g><g fill="#325e7b" fill-opacity="1"><g transform="translate(603.264919, 419.838079)"><g><path d="M 6.46875 0 L 6.46875 -80.1875 L 18.6875 -80.1875 L 18.6875 0 Z M 6.46875 0 "/></g></g></g><g fill="#325e7b" fill-opacity="1"><g transform="translate(628.413447, 419.838079)"><g><path d="M 14.984375 0 L 2.546875 -80.1875 L 14.171875 -80.1875 L 19.40625 -43.96875 L 22.640625 -18.453125 L 22.96875 -18.453125 L 25.75 -43.96875 L 30.109375 -80.1875 L 41.5 -80.1875 L 30.078125 0 Z M 14.984375 0 "/></g></g></g><g fill="#325e7b" fill-opacity="1"><g transform="translate(672.423371, 419.838079)"><g><path d="M 17.3125 -22.28125 C 17.3125 -17.570312 17.664062 -14.289062 18.375 -12.4375 C 19.09375 -10.582031 20.5625 -9.65625 22.78125 -9.65625 C 25 -9.65625 26.457031 -10.601562 27.15625 -12.5 C 27.851562 -14.40625 28.203125 -17.664062 28.203125 -22.28125 L 28.203125 -59.640625 C 28.203125 -63.441406 27.84375 -66.210938 27.125 -67.953125 C 26.414062 -69.703125 25.019531 -70.578125 22.9375 -70.578125 C 20.851562 -70.578125 19.394531 -69.703125 18.5625 -67.953125 C 17.726562 -66.210938 17.3125 -63.457031 17.3125 -59.6875 Z M 40.453125 -22.421875 C 40.453125 -14.578125 39.054688 -8.726562 36.265625 -4.875 C 33.472656 -1.019531 29 0.90625 22.84375 0.90625 C 16.695312 0.90625 12.1875 -1.023438 9.3125 -4.890625 C 6.445312 -8.765625 5.015625 -14.609375 5.015625 -22.421875 L 5.015625 -59.09375 C 5.015625 -73.789062 11.015625 -81.140625 23.015625 -81.140625 C 29.203125 -81.140625 33.65625 -79.269531 36.375 -75.53125 C 39.09375 -71.800781 40.453125 -66.320312 40.453125 -59.09375 Z M 40.453125 -22.421875 "/></g></g></g><g fill="#325e7b" fill-opacity="1"><g transform="translate(717.936728, 419.838079)"><g><path d="M 4.421875 -22.546875 L 4.421875 -29.703125 L 16 -29.703125 L 16 -21.640625 C 16 -17.171875 16.375 -14.03125 17.125 -12.21875 C 17.882812 -10.414062 19.3125 -9.515625 21.40625 -9.515625 C 23.507812 -9.515625 24.898438 -10.257812 25.578125 -11.75 C 26.265625 -13.238281 26.609375 -15.671875 26.609375 -19.046875 C 26.609375 -22.421875 26 -25.359375 24.78125 -27.859375 C 23.570312 -30.367188 21.644531 -32.988281 19 -35.71875 L 13.078125 -41.828125 C 10.316406 -44.710938 8.164062 -47.703125 6.625 -50.796875 C 5.09375 -53.898438 4.328125 -57.488281 4.328125 -61.5625 C 4.328125 -68.175781 5.601562 -73.09375 8.15625 -76.3125 C 10.707031 -79.53125 15.09375 -81.140625 21.3125 -81.140625 C 27.539062 -81.140625 31.753906 -79.265625 33.953125 -75.515625 C 36.160156 -71.765625 37.265625 -66.289062 37.265625 -59.09375 L 37.265625 -54.125 L 26.015625 -54.125 L 26.015625 -59.875 C 26.015625 -63.757812 25.679688 -66.546875 25.015625 -68.234375 C 24.347656 -69.921875 23.0625 -70.765625 21.15625 -70.765625 C 19.257812 -70.765625 17.894531 -70.125 17.0625 -68.84375 C 16.226562 -67.570312 15.8125 -65.660156 15.8125 -63.109375 C 15.8125 -60.554688 16.234375 -58.519531 17.078125 -57 C 17.929688 -55.476562 19.46875 -53.535156 21.6875 -51.171875 L 28.296875 -44.015625 C 31.609375 -40.429688 34.101562 -36.800781 35.78125 -33.125 C 37.46875 -29.445312 38.3125 -25.4375 38.3125 -21.09375 C 38.3125 -13.59375 37.050781 -8.050781 34.53125 -4.46875 C 32.007812 -0.882812 27.597656 0.90625 21.296875 0.90625 C 14.992188 0.90625 10.601562 -1.085938 8.125 -5.078125 C 5.65625 -9.078125 4.421875 -14.898438 4.421875 -22.546875 Z M 4.421875 -22.546875 "/></g></g></g><g fill="#325e7b" fill-opacity="1"><g transform="translate(759.167546, 419.838079)"><g/></g></g><g fill="#325e7b" fill-opacity="1"><g transform="translate(775.887684, 419.838079)"><g><path d="M 27.515625 -24.109375 L 22.140625 -64.375 L 21.96875 -64.375 L 17.046875 -24.109375 Z M 2.375 0 L 13.8125 -80.1875 L 29.9375 -80.1875 L 42.09375 0 L 30.703125 0 L 28.796875 -14.3125 L 15.859375 -14.3125 L 14.125 0 Z M 2.375 0 "/></g></g></g><g fill="#325e7b" fill-opacity="1"><g transform="translate(820.353198, 419.838079)"><g><path d="M 39.875 -21.875 C 39.875 -14.125 38.488281 -8.390625 35.71875 -4.671875 C 32.957031 -0.953125 28.613281 0.90625 22.6875 0.90625 C 16.769531 0.90625 12.34375 -1.070312 9.40625 -5.03125 C 6.476562 -9 5.015625 -14.703125 5.015625 -22.140625 L 5.015625 -57.09375 C 5.015625 -69.03125 8.140625 -76.488281 14.390625 -79.46875 C 16.703125 -80.5625 19.5 -81.109375 22.78125 -81.109375 C 34.050781 -81.109375 39.6875 -74 39.6875 -59.78125 L 39.6875 -48.75 L 27.890625 -48.75 L 27.890625 -59 C 27.890625 -63.132812 27.535156 -66.085938 26.828125 -67.859375 C 26.128906 -69.640625 24.765625 -70.53125 22.734375 -70.53125 C 20.703125 -70.53125 19.289062 -69.585938 18.5 -67.703125 C 17.707031 -65.816406 17.3125 -62.929688 17.3125 -59.046875 L 17.3125 -21.59375 C 17.3125 -17.28125 17.691406 -14.195312 18.453125 -12.34375 C 19.210938 -10.488281 20.59375 -9.5625 22.59375 -9.5625 C 24.601562 -9.5625 25.988281 -10.503906 26.75 -12.390625 C 27.507812 -14.273438 27.890625 -17.390625 27.890625 -21.734375 L 27.890625 -33.21875 L 39.875 -33.21875 Z M 39.875 -21.875 "/></g></g></g><g fill="#325e7b" fill-opacity="1"><g transform="translate(864.135316, 419.838079)"><g><path d="M 6.015625 0 L 6.015625 -80.1875 L 32.890625 -80.1875 L 32.890625 -69.671875 L 18.21875 -69.671875 L 18.21875 -46.34375 L 32.171875 -46.34375 L 32.171875 -36.046875 L 18.21875 -36.046875 L 18.21875 -10.53125 L 33.4375 -10.53125 L 33.4375 0 Z M 6.015625 0 "/></g></g></g><g fill="#325e7b" fill-opacity="1"><g transform="translate(901.3114, 419.838079)"><g><path d="M 4.421875 -22.546875 L 4.421875 -29.703125 L 16 -29.703125 L 16 -21.640625 C 16 -17.171875 16.375 -14.03125 17.125 -12.21875 C 17.882812 -10.414062 19.3125 -9.515625 21.40625 -9.515625 C 23.507812 -9.515625 24.898438 -10.257812 25.578125 -11.75 C 26.265625 -13.238281 26.609375 -15.671875 26.609375 -19.046875 C 26.609375 -22.421875 26 -25.359375 24.78125 -27.859375 C 23.570312 -30.367188 21.644531 -32.988281 19 -35.71875 L 13.078125 -41.828125 C 10.316406 -44.710938 8.164062 -47.703125 6.625 -50.796875 C 5.09375 -53.898438 4.328125 -57.488281 4.328125 -61.5625 C 4.328125 -68.175781 5.601562 -73.09375 8.15625 -76.3125 C 10.707031 -79.53125 15.09375 -81.140625 21.3125 -81.140625 C 27.539062 -81.140625 31.753906 -79.265625 33.953125 -75.515625 C 36.160156 -71.765625 37.265625 -66.289062 37.265625 -59.09375 L 37.265625 -54.125 L 26.015625 -54.125 L 26.015625 -59.875 C 26.015625 -63.757812 25.679688 -66.546875 25.015625 -68.234375 C 24.347656 -69.921875 23.0625 -70.765625 21.15625 -70.765625 C 19.257812 -70.765625 17.894531 -70.125 17.0625 -68.84375 C 16.226562 -67.570312 15.8125 -65.660156 15.8125 -63.109375 C 15.8125 -60.554688 16.234375 -58.519531 17.078125 -57 C 17.929688 -55.476562 19.46875 -53.535156 21.6875 -51.171875 L 28.296875 -44.015625 C 31.609375 -40.429688 34.101562 -36.800781 35.78125 -33.125 C 37.46875 -29.445312 38.3125 -25.4375 38.3125 -21.09375 C 38.3125 -13.59375 37.050781 -8.050781 34.53125 -4.46875 C 32.007812 -0.882812 27.597656 0.90625 21.296875 0.90625 C 14.992188 0.90625 10.601562 -1.085938 8.125 -5.078125 C 5.65625 -9.078125 4.421875 -14.898438 4.421875 -22.546875 Z M 4.421875 -22.546875 "/></g></g></g><g fill="#325e7b" fill-opacity="1"><g transform="translate(942.542218, 419.838079)"><g><path d="M 4.421875 -22.546875 L 4.421875 -29.703125 L 16 -29.703125 L 16 -21.640625 C 16 -17.171875 16.375 -14.03125 17.125 -12.21875 C 17.882812 -10.414062 19.3125 -9.515625 21.40625 -9.515625 C 23.507812 -9.515625 24.898438 -10.257812 25.578125 -11.75 C 26.265625 -13.238281 26.609375 -15.671875 26.609375 -19.046875 C 26.609375 -22.421875 26 -25.359375 24.78125 -27.859375 C 23.570312 -30.367188 21.644531 -32.988281 19 -35.71875 L 13.078125 -41.828125 C 10.316406 -44.710938 8.164062 -47.703125 6.625 -50.796875 C 5.09375 -53.898438 4.328125 -57.488281 4.328125 -61.5625 C 4.328125 -68.175781 5.601562 -73.09375 8.15625 -76.3125 C 10.707031 -79.53125 15.09375 -81.140625 21.3125 -81.140625 C 27.539062 -81.140625 31.753906 -79.265625 33.953125 -75.515625 C 36.160156 -71.765625 37.265625 -66.289062 37.265625 -59.09375 L 37.265625 -54.125 L 26.015625 -54.125 L 26.015625 -59.875 C 26.015625 -63.757812 25.679688 -66.546875 25.015625 -68.234375 C 24.347656 -69.921875 23.0625 -70.765625 21.15625 -70.765625 C 19.257812 -70.765625 17.894531 -70.125 17.0625 -68.84375 C 16.226562 -67.570312 15.8125 -65.660156 15.8125 -63.109375 C 15.8125 -60.554688 16.234375 -58.519531 17.078125 -57 C 17.929688 -55.476562 19.46875 -53.535156 21.6875 -51.171875 L 28.296875 -44.015625 C 31.609375 -40.429688 34.101562 -36.800781 35.78125 -33.125 C 37.46875 -29.445312 38.3125 -25.4375 38.3125 -21.09375 C 38.3125 -13.59375 37.050781 -8.050781 34.53125 -4.46875 C 32.007812 -0.882812 27.597656 0.90625 21.296875 0.90625 C 14.992188 0.90625 10.601562 -1.085938 8.125 -5.078125 C 5.65625 -9.078125 4.421875 -14.898438 4.421875 -22.546875 Z M 4.421875 -22.546875 "/></g></g></g><g fill="#325e7b" fill-opacity="1"><g transform="translate(983.773036, 419.838079)"><g><path d="M 3.203125 -86.484375 L 3.203125 -93.59375 L 23.28125 -102.34375 L 23.28125 -90.578125 Z M 6.46875 0 L 6.46875 -80.1875 L 18.6875 -80.1875 L 18.6875 0 Z M 6.46875 0 "/></g></g></g><g fill="#325e7b" fill-opacity="1"><g transform="translate(1008.921564, 419.838079)"><g><path d="M 14.984375 0 L 2.546875 -80.1875 L 14.171875 -80.1875 L 19.40625 -43.96875 L 22.640625 -18.453125 L 22.96875 -18.453125 L 25.75 -43.96875 L 30.109375 -80.1875 L 41.5 -80.1875 L 30.078125 0 Z M 14.984375 0 "/></g></g></g><g fill="#325e7b" fill-opacity="1"><g transform="translate(1052.931511, 419.838079)"><g><path d="M 6.015625 0 L 6.015625 -80.1875 L 32.890625 -80.1875 L 32.890625 -69.671875 L 18.21875 -69.671875 L 18.21875 -46.34375 L 32.171875 -46.34375 L 32.171875 -36.046875 L 18.21875 -36.046875 L 18.21875 -10.53125 L 33.4375 -10.53125 L 33.4375 0 Z M 6.015625 0 "/></g></g></g><g fill="#325e7b" fill-opacity="1"><g transform="translate(1090.107596, 419.838079)"><g><path d="M 6.46875 0 L 6.46875 -80.1875 L 18.6875 -80.1875 L 18.6875 0 Z M 6.46875 0 "/></g></g></g><g fill="#325e7b" fill-opacity="1"><g transform="translate(1115.256124, 419.838079)"><g><path d="M 4.421875 -22.546875 L 4.421875 -29.703125 L 16 -29.703125 L 16 -21.640625 C 16 -17.171875 16.375 -14.03125 17.125 -12.21875 C 17.882812 -10.414062 19.3125 -9.515625 21.40625 -9.515625 C 23.507812 -9.515625 24.898438 -10.257812 25.578125 -11.75 C 26.265625 -13.238281 26.609375 -15.671875 26.609375 -19.046875 C 26.609375 -22.421875 26 -25.359375 24.78125 -27.859375 C 23.570312 -30.367188 21.644531 -32.988281 19 -35.71875 L 13.078125 -41.828125 C 10.316406 -44.710938 8.164062 -47.703125 6.625 -50.796875 C 5.09375 -53.898438 4.328125 -57.488281 4.328125 -61.5625 C 4.328125 -68.175781 5.601562 -73.09375 8.15625 -76.3125 C 10.707031 -79.53125 15.09375 -81.140625 21.3125 -81.140625 C 27.539062 -81.140625 31.753906 -79.265625 33.953125 -75.515625 C 36.160156 -71.765625 37.265625 -66.289062 37.265625 -59.09375 L 37.265625 -54.125 L 26.015625 -54.125 L 26.015625 -59.875 C 26.015625 -63.757812 25.679688 -66.546875 25.015625 -68.234375 C 24.347656 -69.921875 23.0625 -70.765625 21.15625 -70.765625 C 19.257812 -70.765625 17.894531 -70.125 17.0625 -68.84375 C 16.226562 -67.570312 15.8125 -65.660156 15.8125 -63.109375 C 15.8125 -60.554688 16.234375 -58.519531 17.078125 -57 C 17.929688 -55.476562 19.46875 -53.535156 21.6875 -51.171875 L 28.296875 -44.015625 C 31.609375 -40.429688 34.101562 -36.800781 35.78125 -33.125 C 37.46875 -29.445312 38.3125 -25.4375 38.3125 -21.09375 C 38.3125 -13.59375 37.050781 -8.050781 34.53125 -4.46875 C 32.007812 -0.882812 27.597656 0.90625 21.296875 0.90625 C 14.992188 0.90625 10.601562 -1.085938 8.125 -5.078125 C 5.65625 -9.078125 4.421875 -14.898438 4.421875 -22.546875 Z M 4.421875 -22.546875 "/></g></g></g><g fill="#325e7b" fill-opacity="1"><g transform="translate(416.700596, 485.206775)"><g><path d="M 14.4375 -35.15625 L 19.265625 -35.15625 L 19.265625 0 L 14.4375 0 L 14.4375 -3.59375 C 14.0625 -2.40625 13.414062 -1.429688 12.5 -0.671875 C 11.59375 0.0859375 10.367188 0.46875 8.828125 0.46875 C 7.285156 0.46875 5.960938 -0.164062 4.859375 -1.4375 C 3.765625 -2.71875 3.21875 -4.675781 3.21875 -7.3125 L 3.21875 -35.15625 L 8.015625 -35.15625 L 8.015625 -7.859375 C 8.015625 -5.085938 9.023438 -3.703125 11.046875 -3.703125 C 12.171875 -3.703125 13.015625 -4.09375 13.578125 -4.875 C 14.148438 -5.65625 14.4375 -6.6875 14.4375 -7.96875 Z M 14.4375 -35.15625 "/></g></g></g><g fill="#325e7b" fill-opacity="1"><g transform="translate(439.382557, 485.206775)"><g><path d="M 17.46875 -8.0625 C 17.445312 -2.375 14.9375 0.46875 9.9375 0.46875 C 7.40625 0.46875 5.503906 -0.332031 4.234375 -1.9375 C 2.972656 -3.550781 2.34375 -6.140625 2.34375 -9.703125 L 2.34375 -12.359375 L 7.015625 -12.359375 L 7.015625 -9.734375 C 7.015625 -5.671875 7.9375 -3.640625 9.78125 -3.640625 C 10.789062 -3.640625 11.519531 -3.96875 11.96875 -4.625 C 12.414062 -5.28125 12.640625 -6.421875 12.640625 -8.046875 C 12.640625 -10.585938 11.46875 -13.007812 9.125 -15.3125 C 8.945312 -15.476562 8.535156 -15.863281 7.890625 -16.46875 C 7.253906 -17.070312 6.835938 -17.472656 6.640625 -17.671875 C 3.585938 -20.578125 2.0625 -23.789062 2.0625 -27.3125 C 2.0625 -30.09375 2.71875 -32.164062 4.03125 -33.53125 C 5.34375 -34.894531 7.210938 -35.578125 9.640625 -35.578125 C 11.273438 -35.578125 12.609375 -35.242188 13.640625 -34.578125 C 15.796875 -33.171875 16.875 -29.847656 16.875 -24.609375 L 16.875 -22.921875 L 12.3125 -22.921875 L 12.3125 -25.359375 C 12.3125 -27.410156 12.109375 -28.9375 11.703125 -29.9375 C 11.304688 -30.945312 10.625 -31.453125 9.65625 -31.453125 C 8.6875 -31.453125 7.957031 -31.144531 7.46875 -30.53125 C 6.988281 -29.925781 6.75 -28.898438 6.75 -27.453125 C 6.75 -25.171875 7.820312 -22.96875 9.96875 -20.84375 L 12.5 -18.46875 C 15.8125 -15.300781 17.46875 -11.832031 17.46875 -8.0625 Z M 17.46875 -8.0625 "/></g></g></g><g fill="#325e7b" fill-opacity="1"><g transform="translate(458.245143, 485.206775)"><g><path d="M 13.734375 -19.390625 C 11.765625 -18.492188 10.453125 -17.800781 9.796875 -17.3125 C 9.140625 -16.832031 8.644531 -16.269531 8.3125 -15.625 C 7.976562 -14.976562 7.8125 -13.910156 7.8125 -12.421875 L 7.8125 -9.171875 C 7.8125 -7.117188 7.988281 -5.675781 8.34375 -4.84375 C 8.707031 -4.007812 9.328125 -3.59375 10.203125 -3.59375 C 11.078125 -3.59375 11.828125 -3.84375 12.453125 -4.34375 C 13.078125 -4.851562 13.503906 -5.40625 13.734375 -6 Z M 3.40625 -24.984375 C 3.40625 -29.234375 4.066406 -32.0625 5.390625 -33.46875 C 6.722656 -34.875 8.613281 -35.578125 11.0625 -35.578125 C 13.519531 -35.578125 15.296875 -34.984375 16.390625 -33.796875 C 17.492188 -32.609375 18.171875 -30.703125 18.421875 -28.078125 C 18.535156 -26.953125 18.59375 -25.570312 18.59375 -23.9375 L 18.59375 0 L 13.765625 0 L 13.765625 -3.046875 C 13.515625 -2.203125 12.96875 -1.429688 12.125 -0.734375 C 11.28125 -0.0351562 10.234375 0.3125 8.984375 0.3125 C 4.992188 0.3125 2.984375 -2.800781 2.953125 -9.03125 L 2.953125 -12.453125 C 2.953125 -14.460938 3.503906 -16.179688 4.609375 -17.609375 C 5.710938 -19.046875 8.753906 -20.675781 13.734375 -22.5 L 13.734375 -25.21875 C 13.734375 -28.238281 13.515625 -30.050781 13.078125 -30.65625 C 12.640625 -31.269531 11.894531 -31.578125 10.84375 -31.578125 C 9.789062 -31.578125 9.082031 -31.113281 8.71875 -30.1875 C 8.363281 -29.269531 8.1875 -27.609375 8.1875 -25.203125 L 8.1875 -23.984375 L 3.40625 -23.984375 Z M 3.40625 -24.984375 "/></g></g></g><g fill="#325e7b" fill-opacity="1"><g transform="translate(479.942968, 485.206775)"><g><path d="M 3.453125 -41.703125 L 8.25 -41.703125 L 8.25 -32.375 C 8.5 -33.28125 9.050781 -34.039062 9.90625 -34.65625 C 10.769531 -35.269531 11.695312 -35.578125 12.6875 -35.578125 C 15.570312 -35.578125 17.429688 -34.148438 18.265625 -31.296875 C 18.804688 -29.453125 19.078125 -27.144531 19.078125 -24.375 L 19.078125 -10.859375 C 19.078125 -6.515625 18.484375 -3.488281 17.296875 -1.78125 C 16.328125 -0.382812 14.90625 0.3125 13.03125 0.3125 C 10.75 0.3125 9.15625 -0.773438 8.25 -2.953125 L 8.25 0 L 3.453125 0 Z M 14.25 -25.015625 C 14.25 -27.335938 14.144531 -28.796875 13.9375 -29.390625 C 13.726562 -29.984375 13.484375 -30.488281 13.203125 -30.90625 C 12.921875 -31.332031 12.425781 -31.546875 11.71875 -31.546875 C 11.03125 -31.546875 10.5 -31.46875 10.125 -31.3125 C 8.875 -30.75 8.25 -28.640625 8.25 -24.984375 L 8.25 -10.734375 C 8.25 -8.191406 8.460938 -6.367188 8.890625 -5.265625 C 9.328125 -4.160156 10.140625 -3.609375 11.328125 -3.609375 C 12.523438 -3.609375 13.3125 -4.15625 13.6875 -5.25 C 14.0625 -6.34375 14.25 -8.210938 14.25 -10.859375 Z M 14.25 -25.015625 "/></g></g></g><g fill="#325e7b" fill-opacity="1"><g transform="translate(501.898549, 485.206775)"><g><path d="M 3.515625 -35.15625 L 8.328125 -35.15625 L 8.328125 0 L 3.515625 0 Z M 3.515625 -42.796875 L 8.34375 -42.796875 L 8.34375 -38.390625 L 3.515625 -38.390625 Z M 3.515625 -42.796875 "/></g></g></g><g fill="#325e7b" fill-opacity="1"><g transform="translate(513.684739, 485.206775)"><g><path d="M 3.46875 -41.703125 L 8.28125 -41.703125 L 8.28125 0 L 3.46875 0 Z M 3.46875 -41.703125 "/></g></g></g><g fill="#325e7b" fill-opacity="1"><g transform="translate(525.424065, 485.206775)"><g><path d="M 3.515625 -35.15625 L 8.328125 -35.15625 L 8.328125 0 L 3.515625 0 Z M 3.515625 -42.796875 L 8.34375 -42.796875 L 8.34375 -38.390625 L 3.515625 -38.390625 Z M 3.515625 -42.796875 "/></g></g></g><g fill="#325e7b" fill-opacity="1"><g transform="translate(537.210254, 485.206775)"><g><path d="M 13.734375 -41.703125 L 18.5625 -41.703125 L 18.5625 0 L 13.734375 0 L 13.734375 -2.953125 C 12.859375 -0.773438 11.242188 0.3125 8.890625 0.3125 C 5.648438 0.3125 3.75 -1.820312 3.1875 -6.09375 C 3 -7.519531 2.90625 -9.238281 2.90625 -11.25 L 2.90625 -24.546875 C 2.90625 -28.773438 3.59375 -31.765625 4.96875 -33.515625 C 6.0625 -34.890625 7.609375 -35.578125 9.609375 -35.578125 C 10.484375 -35.578125 11.289062 -35.316406 12.03125 -34.796875 C 12.78125 -34.285156 13.347656 -33.625 13.734375 -32.8125 Z M 13.765625 -24.609375 C 13.765625 -27.078125 13.554688 -28.847656 13.140625 -29.921875 C 12.722656 -31.003906 11.925781 -31.546875 10.75 -31.546875 C 9.570312 -31.546875 8.773438 -31.003906 8.359375 -29.921875 C 7.941406 -28.835938 7.734375 -27.03125 7.734375 -24.5 L 7.734375 -10.296875 C 7.734375 -6.859375 8.1875 -4.78125 9.09375 -4.0625 C 9.46875 -3.757812 10 -3.609375 10.6875 -3.609375 C 11.375 -3.609375 11.9375 -3.796875 12.375 -4.171875 C 13.300781 -4.953125 13.765625 -7.0625 13.765625 -10.5 Z M 13.765625 -24.609375 "/></g></g></g><g fill="#325e7b" fill-opacity="1"><g transform="translate(559.189261, 485.206775)"><g><path d="M 13.734375 -19.390625 C 11.765625 -18.492188 10.453125 -17.800781 9.796875 -17.3125 C 9.140625 -16.832031 8.644531 -16.269531 8.3125 -15.625 C 7.976562 -14.976562 7.8125 -13.910156 7.8125 -12.421875 L 7.8125 -9.171875 C 7.8125 -7.117188 7.988281 -5.675781 8.34375 -4.84375 C 8.707031 -4.007812 9.328125 -3.59375 10.203125 -3.59375 C 11.078125 -3.59375 11.828125 -3.84375 12.453125 -4.34375 C 13.078125 -4.851562 13.503906 -5.40625 13.734375 -6 Z M 3.40625 -24.984375 C 3.40625 -29.234375 4.066406 -32.0625 5.390625 -33.46875 C 6.722656 -34.875 8.613281 -35.578125 11.0625 -35.578125 C 13.519531 -35.578125 15.296875 -34.984375 16.390625 -33.796875 C 17.492188 -32.609375 18.171875 -30.703125 18.421875 -28.078125 C 18.535156 -26.953125 18.59375 -25.570312 18.59375 -23.9375 L 18.59375 0 L 13.765625 0 L 13.765625 -3.046875 C 13.515625 -2.203125 12.96875 -1.429688 12.125 -0.734375 C 11.28125 -0.0351562 10.234375 0.3125 8.984375 0.3125 C 4.992188 0.3125 2.984375 -2.800781 2.953125 -9.03125 L 2.953125 -12.453125 C 2.953125 -14.460938 3.503906 -16.179688 4.609375 -17.609375 C 5.710938 -19.046875 8.753906 -20.675781 13.734375 -22.5 L 13.734375 -25.21875 C 13.734375 -28.238281 13.515625 -30.050781 13.078125 -30.65625 C 12.640625 -31.269531 11.894531 -31.578125 10.84375 -31.578125 C 9.789062 -31.578125 9.082031 -31.113281 8.71875 -30.1875 C 8.363281 -29.269531 8.1875 -27.609375 8.1875 -25.203125 L 8.1875 -23.984375 L 3.40625 -23.984375 Z M 3.40625 -24.984375 "/></g></g></g><g fill="#325e7b" fill-opacity="1"><g transform="translate(580.887086, 485.206775)"><g><path d="M 13.734375 -41.703125 L 18.5625 -41.703125 L 18.5625 0 L 13.734375 0 L 13.734375 -2.953125 C 12.859375 -0.773438 11.242188 0.3125 8.890625 0.3125 C 5.648438 0.3125 3.75 -1.820312 3.1875 -6.09375 C 3 -7.519531 2.90625 -9.238281 2.90625 -11.25 L 2.90625 -24.546875 C 2.90625 -28.773438 3.59375 -31.765625 4.96875 -33.515625 C 6.0625 -34.890625 7.609375 -35.578125 9.609375 -35.578125 C 10.484375 -35.578125 11.289062 -35.316406 12.03125 -34.796875 C 12.78125 -34.285156 13.347656 -33.625 13.734375 -32.8125 Z M 13.765625 -24.609375 C 13.765625 -27.078125 13.554688 -28.847656 13.140625 -29.921875 C 12.722656 -31.003906 11.925781 -31.546875 10.75 -31.546875 C 9.570312 -31.546875 8.773438 -31.003906 8.359375 -29.921875 C 7.941406 -28.835938 7.734375 -27.03125 7.734375 -24.5 L 7.734375 -10.296875 C 7.734375 -6.859375 8.1875 -4.78125 9.09375 -4.0625 C 9.46875 -3.757812 10 -3.609375 10.6875 -3.609375 C 11.375 -3.609375 11.9375 -3.796875 12.375 -4.171875 C 13.300781 -4.953125 13.765625 -7.0625 13.765625 -10.5 Z M 13.765625 -24.609375 "/></g></g></g><g fill="#325e7b" fill-opacity="1"><g transform="translate(602.866093, 485.206775)"><g><path d="M 2.90625 -24.265625 C 2.90625 -28.703125 3.703125 -31.785156 5.296875 -33.515625 C 6.546875 -34.890625 8.390625 -35.578125 10.828125 -35.578125 C 14.359375 -35.578125 16.578125 -34.054688 17.484375 -31.015625 C 17.984375 -29.296875 18.234375 -26.972656 18.234375 -24.046875 L 18.234375 -17.421875 L 7.734375 -17.421875 L 7.734375 -10.40625 C 7.734375 -7.363281 7.972656 -5.46875 8.453125 -4.71875 C 8.941406 -3.96875 9.707031 -3.59375 10.75 -3.59375 C 11.800781 -3.59375 12.503906 -4.03125 12.859375 -4.90625 C 13.210938 -5.78125 13.394531 -6.726562 13.40625 -7.75 C 13.425781 -8.769531 13.4375 -9.632812 13.4375 -10.34375 L 13.4375 -13.171875 L 18.140625 -13.171875 L 18.140625 -11.671875 C 18.140625 -7.941406 17.878906 -5.328125 17.359375 -3.828125 C 16.835938 -2.328125 16.046875 -1.242188 14.984375 -0.578125 C 13.921875 0.0859375 12.601562 0.421875 11.03125 0.421875 C 9.457031 0.421875 8.195312 0.222656 7.25 -0.171875 C 6.3125 -0.578125 5.5625 -1.109375 5 -1.765625 C 4.445312 -2.421875 3.957031 -3.46875 3.53125 -4.90625 C 3.113281 -6.34375 2.90625 -8.65625 2.90625 -11.84375 Z M 13.4375 -25.15625 C 13.4375 -27.65625 13.34375 -29.160156 13.15625 -29.671875 C 12.976562 -30.191406 12.75 -30.644531 12.46875 -31.03125 C 12.1875 -31.425781 11.679688 -31.625 10.953125 -31.625 C 9.546875 -31.625 8.65625 -31.03125 8.28125 -29.84375 C 7.90625 -28.664062 7.71875 -27.046875 7.71875 -24.984375 L 7.71875 -20.671875 L 13.4375 -20.671875 Z M 13.4375 -25.15625 "/></g></g></g><g fill="#325e7b" fill-opacity="1"><g transform="translate(623.790676, 485.206775)"><g/></g></g><g fill="#325e7b" fill-opacity="1"><g transform="translate(635.576854, 485.206775)"><g><path d="M 2.90625 -24.265625 C 2.90625 -28.703125 3.703125 -31.785156 5.296875 -33.515625 C 6.546875 -34.890625 8.390625 -35.578125 10.828125 -35.578125 C 14.359375 -35.578125 16.578125 -34.054688 17.484375 -31.015625 C 17.984375 -29.296875 18.234375 -26.972656 18.234375 -24.046875 L 18.234375 -17.421875 L 7.734375 -17.421875 L 7.734375 -10.40625 C 7.734375 -7.363281 7.972656 -5.46875 8.453125 -4.71875 C 8.941406 -3.96875 9.707031 -3.59375 10.75 -3.59375 C 11.800781 -3.59375 12.503906 -4.03125 12.859375 -4.90625 C 13.210938 -5.78125 13.394531 -6.726562 13.40625 -7.75 C 13.425781 -8.769531 13.4375 -9.632812 13.4375 -10.34375 L 13.4375 -13.171875 L 18.140625 -13.171875 L 18.140625 -11.671875 C 18.140625 -7.941406 17.878906 -5.328125 17.359375 -3.828125 C 16.835938 -2.328125 16.046875 -1.242188 14.984375 -0.578125 C 13.921875 0.0859375 12.601562 0.421875 11.03125 0.421875 C 9.457031 0.421875 8.195312 0.222656 7.25 -0.171875 C 6.3125 -0.578125 5.5625 -1.109375 5 -1.765625 C 4.445312 -2.421875 3.957031 -3.46875 3.53125 -4.90625 C 3.113281 -6.34375 2.90625 -8.65625 2.90625 -11.84375 Z M 13.4375 -25.15625 C 13.4375 -27.65625 13.34375 -29.160156 13.15625 -29.671875 C 12.976562 -30.191406 12.75 -30.644531 12.46875 -31.03125 C 12.1875 -31.425781 11.679688 -31.625 10.953125 -31.625 C 9.546875 -31.625 8.65625 -31.03125 8.28125 -29.84375 C 7.90625 -28.664062 7.71875 -27.046875 7.71875 -24.984375 L 7.71875 -20.671875 L 13.4375 -20.671875 Z M 13.4375 -25.15625 "/></g></g></g><g fill="#325e7b" fill-opacity="1"><g transform="translate(656.501437, 485.206775)"><g/></g></g><g fill="#325e7b" fill-opacity="1"><g transform="translate(668.287638, 485.206775)"><g><path d="M 13.734375 -41.703125 L 18.5625 -41.703125 L 18.5625 0 L 13.734375 0 L 13.734375 -2.953125 C 12.859375 -0.773438 11.242188 0.3125 8.890625 0.3125 C 5.648438 0.3125 3.75 -1.820312 3.1875 -6.09375 C 3 -7.519531 2.90625 -9.238281 2.90625 -11.25 L 2.90625 -24.546875 C 2.90625 -28.773438 3.59375 -31.765625 4.96875 -33.515625 C 6.0625 -34.890625 7.609375 -35.578125 9.609375 -35.578125 C 10.484375 -35.578125 11.289062 -35.316406 12.03125 -34.796875 C 12.78125 -34.285156 13.347656 -33.625 13.734375 -32.8125 Z M 13.765625 -24.609375 C 13.765625 -27.078125 13.554688 -28.847656 13.140625 -29.921875 C 12.722656 -31.003906 11.925781 -31.546875 10.75 -31.546875 C 9.570312 -31.546875 8.773438 -31.003906 8.359375 -29.921875 C 7.941406 -28.835938 7.734375 -27.03125 7.734375 -24.5 L 7.734375 -10.296875 C 7.734375 -6.859375 8.1875 -4.78125 9.09375 -4.0625 C 9.46875 -3.757812 10 -3.609375 10.6875 -3.609375 C 11.375 -3.609375 11.9375 -3.796875 12.375 -4.171875 C 13.300781 -4.953125 13.765625 -7.0625 13.765625 -10.5 Z M 13.765625 -24.609375 "/></g></g></g><g fill="#325e7b" fill-opacity="1"><g transform="translate(690.266657, 485.206775)"><g><path d="M 2.90625 -24.265625 C 2.90625 -28.703125 3.703125 -31.785156 5.296875 -33.515625 C 6.546875 -34.890625 8.390625 -35.578125 10.828125 -35.578125 C 14.359375 -35.578125 16.578125 -34.054688 17.484375 -31.015625 C 17.984375 -29.296875 18.234375 -26.972656 18.234375 -24.046875 L 18.234375 -17.421875 L 7.734375 -17.421875 L 7.734375 -10.40625 C 7.734375 -7.363281 7.972656 -5.46875 8.453125 -4.71875 C 8.941406 -3.96875 9.707031 -3.59375 10.75 -3.59375 C 11.800781 -3.59375 12.503906 -4.03125 12.859375 -4.90625 C 13.210938 -5.78125 13.394531 -6.726562 13.40625 -7.75 C 13.425781 -8.769531 13.4375 -9.632812 13.4375 -10.34375 L 13.4375 -13.171875 L 18.140625 -13.171875 L 18.140625 -11.671875 C 18.140625 -7.941406 17.878906 -5.328125 17.359375 -3.828125 C 16.835938 -2.328125 16.046875 -1.242188 14.984375 -0.578125 C 13.921875 0.0859375 12.601562 0.421875 11.03125 0.421875 C 9.457031 0.421875 8.195312 0.222656 7.25 -0.171875 C 6.3125 -0.578125 5.5625 -1.109375 5 -1.765625 C 4.445312 -2.421875 3.957031 -3.46875 3.53125 -4.90625 C 3.113281 -6.34375 2.90625 -8.65625 2.90625 -11.84375 Z M 13.4375 -25.15625 C 13.4375 -27.65625 13.34375 -29.160156 13.15625 -29.671875 C 12.976562 -30.191406 12.75 -30.644531 12.46875 -31.03125 C 12.1875 -31.425781 11.679688 -31.625 10.953125 -31.625 C 9.546875 -31.625 8.65625 -31.03125 8.28125 -29.84375 C 7.90625 -28.664062 7.71875 -27.046875 7.71875 -24.984375 L 7.71875 -20.671875 L 13.4375 -20.671875 Z M 13.4375 -25.15625 "/></g></g></g><g fill="#325e7b" fill-opacity="1"><g transform="translate(711.191239, 485.206775)"><g><path d="M 17.46875 -8.0625 C 17.445312 -2.375 14.9375 0.46875 9.9375 0.46875 C 7.40625 0.46875 5.503906 -0.332031 4.234375 -1.9375 C 2.972656 -3.550781 2.34375 -6.140625 2.34375 -9.703125 L 2.34375 -12.359375 L 7.015625 -12.359375 L 7.015625 -9.734375 C 7.015625 -5.671875 7.9375 -3.640625 9.78125 -3.640625 C 10.789062 -3.640625 11.519531 -3.96875 11.96875 -4.625 C 12.414062 -5.28125 12.640625 -6.421875 12.640625 -8.046875 C 12.640625 -10.585938 11.46875 -13.007812 9.125 -15.3125 C 8.945312 -15.476562 8.535156 -15.863281 7.890625 -16.46875 C 7.253906 -17.070312 6.835938 -17.472656 6.640625 -17.671875 C 3.585938 -20.578125 2.0625 -23.789062 2.0625 -27.3125 C 2.0625 -30.09375 2.71875 -32.164062 4.03125 -33.53125 C 5.34375 -34.894531 7.210938 -35.578125 9.640625 -35.578125 C 11.273438 -35.578125 12.609375 -35.242188 13.640625 -34.578125 C 15.796875 -33.171875 16.875 -29.847656 16.875 -24.609375 L 16.875 -22.921875 L 12.3125 -22.921875 L 12.3125 -25.359375 C 12.3125 -27.410156 12.109375 -28.9375 11.703125 -29.9375 C 11.304688 -30.945312 10.625 -31.453125 9.65625 -31.453125 C 8.6875 -31.453125 7.957031 -31.144531 7.46875 -30.53125 C 6.988281 -29.925781 6.75 -28.898438 6.75 -27.453125 C 6.75 -25.171875 7.820312 -22.96875 9.96875 -20.84375 L 12.5 -18.46875 C 15.8125 -15.300781 17.46875 -11.832031 17.46875 -8.0625 Z M 17.46875 -8.0625 "/></g></g></g><g fill="#325e7b" fill-opacity="1"><g transform="translate(730.053826, 485.206775)"><g><path d="M 3.515625 -35.15625 L 8.328125 -35.15625 L 8.328125 0 L 3.515625 0 Z M 3.515625 -42.796875 L 8.34375 -42.796875 L 8.34375 -38.390625 L 3.515625 -38.390625 Z M 3.515625 -42.796875 "/></g></g></g><g fill="#325e7b" fill-opacity="1"><g transform="translate(741.840004, 485.206775)"><g><path d="M 9.375 -35.578125 C 11.582031 -35.578125 13.015625 -34.578125 13.671875 -32.578125 L 13.671875 -35.15625 L 18.46875 -35.15625 L 18.46875 -3.28125 C 18.46875 0.90625 16.890625 3.585938 13.734375 4.765625 C 12.640625 5.171875 11.375 5.375 9.9375 5.375 C 7.0625 5.375 4.679688 4.625 2.796875 3.125 L 4.53125 -0.171875 C 6.226562 0.992188 8.03125 1.578125 9.9375 1.578125 C 11.207031 1.578125 12.144531 1.175781 12.75 0.375 C 13.363281 -0.425781 13.671875 -1.5 13.671875 -2.84375 L 13.671875 -6.1875 C 13.242188 -5.09375 12.65625 -4.335938 11.90625 -3.921875 C 11.125 -3.492188 10.15625 -3.28125 9 -3.28125 C 6.65625 -3.28125 5.046875 -4.269531 4.171875 -6.25 C 3.296875 -8.238281 2.859375 -10.90625 2.859375 -14.25 L 2.859375 -24.328125 C 2.859375 -31.828125 5.03125 -35.578125 9.375 -35.578125 Z M 13.671875 -25.03125 C 13.671875 -27.3125 13.460938 -28.972656 13.046875 -30.015625 C 12.628906 -31.054688 11.898438 -31.578125 10.859375 -31.578125 C 9.828125 -31.578125 9.097656 -31.28125 8.671875 -30.6875 C 8.253906 -30.09375 7.984375 -29.347656 7.859375 -28.453125 C 7.742188 -27.566406 7.6875 -26.441406 7.6875 -25.078125 L 7.6875 -14.140625 C 7.6875 -11.648438 7.910156 -9.851562 8.359375 -8.75 C 8.816406 -7.65625 9.671875 -7.109375 10.921875 -7.109375 C 11.578125 -7.109375 12.09375 -7.296875 12.46875 -7.671875 C 13.25 -8.429688 13.648438 -10.601562 13.671875 -14.1875 Z M 13.671875 -25.03125 "/></g></g></g><g fill="#325e7b" fill-opacity="1"><g transform="translate(763.60813, 485.206775)"><g><path d="M 8.25 -31.4375 C 8.5625 -32.570312 9.242188 -33.550781 10.296875 -34.375 C 11.359375 -35.195312 12.671875 -35.609375 14.234375 -35.609375 C 15.804688 -35.609375 17.082031 -34.96875 18.0625 -33.6875 C 19.039062 -32.414062 19.53125 -30.53125 19.53125 -28.03125 L 19.53125 0 L 14.71875 0 L 14.71875 -28.015625 C 14.71875 -29.203125 14.441406 -30.09375 13.890625 -30.6875 C 13.347656 -31.28125 12.59375 -31.578125 11.625 -31.578125 C 10.65625 -31.578125 9.847656 -31.238281 9.203125 -30.5625 C 8.566406 -29.894531 8.25 -28.890625 8.25 -27.546875 L 8.25 0 L 3.453125 0 L 3.453125 -35.15625 L 8.25 -35.15625 Z M 8.25 -31.4375 "/></g></g></g><g fill="#325e7b" fill-opacity="1"><g transform="translate(786.336966, 485.206775)"><g/></g></g><g fill="#325e7b" fill-opacity="1"><g transform="translate(798.123144, 485.206775)"><g><path d="M 13.734375 -41.703125 L 18.5625 -41.703125 L 18.5625 0 L 13.734375 0 L 13.734375 -2.953125 C 12.859375 -0.773438 11.242188 0.3125 8.890625 0.3125 C 5.648438 0.3125 3.75 -1.820312 3.1875 -6.09375 C 3 -7.519531 2.90625 -9.238281 2.90625 -11.25 L 2.90625 -24.546875 C 2.90625 -28.773438 3.59375 -31.765625 4.96875 -33.515625 C 6.0625 -34.890625 7.609375 -35.578125 9.609375 -35.578125 C 10.484375 -35.578125 11.289062 -35.316406 12.03125 -34.796875 C 12.78125 -34.285156 13.347656 -33.625 13.734375 -32.8125 Z M 13.765625 -24.609375 C 13.765625 -27.078125 13.554688 -28.847656 13.140625 -29.921875 C 12.722656 -31.003906 11.925781 -31.546875 10.75 -31.546875 C 9.570312 -31.546875 8.773438 -31.003906 8.359375 -29.921875 C 7.941406 -28.835938 7.734375 -27.03125 7.734375 -24.5 L 7.734375 -10.296875 C 7.734375 -6.859375 8.1875 -4.78125 9.09375 -4.0625 C 9.46875 -3.757812 10 -3.609375 10.6875 -3.609375 C 11.375 -3.609375 11.9375 -3.796875 12.375 -4.171875 C 13.300781 -4.953125 13.765625 -7.0625 13.765625 -10.5 Z M 13.765625 -24.609375 "/></g></g></g><g fill="#325e7b" fill-opacity="1"><g transform="translate(820.102162, 485.206775)"><g><path d="M 2.90625 -24.265625 C 2.90625 -28.703125 3.703125 -31.785156 5.296875 -33.515625 C 6.546875 -34.890625 8.390625 -35.578125 10.828125 -35.578125 C 14.359375 -35.578125 16.578125 -34.054688 17.484375 -31.015625 C 17.984375 -29.296875 18.234375 -26.972656 18.234375 -24.046875 L 18.234375 -17.421875 L 7.734375 -17.421875 L 7.734375 -10.40625 C 7.734375 -7.363281 7.972656 -5.46875 8.453125 -4.71875 C 8.941406 -3.96875 9.707031 -3.59375 10.75 -3.59375 C 11.800781 -3.59375 12.503906 -4.03125 12.859375 -4.90625 C 13.210938 -5.78125 13.394531 -6.726562 13.40625 -7.75 C 13.425781 -8.769531 13.4375 -9.632812 13.4375 -10.34375 L 13.4375 -13.171875 L 18.140625 -13.171875 L 18.140625 -11.671875 C 18.140625 -7.941406 17.878906 -5.328125 17.359375 -3.828125 C 16.835938 -2.328125 16.046875 -1.242188 14.984375 -0.578125 C 13.921875 0.0859375 12.601562 0.421875 11.03125 0.421875 C 9.457031 0.421875 8.195312 0.222656 7.25 -0.171875 C 6.3125 -0.578125 5.5625 -1.109375 5 -1.765625 C 4.445312 -2.421875 3.957031 -3.46875 3.53125 -4.90625 C 3.113281 -6.34375 2.90625 -8.65625 2.90625 -11.84375 Z M 13.4375 -25.15625 C 13.4375 -27.65625 13.34375 -29.160156 13.15625 -29.671875 C 12.976562 -30.191406 12.75 -30.644531 12.46875 -31.03125 C 12.1875 -31.425781 11.679688 -31.625 10.953125 -31.625 C 9.546875 -31.625 8.65625 -31.03125 8.28125 -29.84375 C 7.90625 -28.664062 7.71875 -27.046875 7.71875 -24.984375 L 7.71875 -20.671875 L 13.4375 -20.671875 Z M 13.4375 -25.15625 "/></g></g></g><g fill="#325e7b" fill-opacity="1"><g transform="translate(841.026722, 485.206775)"><g/></g></g><g fill="#325e7b" fill-opacity="1"><g transform="translate(852.8129, 485.206775)"><g><path d="M 3.515625 -35.15625 L 8.328125 -35.15625 L 8.328125 0 L 3.515625 0 Z M 3.515625 -42.796875 L 8.34375 -42.796875 L 8.34375 -38.390625 L 3.515625 -38.390625 Z M 3.515625 -42.796875 "/></g></g></g><g fill="#325e7b" fill-opacity="1"><g transform="translate(864.599078, 485.206775)"><g><path d="M 8.25 -31.4375 C 8.5625 -32.570312 9.242188 -33.550781 10.296875 -34.375 C 11.359375 -35.195312 12.671875 -35.609375 14.234375 -35.609375 C 15.804688 -35.609375 17.082031 -34.96875 18.0625 -33.6875 C 19.039062 -32.414062 19.53125 -30.53125 19.53125 -28.03125 L 19.53125 0 L 14.71875 0 L 14.71875 -28.015625 C 14.71875 -29.203125 14.441406 -30.09375 13.890625 -30.6875 C 13.347656 -31.28125 12.59375 -31.578125 11.625 -31.578125 C 10.65625 -31.578125 9.847656 -31.238281 9.203125 -30.5625 C 8.566406 -29.894531 8.25 -28.890625 8.25 -27.546875 L 8.25 0 L 3.453125 0 L 3.453125 -35.15625 L 8.25 -35.15625 Z M 8.25 -31.4375 "/></g></g></g><g fill="#325e7b" fill-opacity="1"><g transform="translate(887.327913, 485.206775)"><g><path d="M 4.296875 -41.25 L 9.09375 -41.25 L 9.09375 -34.875 L 12.890625 -34.875 L 12.890625 -31.3125 L 9.09375 -31.3125 L 9.09375 -5.65625 C 9.09375 -4.75 9.300781 -4.179688 9.71875 -3.953125 C 10.144531 -3.722656 11.21875 -3.609375 12.9375 -3.609375 L 12.9375 0.21875 L 9.640625 0.21875 C 7.421875 0.21875 5.972656 -0.179688 5.296875 -0.984375 C 4.628906 -1.796875 4.296875 -3.210938 4.296875 -5.234375 L 4.296875 -31.3125 L 1.078125 -31.3125 L 1.078125 -34.875 L 4.296875 -34.875 Z M 4.296875 -41.25 "/></g></g></g><g fill="#325e7b" fill-opacity="1"><g transform="translate(901.668137, 485.206775)"><g><path d="M 2.90625 -24.265625 C 2.90625 -28.703125 3.703125 -31.785156 5.296875 -33.515625 C 6.546875 -34.890625 8.390625 -35.578125 10.828125 -35.578125 C 14.359375 -35.578125 16.578125 -34.054688 17.484375 -31.015625 C 17.984375 -29.296875 18.234375 -26.972656 18.234375 -24.046875 L 18.234375 -17.421875 L 7.734375 -17.421875 L 7.734375 -10.40625 C 7.734375 -7.363281 7.972656 -5.46875 8.453125 -4.71875 C 8.941406 -3.96875 9.707031 -3.59375 10.75 -3.59375 C 11.800781 -3.59375 12.503906 -4.03125 12.859375 -4.90625 C 13.210938 -5.78125 13.394531 -6.726562 13.40625 -7.75 C 13.425781 -8.769531 13.4375 -9.632812 13.4375 -10.34375 L 13.4375 -13.171875 L 18.140625 -13.171875 L 18.140625 -11.671875 C 18.140625 -7.941406 17.878906 -5.328125 17.359375 -3.828125 C 16.835938 -2.328125 16.046875 -1.242188 14.984375 -0.578125 C 13.921875 0.0859375 12.601562 0.421875 11.03125 0.421875 C 9.457031 0.421875 8.195312 0.222656 7.25 -0.171875 C 6.3125 -0.578125 5.5625 -1.109375 5 -1.765625 C 4.445312 -2.421875 3.957031 -3.46875 3.53125 -4.90625 C 3.113281 -6.34375 2.90625 -8.65625 2.90625 -11.84375 Z M 13.4375 -25.15625 C 13.4375 -27.65625 13.34375 -29.160156 13.15625 -29.671875 C 12.976562 -30.191406 12.75 -30.644531 12.46875 -31.03125 C 12.1875 -31.425781 11.679688 -31.625 10.953125 -31.625 C 9.546875 -31.625 8.65625 -31.03125 8.28125 -29.84375 C 7.90625 -28.664062 7.71875 -27.046875 7.71875 -24.984375 L 7.71875 -20.671875 L 13.4375 -20.671875 Z M 13.4375 -25.15625 "/></g></g></g><g fill="#325e7b" fill-opacity="1"><g transform="translate(922.592697, 485.206775)"><g><path d="M 14.25 -35.578125 C 14.3125 -35.578125 14.34375 -34.5625 14.34375 -32.53125 L 14.328125 -31.5 C 11.515625 -31.5 9.5 -30.523438 8.28125 -28.578125 L 8.28125 0 L 3.453125 0 L 3.453125 -35.15625 L 8.28125 -35.15625 L 8.28125 -31.25 C 8.6875 -32.625 9.398438 -33.6875 10.421875 -34.4375 C 11.441406 -35.195312 12.71875 -35.578125 14.25 -35.578125 Z M 14.25 -35.578125 "/></g></g></g><g fill="#325e7b" fill-opacity="1"><g transform="translate(937.846801, 485.206775)"><g><path d="M 13.734375 -19.390625 C 11.765625 -18.492188 10.453125 -17.800781 9.796875 -17.3125 C 9.140625 -16.832031 8.644531 -16.269531 8.3125 -15.625 C 7.976562 -14.976562 7.8125 -13.910156 7.8125 -12.421875 L 7.8125 -9.171875 C 7.8125 -7.117188 7.988281 -5.675781 8.34375 -4.84375 C 8.707031 -4.007812 9.328125 -3.59375 10.203125 -3.59375 C 11.078125 -3.59375 11.828125 -3.84375 12.453125 -4.34375 C 13.078125 -4.851562 13.503906 -5.40625 13.734375 -6 Z M 3.40625 -24.984375 C 3.40625 -29.234375 4.066406 -32.0625 5.390625 -33.46875 C 6.722656 -34.875 8.613281 -35.578125 11.0625 -35.578125 C 13.519531 -35.578125 15.296875 -34.984375 16.390625 -33.796875 C 17.492188 -32.609375 18.171875 -30.703125 18.421875 -28.078125 C 18.535156 -26.953125 18.59375 -25.570312 18.59375 -23.9375 L 18.59375 0 L 13.765625 0 L 13.765625 -3.046875 C 13.515625 -2.203125 12.96875 -1.429688 12.125 -0.734375 C 11.28125 -0.0351562 10.234375 0.3125 8.984375 0.3125 C 4.992188 0.3125 2.984375 -2.800781 2.953125 -9.03125 L 2.953125 -12.453125 C 2.953125 -14.460938 3.503906 -16.179688 4.609375 -17.609375 C 5.710938 -19.046875 8.753906 -20.675781 13.734375 -22.5 L 13.734375 -25.21875 C 13.734375 -28.238281 13.515625 -30.050781 13.078125 -30.65625 C 12.640625 -31.269531 11.894531 -31.578125 10.84375 -31.578125 C 9.789062 -31.578125 9.082031 -31.113281 8.71875 -30.1875 C 8.363281 -29.269531 8.1875 -27.609375 8.1875 -25.203125 L 8.1875 -23.984375 L 3.40625 -23.984375 Z M 3.40625 -24.984375 "/></g></g></g><g fill="#325e7b" fill-opacity="1"><g transform="translate(959.544615, 485.206775)"><g><path d="M 6.5 11.75 C 10.101562 11.75 11.90625 10.644531 11.90625 8.4375 C 11.90625 7.4375 11.539062 6.601562 10.8125 5.9375 C 10.09375 5.28125 9.207031 4.832031 8.15625 4.59375 L 9.09375 0 L 10.71875 0 L 11 3.375 C 14.164062 4.6875 15.75 6.664062 15.75 9.3125 C 15.75 10.601562 15.144531 11.785156 13.9375 12.859375 C 12.726562 13.929688 11.160156 14.46875 9.234375 14.46875 C 8.347656 14.46875 7.4375 14.328125 6.5 14.046875 Z M 2.90625 -23.625 C 2.90625 -26.675781 3.132812 -28.90625 3.59375 -30.3125 C 4.0625 -31.726562 4.582031 -32.765625 5.15625 -33.421875 C 6.425781 -34.859375 8.285156 -35.578125 10.734375 -35.578125 C 13.191406 -35.578125 14.957031 -34.96875 16.03125 -33.75 C 17.09375 -32.53125 17.75 -30.71875 18 -28.3125 C 18.09375 -27.28125 18.148438 -26.054688 18.171875 -24.640625 L 18.171875 -22.203125 L 13.4375 -22.203125 L 13.4375 -25.296875 C 13.4375 -27.484375 13.347656 -28.910156 13.171875 -29.578125 C 12.546875 -30.578125 11.796875 -31.203125 10.921875 -31.453125 C 9.390625 -31.453125 8.445312 -30.6875 8.09375 -29.15625 C 7.851562 -28.1875 7.734375 -26.851562 7.734375 -25.15625 L 7.734375 -10.203125 C 7.734375 -7.796875 7.914062 -6.109375 8.28125 -5.140625 C 8.65625 -4.179688 9.363281 -3.703125 10.40625 -3.703125 C 11.457031 -3.703125 12.222656 -4.039062 12.703125 -4.71875 C 13.191406 -5.40625 13.4375 -7.203125 13.4375 -10.109375 L 13.4375 -13.5 L 18.171875 -13.5 L 18.171875 -11.234375 C 18.171875 -6.429688 17.535156 -3.285156 16.265625 -1.796875 C 15.003906 -0.316406 13.078125 0.421875 10.484375 0.421875 C 6.390625 0.421875 3.988281 -1.765625 3.28125 -6.140625 C 3.03125 -7.753906 2.90625 -9.660156 2.90625 -11.859375 Z M 2.90625 -23.625 "/></g></g></g><g fill="#325e7b" fill-opacity="1"><g transform="translate(980.164579, 485.206775)"><g><path d="M 3.96875 -39.65625 C 4.382812 -41.113281 4.9375 -42.09375 5.625 -42.59375 C 6.3125 -43.101562 7.082031 -43.359375 7.9375 -43.359375 C 8.789062 -43.359375 9.984375 -43.066406 11.515625 -42.484375 C 13.054688 -41.910156 13.992188 -41.625 14.328125 -41.625 L 14.421875 -41.625 C 14.679688 -41.675781 14.910156 -41.804688 15.109375 -42.015625 C 15.304688 -42.222656 15.515625 -42.648438 15.734375 -43.296875 L 18.609375 -42.640625 L 18.40625 -41.765625 C 18.007812 -40.285156 17.535156 -39.289062 16.984375 -38.78125 C 16.441406 -38.269531 15.753906 -38.015625 14.921875 -38.015625 C 14.097656 -38.015625 12.945312 -38.332031 11.46875 -38.96875 C 10 -39.613281 9.039062 -39.9375 8.59375 -39.9375 C 8.144531 -39.9375 7.800781 -39.910156 7.5625 -39.859375 C 7.320312 -39.804688 6.988281 -39.359375 6.5625 -38.515625 Z M 13.734375 -19.390625 C 11.765625 -18.492188 10.453125 -17.800781 9.796875 -17.3125 C 9.140625 -16.832031 8.644531 -16.269531 8.3125 -15.625 C 7.976562 -14.976562 7.8125 -13.910156 7.8125 -12.421875 L 7.8125 -9.171875 C 7.8125 -7.117188 7.988281 -5.675781 8.34375 -4.84375 C 8.707031 -4.007812 9.328125 -3.59375 10.203125 -3.59375 C 11.078125 -3.59375 11.828125 -3.84375 12.453125 -4.34375 C 13.078125 -4.851562 13.503906 -5.40625 13.734375 -6 Z M 3.40625 -24.984375 C 3.40625 -29.234375 4.066406 -32.0625 5.390625 -33.46875 C 6.722656 -34.875 8.613281 -35.578125 11.0625 -35.578125 C 13.519531 -35.578125 15.296875 -34.984375 16.390625 -33.796875 C 17.492188 -32.609375 18.171875 -30.703125 18.421875 -28.078125 C 18.535156 -26.953125 18.59375 -25.570312 18.59375 -23.9375 L 18.59375 0 L 13.765625 0 L 13.765625 -3.046875 C 13.515625 -2.203125 12.96875 -1.429688 12.125 -0.734375 C 11.28125 -0.0351562 10.234375 0.3125 8.984375 0.3125 C 4.992188 0.3125 2.984375 -2.800781 2.953125 -9.03125 L 2.953125 -12.453125 C 2.953125 -14.460938 3.503906 -16.179688 4.609375 -17.609375 C 5.710938 -19.046875 8.753906 -20.675781 13.734375 -22.5 L 13.734375 -25.21875 C 13.734375 -28.238281 13.515625 -30.050781 13.078125 -30.65625 C 12.640625 -31.269531 11.894531 -31.578125 10.84375 -31.578125 C 9.789062 -31.578125 9.082031 -31.113281 8.71875 -30.1875 C 8.363281 -29.269531 8.1875 -27.609375 8.1875 -25.203125 L 8.1875 -23.984375 L 3.40625 -23.984375 Z M 3.40625 -24.984375 "/></g></g></g><g fill="#325e7b" fill-opacity="1"><g transform="translate(1001.862393, 485.206775)"><g><path d="M 2.90625 -24.078125 C 2.90625 -29.773438 4.21875 -33.328125 6.84375 -34.734375 C 7.90625 -35.296875 9.140625 -35.578125 10.546875 -35.578125 C 14.222656 -35.578125 16.566406 -34.101562 17.578125 -31.15625 C 18.203125 -29.289062 18.515625 -26.929688 18.515625 -24.078125 L 18.515625 -11.625 C 18.515625 -6.6875 17.847656 -3.441406 16.515625 -1.890625 C 15.191406 -0.347656 13.273438 0.421875 10.765625 0.421875 C 7.085938 0.421875 4.75 -1.140625 3.75 -4.265625 C 3.1875 -6.066406 2.90625 -8.519531 2.90625 -11.625 Z M 13.6875 -25.03125 C 13.6875 -28.375 13.210938 -30.40625 12.265625 -31.125 C 11.867188 -31.425781 11.359375 -31.578125 10.734375 -31.578125 C 9.472656 -31.578125 8.65625 -31.003906 8.28125 -29.859375 C 7.914062 -28.722656 7.734375 -27.113281 7.734375 -25.03125 L 7.734375 -10.296875 C 7.734375 -6.835938 8.21875 -4.75 9.1875 -4.03125 C 9.582031 -3.738281 10.066406 -3.59375 10.640625 -3.59375 C 10.671875 -3.59375 10.703125 -3.59375 10.734375 -3.59375 C 11.972656 -3.59375 12.773438 -4.171875 13.140625 -5.328125 C 13.503906 -6.492188 13.6875 -8.148438 13.6875 -10.296875 Z M 13.6875 -25.03125 "/></g></g></g><g clip-path="url(#24bac837b0)"><g clip-path="url(#374a64e3da)"><g clip-path="url(#de7c4e93b0)"><path fill="#0097b2" d="M 315.921875 446.765625 C 311.789062 448.914062 307.011719 450.457031 302.496094 449.304688 C 297.980469 448.15625 294.152344 443.476562 295.351562 438.976562 C 296.003906 436.535156 297.957031 434.605469 300.183594 433.410156 C 302.40625 432.210938 304.910156 431.644531 307.375 431.089844 C 311.683594 430.121094 315.988281 429.152344 320.296875 428.183594 C 324.253906 427.292969 329.152344 425.277344 333.195312 425.28125 C 337.878906 425.289062 333.988281 430.035156 332.597656 432.035156 C 330.574219 434.949219 328.214844 437.628906 325.589844 440.015625 C 322.742188 442.597656 319.441406 445.164062 315.921875 446.765625 Z M 317.441406 421.707031 C 319.582031 421.390625 325.285156 420.703125 326.621094 418.769531 C 328.203125 416.476562 321.011719 416.765625 319.425781 416.601562 C 315.738281 416.222656 312.050781 415.839844 308.363281 415.460938 C 307.425781 415.363281 306.46875 415.269531 305.550781 415.472656 C 304.632812 415.675781 303.738281 416.234375 303.378906 417.101562 C 302.90625 418.242188 303.496094 419.609375 304.464844 420.378906 C 305.429688 421.144531 306.683594 421.441406 307.902344 421.640625 C 311.074219 422.117188 314.265625 422.175781 317.441406 421.707031 Z M 341.671875 448.949219 C 342.246094 445.09375 343.222656 439.972656 343.125 435.53125 C 343.09375 434.019531 341.097656 433.507812 340.355469 434.824219 C 338.402344 438.269531 335.460938 443.253906 330.582031 448.628906 C 324.941406 454.847656 317.6875 459.941406 314.367188 467.652344 C 312.789062 471.316406 312.183594 475.816406 314.429688 479.117188 C 316.429688 482.058594 320.375 483.308594 323.871094 482.65625 C 327.371094 482.003906 330.398438 479.699219 332.546875 476.863281 C 334.871094 473.800781 336.273438 470.144531 337.496094 466.515625 C 339.417969 460.796875 340.78125 454.914062 341.671875 448.949219 Z M 341.671875 448.949219 " fill-opacity="1" fill-rule="nonzero"/></g></g></g></svg>