<svg xmlns="http://www.w3.org/2000/svg" xmlns:xlink="http://www.w3.org/1999/xlink" width="432" zoomAndPan="magnify" viewBox="0 0 324 231" height="308" preserveAspectRatio="xMidYMid meet" version="1.0"><defs><g/><clipPath id="ff4553769c"><path d="M 93.105469 0.207031 L 197 0.207031 L 197 104 L 93.105469 104 Z M 93.105469 0.207031 " clip-rule="nonzero"/></clipPath><clipPath id="6bf8f570e7"><path d="M 220 0.207031 L 323.355469 0.207031 L 323.355469 104 L 220 104 Z M 220 0.207031 " clip-rule="nonzero"/></clipPath><clipPath id="65982ed7c9"><path d="M 93.105469 127 L 197 127 L 197 230.457031 L 93.105469 230.457031 Z M 93.105469 127 " clip-rule="nonzero"/></clipPath><clipPath id="6689da659d"><path d="M 220 127 L 323.355469 127 L 323.355469 230.457031 L 220 230.457031 Z M 220 127 " clip-rule="nonzero"/></clipPath></defs><g clip-path="url(#ff4553769c)"><path fill="#0097b2" d="M 104.253906 103.140625 L 184.890625 103.140625 C 191.058594 103.140625 196.039062 98.160156 196.039062 91.992188 L 196.039062 11.355469 C 196.039062 5.1875 191.058594 0.207031 184.890625 0.207031 L 104.253906 0.207031 C 98.085938 0.207031 93.105469 5.1875 93.105469 11.355469 L 93.105469 91.992188 C 93.105469 98.160156 98.085938 103.140625 104.253906 103.140625 Z M 104.253906 103.140625 " fill-opacity="1" fill-rule="nonzero"/></g><g clip-path="url(#6bf8f570e7)"><path fill="#0097b2" d="M 323.496094 11.355469 C 323.496094 5.1875 318.515625 0.207031 312.347656 0.207031 L 231.710938 0.207031 C 225.542969 0.207031 220.5625 5.1875 220.5625 11.355469 L 220.5625 91.992188 C 220.5625 98.160156 225.542969 103.140625 231.710938 103.140625 L 312.347656 103.140625 C 318.515625 103.140625 323.496094 98.160156 323.496094 91.992188 Z M 323.496094 11.355469 " fill-opacity="1" fill-rule="nonzero"/></g><g clip-path="url(#65982ed7c9)"><path fill="#0097b2" d="M 104.253906 230.597656 L 184.890625 230.597656 C 191.058594 230.597656 196.039062 225.617188 196.039062 219.449219 L 196.039062 138.8125 C 196.039062 132.644531 191.058594 127.664062 184.890625 127.664062 L 104.253906 127.664062 C 98.085938 127.664062 93.105469 132.644531 93.105469 138.8125 L 93.105469 219.449219 C 93.105469 225.617188 98.085938 230.597656 104.253906 230.597656 Z M 104.253906 230.597656 " fill-opacity="1" fill-rule="nonzero"/></g><g clip-path="url(#6689da659d)"><path fill="#0097b2" d="M 271.992188 127.664062 C 243.601562 127.664062 220.5625 150.703125 220.5625 179.09375 C 220.5625 207.484375 243.601562 230.597656 271.992188 230.597656 C 300.382812 230.597656 323.496094 207.484375 323.496094 179.09375 C 323.496094 150.703125 300.382812 127.664062 271.992188 127.664062 Z M 271.992188 127.664062 " fill-opacity="1" fill-rule="nonzero"/></g><g fill="#0097b2" fill-opacity="1"><g transform="translate(120.836922, 59.800005)"><g><path d="M 1.828125 -2.234375 C 1.828125 -3.109375 2.0625 -3.769531 2.53125 -4.21875 C 3 -4.664062 3.679688 -4.890625 4.578125 -4.890625 C 5.441406 -4.890625 6.109375 -4.660156 6.578125 -4.203125 C 7.054688 -3.742188 7.296875 -3.085938 7.296875 -2.234375 C 7.296875 -1.410156 7.054688 -0.757812 6.578125 -0.28125 C 6.097656 0.1875 5.429688 0.421875 4.578125 0.421875 C 3.703125 0.421875 3.023438 0.191406 2.546875 -0.265625 C 2.066406 -0.734375 1.828125 -1.390625 1.828125 -2.234375 Z M 1.828125 -2.234375 "/></g></g></g></svg>