<svg xmlns="http://www.w3.org/2000/svg" xmlns:xlink="http://www.w3.org/1999/xlink" width="1099" zoomAndPan="magnify" viewBox="0 0 824.25 362.250002" height="483" preserveAspectRatio="xMidYMid meet" version="1.0"><defs><g/></defs><g fill="#d14179" fill-opacity="1"><g transform="translate(94.744749, 223.112032)"><g><path d="M 19.683594 -8.46875 L 17.609375 -35.203125 L 60.742188 -53.757812 L 78.585938 -33.808594 L 97.011719 -41.738281 L 13.085938 -131.847656 L -6.457031 -123.441406 L 1.257812 -0.539062 Z M 11.480469 -108.660156 L 48.769531 -66.96875 L 16.109375 -52.917969 Z M 11.480469 -108.660156 "/></g></g></g><g fill="#d14179" fill-opacity="1"><g transform="translate(172.539919, 185.354208)"><g><path d="M 57.886719 -0.90625 C 65.636719 -1.027344 79.75 -2.464844 89.039062 -10.96875 C 94.582031 -16.070312 98.558594 -24.1875 98.390625 -34.820312 C 98.148438 -50.320312 89.480469 -60.367188 74.105469 -61.949219 C 85.464844 -64.558594 91.988281 -74.996094 91.777344 -88.363281 C 91.648438 -96.722656 89.113281 -103.367188 84.023438 -108.152344 C 78.003906 -113.984375 68.230469 -117.023438 54.101562 -116.804688 L 8.976562 -116.097656 L 10.789062 -0.167969 Z M 28.542969 -99.078125 L 50.269531 -99.417969 C 58.472656 -99.546875 64.265625 -98.421875 67.964844 -95.136719 C 70.738281 -92.59375 72.464844 -89.125 72.542969 -84.113281 C 72.703125 -73.933594 66.109375 -68.054688 53.953125 -67.863281 L 29.035156 -67.476562 Z M 29.285156 -51.523438 L 57.394531 -51.960938 C 65.75 -52.09375 78.980469 -51.691406 79.222656 -36.042969 C 79.316406 -30.117188 77.402344 -26.132812 74.554688 -23.507812 C 69.3125 -18.5625 60.808594 -18.277344 55.339844 -18.191406 L 29.8125 -17.792969 Z M 29.285156 -51.523438 "/></g></g></g><g fill="#d14179" fill-opacity="1"><g transform="translate(257.02335, 178.681475)"><g><path d="M 56.292969 25.320312 C 82.007812 35.90625 103.671875 28.394531 115.871094 7.949219 L 96.339844 -0.09375 C 88.597656 12.328125 76.039062 14.878906 62.550781 9.324219 C 41.335938 0.589844 37.003906 -20.421875 46.550781 -43.605469 C 56.042969 -66.648438 73.855469 -78.378906 95.070312 -69.640625 C 108.558594 -64.085938 115.675781 -53.429688 113.179688 -40.984375 L 132.710938 -32.941406 C 137.949219 -54.445312 127.605469 -74.8125 101.890625 -85.402344 C 66.902344 -99.808594 40.238281 -80.550781 28.144531 -51.1875 C 16.050781 -21.820312 21.308594 10.910156 56.292969 25.320312 Z M 56.292969 25.320312 "/></g></g></g><g fill="#0097b2" fill-opacity="1"><g transform="translate(407.156768, 238.660077)"><g><path d="M 39.59375 20.921875 L 23.1875 12.25 L 56.859375 -51.484375 L 35.84375 -62.59375 L 43.046875 -76.25 L 101.484375 -45.375 L 94.28125 -31.71875 L 73.265625 -42.8125 Z M 39.59375 20.921875 "/></g></g></g><g fill="#0097b2" fill-opacity="1"><g transform="translate(482.884996, 277.927629)"><g><path d="M 90.671875 -27.640625 C 87.890625 -13.503906 81.734375 -3.46875 72.203125 2.46875 C 62.679688 8.40625 50.320312 9.878906 35.125 6.890625 L 10.8125 2.125 L 27.671875 -83.765625 L 54.640625 -78.46875 C 68.648438 -75.71875 78.804688 -69.878906 85.109375 -60.953125 C 91.421875 -52.023438 93.273438 -40.921875 90.671875 -27.640625 Z M 71.65625 -30.890625 C 75.28125 -49.335938 68.945312 -60.160156 52.65625 -63.359375 L 42.96875 -65.265625 L 31.984375 -9.34375 L 39.78125 -7.8125 C 57.332031 -4.363281 67.957031 -12.054688 71.65625 -30.890625 Z M 71.65625 -30.890625 "/></g></g></g><g fill="#0097b2" fill-opacity="1"><g transform="translate(587.487202, 295.485803)"><g><path d="M 64.109375 -7.90625 L 55.265625 -27.796875 L 23.59375 -23.890625 L 19.84375 -2.453125 L 0 0 L 19.90625 -91.015625 L 42.421875 -93.796875 L 83.953125 -10.34375 Z M 48.96875 -42.71875 C 40.820312 -60.738281 36.234375 -70.925781 35.203125 -73.28125 C 34.171875 -75.644531 33.410156 -77.519531 32.921875 -78.90625 C 32.234375 -73.6875 30.035156 -60.691406 26.328125 -39.921875 Z M 48.96875 -42.71875 "/></g></g></g><g fill="#0097b2" fill-opacity="1"><g transform="translate(686.849257, 281.412151)"><g><path d="M 74.6875 -35.59375 L 57.984375 -27.640625 L 41.734375 -61.75 L 10.453125 -46.828125 L 26.703125 -12.71875 L 9.9375 -4.734375 L -27.71875 -83.75 L -10.953125 -91.734375 L 3.8125 -60.765625 L 35.09375 -75.6875 L 20.328125 -106.65625 L 37.03125 -114.609375 Z M 74.6875 -35.59375 "/></g></g></g></svg>