<svg xmlns="http://www.w3.org/2000/svg" xmlns:xlink="http://www.w3.org/1999/xlink" width="1792" zoomAndPan="magnify" viewBox="0 0 1344 1343.999938" height="1792" preserveAspectRatio="xMidYMid meet" version="1.0"><defs><g/><clipPath id="5758207256"><path d="M 0 116 L 1227 116 L 1227 1343.390625 L 0 1343.390625 Z M 0 116 " clip-rule="nonzero"/></clipPath><clipPath id="dd47540937"><path d="M 584 0.140625 L 1343.25 0.140625 L 1343.25 760 L 584 760 Z M 584 0.140625 " clip-rule="nonzero"/></clipPath></defs><g clip-path="url(#5758207256)"><path fill="#dbdad7" d="M 613.335938 1343.636719 C 275.125 1343.636719 0 1068.515625 0 730.304688 C 0 392.09375 275.125 116.96875 613.335938 116.96875 C 733.898438 116.96875 850.785156 152.191406 951.429688 218.78125 C 964.804688 227.660156 968.542969 245.828125 959.664062 259.261719 C 950.667969 272.753906 932.5625 276.320312 919.183594 267.496094 C 828.175781 207.273438 722.390625 175.382812 613.335938 175.382812 C 307.367188 175.382812 58.414062 424.335938 58.414062 730.304688 C 58.414062 1036.269531 307.367188 1285.226562 613.335938 1285.226562 C 919.300781 1285.226562 1168.257812 1036.269531 1168.257812 730.304688 C 1168.257812 621.246094 1136.421875 515.460938 1076.140625 424.453125 C 1067.261719 411.019531 1070.941406 392.851562 1084.375 383.972656 C 1097.753906 375.152344 1115.859375 378.714844 1124.855469 392.210938 C 1191.503906 492.796875 1226.671875 609.738281 1226.671875 730.304688 C 1226.671875 1068.515625 951.546875 1343.636719 613.335938 1343.636719 Z M 613.335938 1343.636719 " fill-opacity="1" fill-rule="nonzero"/></g><path fill="#dbdad7" d="M 613.335938 876.335938 C 532.785156 876.335938 467.304688 810.796875 467.304688 730.304688 C 467.304688 649.808594 532.785156 584.269531 613.335938 584.269531 C 693.886719 584.269531 759.367188 649.808594 759.367188 730.304688 C 759.367188 810.796875 693.886719 876.335938 613.335938 876.335938 Z M 613.335938 642.683594 C 565.027344 642.683594 525.714844 681.996094 525.714844 730.304688 C 525.714844 778.609375 565.027344 817.921875 613.335938 817.921875 C 661.644531 817.921875 700.953125 778.609375 700.953125 730.304688 C 700.953125 681.996094 661.644531 642.683594 613.335938 642.683594 Z M 613.335938 642.683594 " fill-opacity="1" fill-rule="nonzero"/><g clip-path="url(#dd47540937)"><path fill="#dbdad7" d="M 613.335938 759.507812 C 605.859375 759.507812 598.382812 756.648438 592.65625 750.980469 C 581.265625 739.589844 581.265625 721.074219 592.65625 709.683594 L 1051.433594 250.910156 L 1051.433594 146.175781 C 1051.433594 138.40625 1054.527344 130.988281 1059.960938 125.496094 L 1176.785156 8.671875 C 1185.195312 0.316406 1197.757812 -2.253906 1208.621094 2.363281 C 1219.542969 6.917969 1226.671875 17.550781 1226.671875 29.347656 L 1226.671875 116.96875 L 1314.289062 116.96875 C 1326.089844 116.96875 1336.777344 124.09375 1341.277344 135.019531 C 1345.773438 145.941406 1343.261719 158.5 1334.96875 166.851562 L 1218.140625 283.679688 C 1212.652344 289.167969 1205.234375 292.207031 1197.464844 292.207031 L 1092.730469 292.207031 L 633.953125 750.980469 C 628.289062 756.648438 620.8125 759.507812 613.335938 759.507812 Z M 1109.84375 233.792969 L 1185.371094 233.792969 L 1243.785156 175.382812 L 1197.464844 175.382812 C 1181.34375 175.382812 1168.257812 162.296875 1168.257812 146.175781 L 1168.257812 99.851562 L 1109.84375 158.265625 Z M 1109.84375 233.792969 " fill-opacity="1" fill-rule="nonzero"/></g><path fill="#dbdad7" d="M 613.335938 1109.988281 C 403.984375 1109.988281 233.652344 939.65625 233.652344 730.304688 C 233.652344 520.953125 403.984375 350.621094 613.335938 350.621094 C 669.996094 350.621094 724.960938 363.179688 776.714844 387.945312 C 791.261719 394.953125 797.394531 412.363281 790.441406 426.90625 C 783.492188 441.453125 766.027344 447.585938 751.480469 440.632812 C 707.671875 419.664062 661.175781 409.03125 613.335938 409.03125 C 436.226562 409.03125 292.0625 553.136719 292.0625 730.304688 C 292.0625 907.46875 436.226562 1051.574219 613.335938 1051.574219 C 790.441406 1051.574219 934.605469 907.46875 934.605469 730.304688 C 934.605469 682.464844 923.917969 635.964844 902.945312 592.097656 C 895.996094 577.554688 902.128906 560.148438 916.671875 553.136719 C 931.042969 546.128906 948.625 552.203125 955.632812 566.863281 C 980.460938 618.675781 993.019531 673.644531 993.019531 730.304688 C 993.019531 939.65625 822.6875 1109.988281 613.335938 1109.988281 Z M 613.335938 1109.988281 " fill-opacity="1" fill-rule="nonzero"/><g fill="#000000" fill-opacity="1"><g transform="translate(875.999954, 488.549961)"><g><path d="M 0.890625 -0.625 C 0.890625 -0.882812 0.945312 -1.082031 1.0625 -1.21875 C 1.1875 -1.351562 1.359375 -1.421875 1.578125 -1.421875 C 1.804688 -1.421875 1.984375 -1.351562 2.109375 -1.21875 C 2.234375 -1.082031 2.296875 -0.882812 2.296875 -0.625 C 2.296875 -0.363281 2.234375 -0.164062 2.109375 -0.03125 C 1.984375 0.101562 1.804688 0.171875 1.578125 0.171875 C 1.378906 0.171875 1.210938 0.109375 1.078125 -0.015625 C 0.953125 -0.140625 0.890625 -0.34375 0.890625 -0.625 Z M 0.890625 -0.625 "/></g></g></g></svg>