<svg xmlns="http://www.w3.org/2000/svg" xmlns:xlink="http://www.w3.org/1999/xlink" width="1876" zoomAndPan="magnify" viewBox="0 0 1407 1343.999938" height="1792" preserveAspectRatio="xMidYMid meet" version="1.0"><defs><g/><clipPath id="97ff71ed00"><path d="M 12 0.0664062 L 1389 0.0664062 L 1389 1343.316406 L 12 1343.316406 Z M 12 0.0664062 " clip-rule="nonzero"/></clipPath></defs><g clip-path="url(#97ff71ed00)"><path fill="#dbdad7" d="M 1379.652344 469.648438 L 1320.796875 533.625 L 1274.09375 584.804688 L 1096.238281 776.734375 C 1094.707031 778.332031 1093.03125 779.761719 1091.210938 781.023438 C 1089.394531 782.289062 1087.46875 783.359375 1085.4375 784.238281 C 1083.402344 785.117188 1081.304688 785.785156 1079.136719 786.246094 C 1076.972656 786.707031 1074.78125 786.945312 1072.570312 786.96875 L 1069.371094 786.96875 C 1066.863281 786.667969 1064.425781 786.082031 1062.054688 785.214844 C 1059.683594 784.347656 1057.441406 783.21875 1055.332031 781.832031 C 1053.222656 780.445312 1051.300781 778.835938 1049.566406 777 C 1047.832031 775.167969 1046.328125 773.15625 1045.058594 770.976562 L 953.574219 616.792969 C 953.042969 615.886719 952.558594 614.960938 952.117188 614.007812 C 951.679688 613.054688 951.285156 612.085938 950.941406 611.09375 C 950.59375 610.105469 950.296875 609.101562 950.046875 608.082031 C 949.796875 607.0625 949.597656 606.035156 949.445312 604.996094 C 949.296875 603.960938 949.195312 602.917969 949.144531 601.871094 C 949.097656 600.820312 949.097656 599.773438 949.148438 598.726562 C 949.199219 597.679688 949.300781 596.636719 949.453125 595.597656 C 949.605469 594.5625 949.804688 593.535156 950.058594 592.515625 C 950.308594 591.496094 950.605469 590.492188 950.953125 589.503906 C 951.300781 588.515625 951.695312 587.542969 952.136719 586.59375 C 952.578125 585.640625 953.066406 584.714844 953.597656 583.808594 C 954.125 582.90625 954.699219 582.027344 955.316406 581.179688 C 955.929688 580.328125 956.585938 579.511719 957.277344 578.726562 C 957.972656 577.9375 958.703125 577.1875 959.46875 576.472656 C 960.238281 575.757812 961.035156 575.078125 961.867188 574.441406 C 962.699219 573.800781 963.558594 573.207031 964.449219 572.648438 C 965.363281 572.128906 966.300781 571.652344 967.261719 571.21875 C 968.222656 570.789062 969.203125 570.402344 970.199219 570.066406 C 971.199219 569.730469 972.210938 569.441406 973.234375 569.203125 C 974.261719 568.964844 975.296875 568.777344 976.339844 568.636719 C 977.386719 568.5 978.433594 568.410156 979.484375 568.375 C 980.539062 568.335938 981.589844 568.351562 982.640625 568.414062 C 983.691406 568.480469 984.738281 568.597656 985.777344 568.761719 C 986.820312 568.929688 987.847656 569.144531 988.867188 569.410156 C 989.886719 569.675781 990.890625 569.992188 991.878906 570.355469 C 992.867188 570.71875 993.835938 571.125 994.785156 571.582031 C 995.734375 572.039062 996.660156 572.542969 997.558594 573.089844 C 998.460938 573.636719 999.332031 574.222656 1000.175781 574.855469 C 1001.019531 575.484375 1001.832031 576.15625 1002.609375 576.867188 C 1003.386719 577.574219 1004.128906 578.320312 1004.835938 579.101562 C 1005.542969 579.882812 1006.210938 580.695312 1006.835938 581.542969 C 1007.464844 582.386719 1008.050781 583.261719 1008.59375 584.164062 L 1078.328125 703.800781 L 1238.90625 528.507812 L 1282.410156 481.164062 L 1332.3125 426.785156 C 1333.023438 426.007812 1333.773438 425.269531 1334.558594 424.570312 C 1335.34375 423.867188 1336.160156 423.207031 1337.007812 422.585938 C 1337.859375 421.964844 1338.738281 421.386719 1339.644531 420.851562 C 1340.550781 420.316406 1341.480469 419.824219 1342.4375 419.382812 C 1343.390625 418.9375 1344.367188 418.542969 1345.359375 418.195312 C 1346.355469 417.847656 1347.363281 417.546875 1348.386719 417.300781 C 1349.40625 417.050781 1350.441406 416.851562 1351.484375 416.707031 C 1352.527344 416.558594 1353.574219 416.460938 1354.625 416.417969 C 1355.675781 416.371094 1356.726562 416.378906 1357.78125 416.4375 C 1358.832031 416.496094 1359.875 416.609375 1360.917969 416.769531 C 1361.957031 416.929688 1362.988281 417.144531 1364.007812 417.40625 C 1365.027344 417.667969 1366.03125 417.980469 1367.019531 418.34375 C 1368.007812 418.703125 1368.976562 419.113281 1369.925781 419.570312 C 1370.875 420.027344 1371.796875 420.527344 1372.699219 421.078125 C 1373.597656 421.625 1374.46875 422.214844 1375.308594 422.847656 C 1376.152344 423.480469 1376.957031 424.152344 1377.734375 424.863281 C 1378.507812 425.578125 1379.246094 426.328125 1379.949219 427.109375 C 1380.652344 427.894531 1381.3125 428.714844 1381.933594 429.5625 C 1382.554688 430.414062 1383.132812 431.292969 1383.667969 432.199219 C 1384.203125 433.105469 1384.691406 434.035156 1385.136719 434.992188 C 1385.582031 435.945312 1385.976562 436.921875 1386.324219 437.914062 C 1386.671875 438.90625 1386.96875 439.917969 1387.21875 440.9375 C 1387.46875 441.960938 1387.664062 442.996094 1387.8125 444.039062 C 1387.960938 445.082031 1388.054688 446.128906 1388.101562 447.179688 C 1388.144531 448.230469 1388.136719 449.28125 1388.078125 450.332031 C 1388.019531 451.386719 1387.910156 452.429688 1387.75 453.472656 C 1387.585938 454.511719 1387.375 455.542969 1387.113281 456.5625 C 1386.847656 457.582031 1386.535156 458.585938 1386.175781 459.574219 C 1385.8125 460.5625 1385.40625 461.53125 1384.949219 462.480469 C 1384.492188 463.429688 1383.988281 464.351562 1383.441406 465.253906 C 1382.894531 466.152344 1382.304688 467.023438 1381.671875 467.863281 C 1381.039062 468.703125 1380.367188 469.511719 1379.652344 470.289062 Z M 1352.144531 628.949219 C 1352.460938 626.816406 1352.460938 624.683594 1352.144531 622.550781 C 1351.960938 621.65625 1351.742188 620.769531 1351.480469 619.894531 C 1351.222656 619.019531 1350.929688 618.15625 1350.59375 617.304688 C 1350.261719 616.453125 1349.894531 615.621094 1349.492188 614.800781 C 1349.085938 613.980469 1348.648438 613.179688 1348.175781 612.398438 C 1347.703125 611.617188 1347.199219 610.859375 1346.660156 610.121094 C 1346.125 609.382812 1345.554688 608.667969 1344.957031 607.976562 C 1344.359375 607.289062 1343.730469 606.625 1343.074219 605.988281 C 1342.417969 605.351562 1341.738281 604.746094 1341.03125 604.167969 C 1340.324219 603.589844 1339.59375 603.046875 1338.835938 602.53125 C 1338.082031 602.015625 1337.308594 601.535156 1336.511719 601.085938 C 1335.71875 600.636719 1334.90625 600.222656 1334.074219 599.84375 C 1333.242188 599.464844 1332.398438 599.121094 1331.535156 598.816406 C 1330.675781 598.507812 1329.804688 598.238281 1328.921875 598.007812 C 1328.039062 597.777344 1327.144531 597.582031 1326.246094 597.425781 C 1325.34375 597.273438 1324.441406 597.15625 1323.53125 597.078125 C 1322.621094 597 1321.707031 596.960938 1320.796875 596.960938 C 1318.722656 596.914062 1316.667969 597.074219 1314.628906 597.441406 C 1312.589844 597.808594 1310.609375 598.378906 1308.683594 599.148438 C 1306.757812 599.917969 1304.933594 600.875 1303.199219 602.011719 C 1301.46875 603.152344 1299.871094 604.453125 1298.402344 605.917969 L 1293.925781 611.035156 C 1292.21875 613.707031 1290.933594 616.570312 1290.0625 619.617188 C 1289.191406 622.667969 1288.773438 625.777344 1288.808594 628.949219 C 1288.488281 631.082031 1288.488281 633.214844 1288.808594 635.347656 C 1291.203125 647.386719 1292.269531 659.539062 1292.007812 671.8125 C 1292.007812 677.0625 1291.820312 682.308594 1291.449219 687.546875 C 1291.082031 692.785156 1290.527344 698.003906 1289.785156 703.199219 C 1289.046875 708.398438 1288.125 713.566406 1287.019531 718.699219 C 1285.914062 723.832031 1284.628906 728.921875 1283.164062 733.960938 C 1281.699219 739.003906 1280.054688 743.988281 1278.238281 748.914062 C 1276.421875 753.839844 1274.429688 758.699219 1272.269531 763.484375 C 1270.109375 768.269531 1267.78125 772.972656 1265.285156 777.59375 C 1262.789062 782.214844 1260.136719 786.738281 1257.320312 791.171875 C 1254.507812 795.605469 1251.539062 799.933594 1248.417969 804.15625 C 1245.296875 808.378906 1242.03125 812.488281 1238.621094 816.480469 C 1235.210938 820.472656 1231.660156 824.335938 1227.976562 828.078125 C 1224.292969 831.820312 1220.480469 835.425781 1216.539062 838.894531 C 1212.597656 842.367188 1208.539062 845.695312 1204.363281 848.878906 C 1200.1875 852.0625 1195.90625 855.09375 1191.515625 857.976562 C 1187.125 860.855469 1182.640625 863.578125 1178.058594 866.140625 C 1173.472656 868.707031 1168.804688 871.105469 1164.054688 873.335938 C 1154.101562 878.847656 1143.753906 883.484375 1133.015625 887.242188 C 1122.273438 891 1111.296875 893.828125 1100.078125 895.730469 C 1089.414062 896.707031 1078.753906 896.707031 1068.089844 895.730469 C 1064.425781 895.730469 1060.761719 895.636719 1057.101562 895.457031 C 1053.441406 895.277344 1049.789062 895.007812 1046.140625 894.648438 C 1042.496094 894.292969 1038.859375 893.84375 1035.234375 893.304688 C 1031.609375 892.765625 1028 892.140625 1024.40625 891.425781 C 1020.8125 890.710938 1017.238281 889.910156 1013.683594 889.019531 C 1010.128906 888.128906 1006.597656 887.152344 1003.089844 886.085938 C 999.582031 885.023438 996.105469 883.875 992.65625 882.640625 C 989.203125 881.40625 985.785156 880.085938 982.402344 878.683594 C 979.015625 877.28125 975.667969 875.796875 972.355469 874.230469 C 969.039062 872.664062 965.769531 871.015625 962.535156 869.289062 C 959.304688 867.5625 956.117188 865.753906 952.972656 863.871094 C 949.832031 861.988281 946.734375 860.027344 943.6875 857.992188 C 940.640625 855.957031 937.648438 853.847656 934.703125 851.664062 C 931.761719 849.480469 928.871094 847.226562 926.039062 844.902344 C 923.207031 842.578125 920.433594 840.183594 917.71875 837.722656 C 915.003906 835.261719 912.347656 832.738281 909.757812 830.144531 C 907.167969 827.554688 904.640625 824.902344 902.179688 822.183594 C 899.71875 819.46875 897.324219 816.695312 895 813.863281 C 892.675781 811.03125 890.421875 808.140625 888.238281 805.199219 C 886.054688 802.253906 883.945312 799.261719 881.910156 796.214844 C 879.875 793.167969 877.914062 790.070312 876.03125 786.929688 C 874.148438 783.785156 872.339844 780.597656 870.613281 777.367188 C 868.886719 774.132812 867.238281 770.863281 865.671875 767.550781 C 864.105469 764.234375 862.621094 760.886719 861.21875 757.5 C 859.816406 754.117188 858.496094 750.699219 857.261719 747.246094 C 856.027344 743.796875 854.878906 740.320312 853.816406 736.8125 C 852.753906 733.304688 851.773438 729.773438 850.882812 726.21875 C 849.992188 722.664062 849.191406 719.089844 848.476562 715.496094 C 847.761719 711.902344 847.136719 708.292969 846.597656 704.667969 C 846.058594 701.042969 845.613281 697.40625 845.253906 693.761719 C 844.894531 690.113281 844.625 686.460938 844.445312 682.800781 C 844.265625 679.140625 844.175781 675.476562 844.175781 671.8125 C 844.175781 668.148438 844.265625 664.484375 844.445312 660.824219 C 844.625 657.164062 844.894531 653.511719 845.253906 649.863281 C 845.613281 646.21875 846.058594 642.582031 846.597656 638.957031 C 847.136719 635.332031 847.761719 631.722656 848.476562 628.128906 C 849.191406 624.535156 849.992188 620.960938 850.882812 617.40625 C 851.773438 613.851562 852.753906 610.320312 853.816406 606.8125 C 854.878906 603.304688 856.027344 599.828125 857.261719 596.378906 C 858.496094 592.925781 859.816406 589.507812 861.21875 586.125 C 862.621094 582.738281 864.105469 579.390625 865.671875 576.078125 C 867.238281 572.761719 868.886719 569.492188 870.613281 566.257812 C 872.339844 563.027344 874.148438 559.839844 876.03125 556.695312 C 877.914062 553.554688 879.875 550.457031 881.910156 547.410156 C 883.945312 544.363281 886.054688 541.371094 888.238281 538.425781 C 890.421875 535.484375 892.675781 532.59375 895 529.761719 C 897.324219 526.929688 899.71875 524.15625 902.179688 521.441406 C 904.640625 518.722656 907.167969 516.070312 909.757812 513.480469 C 912.347656 510.890625 915.003906 508.363281 917.71875 505.902344 C 920.433594 503.441406 923.207031 501.046875 926.039062 498.722656 C 928.871094 496.398438 931.761719 494.144531 934.703125 491.960938 C 937.648438 489.777344 940.640625 487.667969 943.6875 485.632812 C 946.734375 483.597656 949.832031 481.636719 952.972656 479.753906 C 956.117188 477.871094 959.304688 476.0625 962.535156 474.335938 C 965.769531 472.609375 969.039062 470.960938 972.355469 469.394531 C 975.667969 467.828125 979.015625 466.34375 982.402344 464.941406 C 985.785156 463.539062 989.203125 462.21875 992.65625 460.984375 C 996.105469 459.75 999.582031 458.601562 1003.089844 457.539062 C 1006.597656 456.472656 1010.128906 455.496094 1013.683594 454.605469 C 1017.238281 453.714844 1020.8125 452.914062 1024.40625 452.199219 C 1028 451.484375 1031.609375 450.859375 1035.234375 450.320312 C 1038.859375 449.78125 1042.496094 449.335938 1046.140625 448.976562 C 1049.789062 448.617188 1053.441406 448.347656 1057.101562 448.167969 C 1060.761719 447.988281 1064.425781 447.898438 1068.089844 447.898438 C 1078.753906 446.917969 1089.414062 446.917969 1100.078125 447.898438 C 1111.21875 449.394531 1122.160156 451.808594 1132.894531 455.136719 C 1143.632812 458.464844 1154.019531 462.664062 1164.054688 467.730469 C 1174.71875 472.726562 1184.953125 478.484375 1194.761719 485.003906 C 1197.363281 486.894531 1200.195312 488.335938 1203.257812 489.320312 C 1206.320312 490.304688 1209.460938 490.785156 1212.675781 490.761719 C 1214.8125 490.722656 1216.921875 490.484375 1219.015625 490.046875 C 1221.105469 489.609375 1223.136719 488.980469 1225.105469 488.15625 C 1227.078125 487.335938 1228.953125 486.335938 1230.738281 485.160156 C 1232.519531 483.984375 1234.175781 482.652344 1235.707031 481.164062 L 1239.546875 476.6875 C 1241.203125 473.992188 1242.464844 471.121094 1243.335938 468.082031 C 1244.203125 465.039062 1244.648438 461.9375 1244.664062 458.773438 C 1244.304688 456.242188 1243.660156 453.789062 1242.734375 451.410156 C 1241.808594 449.027344 1240.625 446.785156 1239.183594 444.675781 C 1237.742188 442.566406 1236.078125 440.652344 1234.195312 438.925781 C 1232.3125 437.203125 1230.257812 435.714844 1228.03125 434.460938 C 1208.160156 420.414062 1186.835938 409.109375 1164.054688 400.554688 C 1143.421875 392.339844 1122.097656 386.796875 1100.078125 383.921875 C 1089.414062 383.265625 1078.753906 383.265625 1068.089844 383.921875 C 1063.378906 383.921875 1058.667969 384.035156 1053.964844 384.265625 C 1049.257812 384.5 1044.5625 384.84375 1039.871094 385.308594 C 1035.183594 385.769531 1030.507812 386.34375 1025.847656 387.035156 C 1021.1875 387.726562 1016.546875 388.53125 1011.925781 389.453125 C 1007.304688 390.371094 1002.707031 391.402344 998.136719 392.546875 C 993.566406 393.691406 989.027344 394.949219 984.519531 396.316406 C 980.011719 397.683594 975.539062 399.164062 971.101562 400.75 C 966.664062 402.335938 962.273438 404.03125 957.917969 405.835938 C 953.566406 407.636719 949.257812 409.546875 945 411.5625 C 940.742188 413.574219 936.535156 415.695312 932.378906 417.914062 C 928.222656 420.136719 924.125 422.457031 920.082031 424.878906 C 916.042969 427.300781 912.0625 429.820312 908.144531 432.4375 C 904.226562 435.058594 900.378906 437.769531 896.59375 440.574219 C 892.808594 443.382812 889.09375 446.28125 885.453125 449.269531 C 881.8125 452.257812 878.246094 455.335938 874.753906 458.5 C 871.261719 461.664062 867.851562 464.910156 864.519531 468.242188 C 861.1875 471.574219 857.941406 474.984375 854.777344 478.476562 C 851.613281 481.96875 848.535156 485.535156 845.546875 489.175781 C 842.558594 492.816406 839.660156 496.53125 836.851562 500.316406 C 834.046875 504.101562 831.335938 507.949219 828.714844 511.867188 C 826.097656 515.785156 823.578125 519.765625 821.15625 523.804688 C 818.734375 527.847656 816.414062 531.945312 814.191406 536.101562 C 811.972656 540.257812 809.851562 544.464844 807.839844 548.722656 C 805.824219 552.980469 803.914062 557.289062 802.113281 561.640625 C 800.308594 565.992188 798.613281 570.386719 797.027344 574.824219 C 795.441406 579.261719 793.960938 583.734375 792.59375 588.242188 C 791.226562 592.75 789.96875 597.289062 788.824219 601.859375 C 787.679688 606.429688 786.648438 611.027344 785.730469 615.648438 C 784.8125 620.269531 784.003906 624.910156 783.3125 629.570312 C 782.621094 634.230469 782.046875 638.90625 781.585938 643.59375 C 781.121094 648.28125 780.777344 652.980469 780.542969 657.6875 C 780.3125 662.390625 780.199219 667.101562 780.199219 671.8125 C 780.199219 676.523438 780.3125 681.234375 780.542969 685.9375 C 780.777344 690.644531 781.121094 695.34375 781.585938 700.03125 C 782.046875 704.71875 782.621094 709.394531 783.3125 714.054688 C 784.003906 718.714844 784.8125 723.355469 785.730469 727.976562 C 786.648438 732.597656 787.679688 737.195312 788.824219 741.765625 C 789.96875 746.335938 791.226562 750.875 792.59375 755.382812 C 793.960938 759.890625 795.441406 764.363281 797.027344 768.800781 C 798.613281 773.238281 800.308594 777.632812 802.113281 781.984375 C 803.914062 786.335938 805.824219 790.644531 807.839844 794.902344 C 809.851562 799.160156 811.972656 803.367188 814.191406 807.523438 C 816.414062 811.679688 818.734375 815.777344 821.15625 819.820312 C 823.578125 823.859375 826.097656 827.839844 828.714844 831.757812 C 831.335938 835.675781 834.046875 839.523438 836.851562 843.308594 C 839.660156 847.09375 842.558594 850.808594 845.546875 854.449219 C 848.535156 858.089844 851.613281 861.65625 854.777344 865.148438 C 857.941406 868.640625 861.1875 872.050781 864.519531 875.382812 C 867.851562 878.714844 871.261719 881.960938 874.753906 885.125 C 878.246094 888.289062 881.8125 891.367188 885.453125 894.355469 C 889.09375 897.34375 892.808594 900.242188 896.59375 903.050781 C 900.378906 905.855469 904.226562 908.566406 908.144531 911.1875 C 912.0625 913.804688 916.042969 916.324219 920.082031 918.746094 C 924.125 921.167969 928.222656 923.488281 932.378906 925.710938 C 936.535156 927.929688 940.742188 930.050781 945 932.0625 C 949.257812 934.078125 953.566406 935.988281 957.917969 937.789062 C 962.273438 939.59375 966.664062 941.289062 971.101562 942.875 C 975.539062 944.460938 980.011719 945.941406 984.519531 947.308594 C 989.027344 948.675781 993.566406 949.933594 998.136719 951.078125 C 1002.707031 952.222656 1007.304688 953.253906 1011.925781 954.171875 C 1016.546875 955.09375 1021.1875 955.898438 1025.847656 956.589844 C 1030.507812 957.28125 1035.183594 957.855469 1039.871094 958.316406 C 1044.5625 958.78125 1049.257812 959.125 1053.964844 959.359375 C 1058.667969 959.589844 1063.378906 959.703125 1068.089844 959.703125 C 1078.753906 960.359375 1089.414062 960.359375 1100.078125 959.703125 C 1122.011719 957.449219 1143.339844 952.546875 1164.054688 944.988281 C 1167.53125 943.753906 1170.980469 942.453125 1174.40625 941.085938 C 1177.832031 939.71875 1181.230469 938.285156 1184.601562 936.789062 C 1187.976562 935.289062 1191.316406 933.726562 1194.628906 932.101562 C 1197.9375 930.476562 1201.21875 928.789062 1204.464844 927.035156 C 1207.710938 925.285156 1210.921875 923.472656 1214.097656 921.597656 C 1217.277344 919.722656 1220.414062 917.785156 1223.519531 915.789062 C 1226.621094 913.796875 1229.683594 911.742188 1232.707031 909.628906 C 1235.734375 907.515625 1238.714844 905.34375 1241.65625 903.117188 C 1244.597656 900.890625 1247.492188 898.609375 1250.347656 896.269531 C 1253.199219 893.929688 1256.007812 891.539062 1258.769531 889.09375 C 1261.53125 886.648438 1264.242188 884.148438 1266.910156 881.597656 C 1269.574219 879.046875 1272.191406 876.449219 1274.757812 873.796875 C 1277.320312 871.148438 1279.835938 868.449219 1282.296875 865.703125 C 1284.761719 862.953125 1287.167969 860.160156 1289.523438 857.320312 C 1291.878906 854.484375 1294.179688 851.597656 1296.425781 848.671875 C 1298.667969 845.746094 1300.855469 842.773438 1302.988281 839.765625 C 1305.117188 836.753906 1307.191406 833.699219 1309.203125 830.609375 C 1311.21875 827.519531 1313.171875 824.390625 1315.066406 821.226562 C 1316.957031 818.058594 1318.789062 814.859375 1320.5625 811.621094 C 1322.332031 808.386719 1324.039062 805.117188 1325.6875 801.816406 C 1327.332031 798.515625 1328.914062 795.183594 1330.429688 791.820312 C 1331.949219 788.457031 1333.402344 785.066406 1334.789062 781.648438 C 1336.175781 778.230469 1337.5 774.789062 1338.753906 771.320312 C 1340.011719 767.851562 1341.199219 764.359375 1342.320312 760.84375 C 1343.441406 757.332031 1344.496094 753.796875 1345.480469 750.242188 C 1346.46875 746.6875 1347.386719 743.113281 1348.234375 739.523438 C 1349.085938 735.933594 1349.863281 732.328125 1350.574219 728.710938 C 1351.285156 725.089844 1351.925781 721.457031 1352.5 717.8125 C 1353.070312 714.167969 1353.570312 710.515625 1354.003906 706.851562 C 1354.433594 703.1875 1354.796875 699.515625 1355.085938 695.839844 C 1355.375 692.160156 1355.597656 688.480469 1355.746094 684.792969 C 1355.894531 681.109375 1355.972656 677.421875 1355.980469 673.730469 C 1356.121094 658.683594 1354.84375 643.753906 1352.144531 628.949219 Z M 1100.078125 1183.621094 C 1100.078125 1185.191406 1100.039062 1186.761719 1099.960938 1188.328125 C 1099.886719 1189.898438 1099.769531 1191.464844 1099.617188 1193.027344 C 1099.460938 1194.589844 1099.269531 1196.148438 1099.039062 1197.703125 C 1098.808594 1199.253906 1098.539062 1200.800781 1098.234375 1202.34375 C 1097.925781 1203.882812 1097.582031 1205.414062 1097.203125 1206.9375 C 1096.820312 1208.460938 1096.402344 1209.972656 1095.945312 1211.476562 C 1095.488281 1212.980469 1094.996094 1214.472656 1094.46875 1215.949219 C 1093.9375 1217.429688 1093.375 1218.894531 1092.773438 1220.34375 C 1092.171875 1221.796875 1091.535156 1223.230469 1090.863281 1224.652344 C 1090.191406 1226.070312 1089.488281 1227.472656 1088.746094 1228.859375 C 1088.007812 1230.242188 1087.234375 1231.609375 1086.425781 1232.957031 C 1085.617188 1234.304688 1084.777344 1235.628906 1083.90625 1236.933594 C 1083.03125 1238.242188 1082.128906 1239.523438 1081.191406 1240.785156 C 1080.257812 1242.046875 1079.292969 1243.285156 1078.296875 1244.5 C 1077.296875 1245.714844 1076.273438 1246.902344 1075.21875 1248.066406 C 1074.164062 1249.230469 1073.082031 1250.367188 1071.972656 1251.476562 C 1070.859375 1252.585938 1069.722656 1253.671875 1068.558594 1254.726562 C 1067.394531 1255.78125 1066.207031 1256.804688 1064.992188 1257.800781 C 1063.777344 1258.796875 1062.542969 1259.765625 1061.28125 1260.699219 C 1060.019531 1261.636719 1058.734375 1262.539062 1057.429688 1263.410156 C 1056.121094 1264.285156 1054.796875 1265.125 1053.449219 1265.929688 C 1052.101562 1266.738281 1050.734375 1267.511719 1049.351562 1268.253906 C 1047.964844 1268.992188 1046.5625 1269.699219 1045.144531 1270.371094 C 1043.722656 1271.042969 1042.289062 1271.679688 1040.835938 1272.28125 C 1039.386719 1272.878906 1037.921875 1273.445312 1036.445312 1273.976562 C 1034.964844 1274.503906 1033.472656 1274.996094 1031.972656 1275.453125 C 1030.46875 1275.90625 1028.953125 1276.328125 1027.429688 1276.707031 C 1025.90625 1277.089844 1024.375 1277.433594 1022.835938 1277.742188 C 1021.296875 1278.046875 1019.75 1278.316406 1018.195312 1278.546875 C 1016.640625 1278.777344 1015.082031 1278.96875 1013.519531 1279.121094 C 1011.957031 1279.277344 1010.390625 1279.390625 1008.824219 1279.46875 C 1007.253906 1279.546875 1005.683594 1279.585938 1004.113281 1279.585938 L 172.425781 1279.585938 C 170.855469 1279.585938 169.285156 1279.546875 167.71875 1279.46875 C 166.148438 1279.390625 164.582031 1279.277344 163.019531 1279.121094 C 161.457031 1278.96875 159.898438 1278.777344 158.34375 1278.546875 C 156.792969 1278.316406 155.246094 1278.046875 153.703125 1277.742188 C 152.164062 1277.433594 150.632812 1277.089844 149.109375 1276.707031 C 147.585938 1276.328125 146.070312 1275.90625 144.570312 1275.453125 C 143.066406 1274.996094 141.574219 1274.503906 140.097656 1273.976562 C 138.617188 1273.445312 137.152344 1272.878906 135.703125 1272.28125 C 134.25 1271.679688 132.816406 1271.042969 131.394531 1270.371094 C 129.976562 1269.699219 128.574219 1268.992188 127.1875 1268.253906 C 125.804688 1267.511719 124.4375 1266.738281 123.089844 1265.929688 C 121.742188 1265.125 120.417969 1264.285156 119.113281 1263.410156 C 117.804688 1262.539062 116.523438 1261.636719 115.261719 1260.699219 C 114 1259.765625 112.761719 1258.796875 111.546875 1257.800781 C 110.332031 1256.804688 109.144531 1255.78125 107.980469 1254.726562 C 106.816406 1253.671875 105.679688 1252.585938 104.570312 1251.476562 C 103.457031 1250.367188 102.375 1249.230469 101.320312 1248.066406 C 100.265625 1246.902344 99.242188 1245.714844 98.246094 1244.5 C 97.25 1243.285156 96.28125 1242.046875 95.347656 1240.785156 C 94.410156 1239.523438 93.507812 1238.242188 92.636719 1236.933594 C 91.761719 1235.628906 90.921875 1234.304688 90.113281 1232.957031 C 89.308594 1231.609375 88.535156 1230.242188 87.792969 1228.859375 C 87.054688 1227.472656 86.347656 1226.070312 85.675781 1224.652344 C 85.003906 1223.230469 84.367188 1221.796875 83.765625 1220.34375 C 83.164062 1218.894531 82.601562 1217.429688 82.070312 1215.949219 C 81.542969 1214.472656 81.050781 1212.980469 80.59375 1211.476562 C 80.136719 1209.972656 79.71875 1208.460938 79.339844 1206.9375 C 78.957031 1205.414062 78.613281 1203.882812 78.304688 1202.34375 C 78 1200.800781 77.730469 1199.253906 77.5 1197.703125 C 77.269531 1196.148438 77.078125 1194.589844 76.925781 1193.027344 C 76.769531 1191.464844 76.65625 1189.898438 76.578125 1188.328125 C 76.5 1186.761719 76.460938 1185.191406 76.460938 1183.621094 L 76.460938 160.003906 C 76.460938 158.433594 76.5 156.863281 76.578125 155.296875 C 76.65625 153.726562 76.769531 152.160156 76.925781 150.597656 C 77.078125 149.035156 77.269531 147.476562 77.5 145.921875 C 77.730469 144.371094 78 142.824219 78.304688 141.28125 C 78.613281 139.742188 78.957031 138.210938 79.339844 136.6875 C 79.71875 135.164062 80.136719 133.652344 80.59375 132.148438 C 81.050781 130.644531 81.542969 129.152344 82.070312 127.675781 C 82.601562 126.195312 83.164062 124.730469 83.765625 123.28125 C 84.367188 121.828125 85.003906 120.394531 85.675781 118.976562 C 86.347656 117.554688 87.054688 116.152344 87.792969 114.765625 C 88.535156 113.382812 89.308594 112.015625 90.113281 110.667969 C 90.921875 109.320312 91.761719 107.996094 92.636719 106.691406 C 93.507812 105.382812 94.410156 104.101562 95.347656 102.839844 C 96.28125 101.578125 97.25 100.339844 98.246094 99.125 C 99.242188 97.910156 100.265625 96.722656 101.320312 95.558594 C 102.375 94.394531 103.457031 93.257812 104.570312 92.148438 C 105.679688 91.039062 106.816406 89.953125 107.980469 88.898438 C 109.144531 87.84375 110.332031 86.820312 111.546875 85.824219 C 112.761719 84.828125 114 83.859375 115.261719 82.925781 C 116.523438 81.988281 117.804688 81.085938 119.113281 80.214844 C 120.417969 79.339844 121.742188 78.5 123.089844 77.695312 C 124.4375 76.886719 125.804688 76.113281 127.1875 75.371094 C 128.574219 74.632812 129.976562 73.925781 131.394531 73.253906 C 132.816406 72.582031 134.25 71.945312 135.703125 71.34375 C 137.152344 70.746094 138.617188 70.179688 140.097656 69.648438 C 141.574219 69.121094 143.066406 68.628906 144.570312 68.171875 C 146.070312 67.71875 147.585938 67.296875 149.109375 66.917969 C 150.632812 66.535156 152.164062 66.191406 153.703125 65.882812 C 155.246094 65.578125 156.792969 65.308594 158.34375 65.078125 C 159.898438 64.847656 161.457031 64.65625 163.019531 64.503906 C 164.582031 64.347656 166.148438 64.234375 167.71875 64.15625 C 169.285156 64.078125 170.855469 64.039062 172.425781 64.039062 L 1004.113281 64.039062 C 1005.683594 64.039062 1007.253906 64.078125 1008.824219 64.15625 C 1010.390625 64.234375 1011.957031 64.347656 1013.519531 64.503906 C 1015.082031 64.65625 1016.640625 64.847656 1018.195312 65.078125 C 1019.75 65.308594 1021.296875 65.578125 1022.835938 65.882812 C 1024.375 66.191406 1025.90625 66.535156 1027.429688 66.917969 C 1028.953125 67.296875 1030.46875 67.71875 1031.972656 68.171875 C 1033.472656 68.628906 1034.964844 69.121094 1036.445312 69.648438 C 1037.921875 70.179688 1039.386719 70.746094 1040.835938 71.34375 C 1042.289062 71.945312 1043.722656 72.582031 1045.144531 73.253906 C 1046.5625 73.925781 1047.964844 74.632812 1049.351562 75.371094 C 1050.734375 76.113281 1052.101562 76.886719 1053.449219 77.695312 C 1054.796875 78.5 1056.121094 79.339844 1057.429688 80.214844 C 1058.734375 81.085938 1060.019531 81.988281 1061.28125 82.925781 C 1062.542969 83.859375 1063.777344 84.828125 1064.992188 85.824219 C 1066.207031 86.820312 1067.394531 87.84375 1068.558594 88.898438 C 1069.722656 89.953125 1070.859375 91.039062 1071.972656 92.148438 C 1073.082031 93.257812 1074.164062 94.394531 1075.21875 95.558594 C 1076.273438 96.722656 1077.296875 97.910156 1078.296875 99.125 C 1079.292969 100.339844 1080.257812 101.578125 1081.191406 102.839844 C 1082.128906 104.101562 1083.03125 105.382812 1083.90625 106.691406 C 1084.777344 107.996094 1085.617188 109.320312 1086.425781 110.667969 C 1087.234375 112.015625 1088.007812 113.382812 1088.746094 114.765625 C 1089.488281 116.152344 1090.191406 117.554688 1090.863281 118.976562 C 1091.535156 120.394531 1092.171875 121.828125 1092.773438 123.28125 C 1093.375 124.730469 1093.9375 126.195312 1094.46875 127.675781 C 1094.996094 129.152344 1095.488281 130.644531 1095.945312 132.148438 C 1096.402344 133.652344 1096.820312 135.164062 1097.203125 136.6875 C 1097.582031 138.210938 1097.925781 139.742188 1098.234375 141.28125 C 1098.539062 142.824219 1098.808594 144.371094 1099.039062 145.921875 C 1099.269531 147.476562 1099.460938 149.035156 1099.617188 150.597656 C 1099.769531 152.160156 1099.886719 153.726562 1099.960938 155.296875 C 1100.039062 156.863281 1100.078125 158.433594 1100.078125 160.003906 L 1100.078125 319.945312 C 1121.816406 321.492188 1143.140625 325.332031 1164.054688 331.460938 L 1164.054688 160.003906 C 1164.054688 157.386719 1163.988281 154.769531 1163.863281 152.15625 C 1163.734375 149.542969 1163.539062 146.933594 1163.285156 144.328125 C 1163.027344 141.722656 1162.707031 139.125 1162.324219 136.535156 C 1161.9375 133.949219 1161.492188 131.367188 1160.980469 128.800781 C 1160.46875 126.234375 1159.898438 123.679688 1159.261719 121.140625 C 1158.625 118.601562 1157.925781 116.082031 1157.167969 113.578125 C 1156.40625 111.070312 1155.585938 108.585938 1154.703125 106.121094 C 1153.824219 103.65625 1152.882812 101.214844 1151.878906 98.796875 C 1150.878906 96.378906 1149.816406 93.988281 1148.699219 91.621094 C 1147.578125 89.253906 1146.402344 86.917969 1145.167969 84.609375 C 1143.933594 82.300781 1142.644531 80.023438 1141.300781 77.777344 C 1139.953125 75.535156 1138.554688 73.324219 1137.097656 71.148438 C 1135.644531 68.96875 1134.136719 66.832031 1132.578125 64.726562 C 1131.019531 62.625 1129.410156 60.5625 1127.75 58.539062 C 1126.089844 56.515625 1124.378906 54.535156 1122.621094 52.59375 C 1120.863281 50.65625 1119.058594 48.761719 1117.207031 46.910156 C 1115.359375 45.058594 1113.460938 43.253906 1111.523438 41.496094 C 1109.582031 39.738281 1107.601562 38.03125 1105.578125 36.371094 C 1103.554688 34.707031 1101.492188 33.097656 1099.390625 31.539062 C 1097.289062 29.980469 1095.148438 28.472656 1092.972656 27.019531 C 1090.796875 25.566406 1088.585938 24.164062 1086.339844 22.820312 C 1084.09375 21.472656 1081.816406 20.183594 1079.507812 18.949219 C 1077.199219 17.714844 1074.863281 16.539062 1072.496094 15.421875 C 1070.132812 14.300781 1067.738281 13.242188 1065.320312 12.238281 C 1062.902344 11.238281 1060.460938 10.296875 1057.996094 9.414062 C 1055.53125 8.53125 1053.046875 7.710938 1050.542969 6.953125 C 1048.039062 6.191406 1045.515625 5.492188 1042.976562 4.859375 C 1040.4375 4.222656 1037.882812 3.648438 1035.316406 3.136719 C 1032.75 2.628906 1030.171875 2.179688 1027.582031 1.796875 C 1024.992188 1.410156 1022.394531 1.089844 1019.789062 0.835938 C 1017.1875 0.578125 1014.578125 0.386719 1011.960938 0.257812 C 1009.347656 0.128906 1006.730469 0.0664062 1004.113281 0.0664062 L 172.425781 0.0664062 C 169.808594 0.0664062 167.191406 0.128906 164.578125 0.257812 C 161.964844 0.386719 159.355469 0.578125 156.75 0.835938 C 154.144531 1.089844 151.546875 1.410156 148.957031 1.796875 C 146.367188 2.179688 143.789062 2.628906 141.222656 3.136719 C 138.65625 3.648438 136.101562 4.222656 133.5625 4.859375 C 131.023438 5.492188 128.503906 6.191406 126 6.953125 C 123.492188 7.710938 121.007812 8.53125 118.542969 9.414062 C 116.078125 10.296875 113.636719 11.238281 111.21875 12.238281 C 108.800781 13.242188 106.410156 14.300781 104.042969 15.421875 C 101.675781 16.539062 99.339844 17.714844 97.03125 18.949219 C 94.722656 20.183594 92.445312 21.472656 90.199219 22.820312 C 87.957031 24.164062 85.746094 25.566406 83.566406 27.019531 C 81.390625 28.472656 79.253906 29.980469 77.148438 31.539062 C 75.046875 33.097656 72.984375 34.707031 70.960938 36.371094 C 68.9375 38.03125 66.957031 39.738281 65.015625 41.496094 C 63.078125 43.253906 61.183594 45.058594 59.332031 46.910156 C 57.480469 48.761719 55.675781 50.65625 53.917969 52.59375 C 52.160156 54.535156 50.453125 56.515625 48.789062 58.539062 C 47.128906 60.5625 45.519531 62.625 43.960938 64.726562 C 42.402344 66.832031 40.894531 68.96875 39.441406 71.148438 C 37.988281 73.324219 36.585938 75.535156 35.242188 77.777344 C 33.894531 80.023438 32.605469 82.300781 31.371094 84.609375 C 30.136719 86.917969 28.960938 89.253906 27.84375 91.621094 C 26.722656 93.988281 25.664062 96.378906 24.660156 98.796875 C 23.660156 101.214844 22.71875 103.65625 21.835938 106.121094 C 20.953125 108.585938 20.132812 111.070312 19.375 113.578125 C 18.613281 116.082031 17.914062 118.601562 17.28125 121.140625 C 16.644531 123.679688 16.070312 126.234375 15.558594 128.800781 C 15.046875 131.367188 14.601562 133.949219 14.21875 136.535156 C 13.832031 139.125 13.511719 141.722656 13.257812 144.328125 C 13 146.933594 12.808594 149.542969 12.679688 152.15625 C 12.550781 154.769531 12.484375 157.386719 12.484375 160.003906 L 12.484375 1183.621094 C 12.484375 1186.238281 12.550781 1188.855469 12.679688 1191.46875 C 12.808594 1194.082031 13 1196.691406 13.257812 1199.296875 C 13.511719 1201.902344 13.832031 1204.5 14.21875 1207.089844 C 14.601562 1209.679688 15.046875 1212.257812 15.558594 1214.824219 C 16.070312 1217.390625 16.644531 1219.945312 17.28125 1222.484375 C 17.914062 1225.023438 18.613281 1227.542969 19.375 1230.046875 C 20.132812 1232.554688 20.953125 1235.039062 21.835938 1237.503906 C 22.71875 1239.96875 23.660156 1242.410156 24.660156 1244.828125 C 25.664062 1247.246094 26.722656 1249.636719 27.84375 1252.003906 C 28.960938 1254.371094 30.136719 1256.707031 31.371094 1259.015625 C 32.605469 1261.324219 33.894531 1263.601562 35.242188 1265.847656 C 36.585938 1268.089844 37.988281 1270.300781 39.441406 1272.476562 C 40.894531 1274.65625 42.402344 1276.792969 43.960938 1278.898438 C 45.519531 1281 47.128906 1283.0625 48.789062 1285.085938 C 50.453125 1287.109375 52.160156 1289.089844 53.917969 1291.03125 C 55.675781 1292.96875 57.480469 1294.863281 59.332031 1296.714844 C 61.183594 1298.566406 63.078125 1300.371094 65.015625 1302.128906 C 66.957031 1303.886719 68.9375 1305.59375 70.960938 1307.253906 C 72.984375 1308.917969 75.046875 1310.527344 77.148438 1312.085938 C 79.253906 1313.644531 81.390625 1315.152344 83.566406 1316.605469 C 85.746094 1318.058594 87.957031 1319.460938 90.199219 1320.804688 C 92.445312 1322.152344 94.722656 1323.441406 97.03125 1324.675781 C 99.339844 1325.910156 101.675781 1327.085938 104.042969 1328.203125 C 106.410156 1329.324219 108.800781 1330.382812 111.21875 1331.386719 C 113.636719 1332.386719 116.078125 1333.328125 118.542969 1334.210938 C 121.007812 1335.09375 123.492188 1335.914062 125.996094 1336.671875 C 128.503906 1337.433594 131.023438 1338.132812 133.5625 1338.765625 C 136.101562 1339.402344 138.65625 1339.976562 141.222656 1340.488281 C 143.789062 1340.996094 146.367188 1341.445312 148.957031 1341.828125 C 151.546875 1342.214844 154.144531 1342.535156 156.75 1342.789062 C 159.355469 1343.046875 161.964844 1343.238281 164.578125 1343.367188 C 167.191406 1343.496094 169.808594 1343.5625 172.425781 1343.5625 L 1004.113281 1343.5625 C 1006.730469 1343.5625 1009.347656 1343.496094 1011.960938 1343.367188 C 1014.578125 1343.238281 1017.1875 1343.046875 1019.789062 1342.789062 C 1022.394531 1342.535156 1024.992188 1342.214844 1027.582031 1341.828125 C 1030.171875 1341.445312 1032.75 1340.996094 1035.316406 1340.488281 C 1037.882812 1339.976562 1040.4375 1339.402344 1042.976562 1338.765625 C 1045.515625 1338.132812 1048.039062 1337.433594 1050.542969 1336.671875 C 1053.046875 1335.914062 1055.53125 1335.09375 1057.996094 1334.210938 C 1060.460938 1333.328125 1062.902344 1332.386719 1065.320312 1331.386719 C 1067.738281 1330.382812 1070.132812 1329.324219 1072.496094 1328.203125 C 1074.863281 1327.085938 1077.199219 1325.910156 1079.507812 1324.675781 C 1081.816406 1323.441406 1084.09375 1322.152344 1086.339844 1320.804688 C 1088.585938 1319.460938 1090.796875 1318.058594 1092.972656 1316.605469 C 1095.148438 1315.152344 1097.289062 1313.644531 1099.390625 1312.085938 C 1101.492188 1310.527344 1103.554688 1308.917969 1105.578125 1307.253906 C 1107.601562 1305.59375 1109.582031 1303.886719 1111.523438 1302.128906 C 1113.460938 1300.371094 1115.359375 1298.566406 1117.207031 1296.714844 C 1119.058594 1294.863281 1120.863281 1292.96875 1122.621094 1291.03125 C 1124.378906 1289.089844 1126.089844 1287.109375 1127.75 1285.085938 C 1129.410156 1283.0625 1131.019531 1281 1132.578125 1278.898438 C 1134.136719 1276.792969 1135.644531 1274.65625 1137.097656 1272.476562 C 1138.554688 1270.300781 1139.953125 1268.089844 1141.300781 1265.847656 C 1142.644531 1263.601562 1143.933594 1261.324219 1145.167969 1259.015625 C 1146.402344 1256.707031 1147.578125 1254.371094 1148.699219 1252.003906 C 1149.816406 1249.636719 1150.878906 1247.246094 1151.878906 1244.828125 C 1152.882812 1242.410156 1153.824219 1239.96875 1154.703125 1237.503906 C 1155.585938 1235.039062 1156.40625 1232.554688 1157.167969 1230.046875 C 1157.925781 1227.542969 1158.625 1225.023438 1159.261719 1222.484375 C 1159.898438 1219.945312 1160.46875 1217.390625 1160.980469 1214.824219 C 1161.492188 1212.257812 1161.9375 1209.679688 1162.324219 1207.089844 C 1162.707031 1204.5 1163.027344 1201.902344 1163.285156 1199.296875 C 1163.539062 1196.691406 1163.734375 1194.082031 1163.863281 1191.46875 C 1163.988281 1188.855469 1164.054688 1186.238281 1164.054688 1183.621094 L 1164.054688 1010.246094 C 1143.210938 1017.027344 1121.886719 1021.503906 1100.078125 1023.679688 Z M 908.148438 287.957031 C 908.148438 286.910156 908.097656 285.863281 907.996094 284.820312 C 907.894531 283.777344 907.738281 282.742188 907.535156 281.714844 C 907.332031 280.6875 907.078125 279.671875 906.773438 278.671875 C 906.46875 277.667969 906.117188 276.683594 905.714844 275.714844 C 905.3125 274.746094 904.867188 273.800781 904.371094 272.878906 C 903.878906 271.953125 903.339844 271.054688 902.757812 270.183594 C 902.175781 269.3125 901.554688 268.472656 900.890625 267.664062 C 900.222656 266.855469 899.523438 266.078125 898.78125 265.335938 C 898.039062 264.597656 897.265625 263.894531 896.457031 263.230469 C 895.644531 262.566406 894.804688 261.941406 893.933594 261.359375 C 893.0625 260.777344 892.164062 260.238281 891.242188 259.746094 C 890.316406 259.25 889.371094 258.804688 888.402344 258.402344 C 887.433594 258.003906 886.449219 257.648438 885.449219 257.347656 C 884.445312 257.042969 883.429688 256.789062 882.402344 256.582031 C 881.375 256.378906 880.339844 256.226562 879.296875 256.121094 C 878.253906 256.019531 877.210938 255.96875 876.164062 255.96875 L 300.378906 255.96875 C 299.332031 255.96875 298.285156 256.019531 297.242188 256.121094 C 296.199219 256.226562 295.164062 256.378906 294.136719 256.582031 C 293.109375 256.789062 292.09375 257.042969 291.09375 257.347656 C 290.089844 257.648438 289.105469 258.003906 288.136719 258.402344 C 287.167969 258.804688 286.222656 259.25 285.300781 259.746094 C 284.375 260.238281 283.476562 260.777344 282.605469 261.359375 C 281.734375 261.941406 280.894531 262.566406 280.085938 263.230469 C 279.273438 263.894531 278.5 264.597656 277.757812 265.335938 C 277.019531 266.078125 276.316406 266.855469 275.652344 267.664062 C 274.988281 268.472656 274.363281 269.3125 273.78125 270.183594 C 273.199219 271.054688 272.660156 271.953125 272.167969 272.878906 C 271.671875 273.800781 271.226562 274.746094 270.824219 275.714844 C 270.425781 276.683594 270.070312 277.667969 269.765625 278.671875 C 269.464844 279.671875 269.210938 280.6875 269.003906 281.714844 C 268.800781 282.742188 268.648438 283.777344 268.542969 284.820312 C 268.441406 285.863281 268.390625 286.910156 268.390625 287.957031 C 268.390625 289.003906 268.441406 290.050781 268.542969 291.09375 C 268.648438 292.132812 268.800781 293.167969 269.003906 294.195312 C 269.210938 295.226562 269.464844 296.238281 269.765625 297.242188 C 270.070312 298.246094 270.425781 299.230469 270.824219 300.199219 C 271.226562 301.164062 271.671875 302.113281 272.167969 303.035156 C 272.660156 303.960938 273.199219 304.855469 273.78125 305.726562 C 274.363281 306.597656 274.988281 307.441406 275.652344 308.25 C 276.316406 309.058594 277.019531 309.835938 277.757812 310.574219 C 278.5 311.316406 279.273438 312.019531 280.085938 312.683594 C 280.894531 313.347656 281.734375 313.972656 282.605469 314.554688 C 283.476562 315.136719 284.375 315.671875 285.300781 316.167969 C 286.222656 316.660156 287.167969 317.109375 288.136719 317.507812 C 289.105469 317.910156 290.089844 318.261719 291.09375 318.566406 C 292.09375 318.871094 293.109375 319.125 294.136719 319.328125 C 295.164062 319.535156 296.199219 319.6875 297.242188 319.789062 C 298.285156 319.894531 299.332031 319.945312 300.378906 319.945312 L 876.164062 319.945312 C 877.210938 319.945312 878.253906 319.894531 879.296875 319.789062 C 880.339844 319.6875 881.375 319.535156 882.402344 319.328125 C 883.429688 319.125 884.445312 318.871094 885.449219 318.566406 C 886.449219 318.261719 887.433594 317.910156 888.402344 317.507812 C 889.371094 317.109375 890.316406 316.660156 891.242188 316.167969 C 892.164062 315.671875 893.0625 315.136719 893.933594 314.554688 C 894.804688 313.972656 895.644531 313.347656 896.457031 312.683594 C 897.265625 312.019531 898.039062 311.316406 898.78125 310.574219 C 899.523438 309.835938 900.222656 309.058594 900.890625 308.25 C 901.554688 307.441406 902.175781 306.597656 902.757812 305.726562 C 903.339844 304.855469 903.878906 303.960938 904.371094 303.035156 C 904.867188 302.113281 905.3125 301.164062 905.714844 300.199219 C 906.117188 299.230469 906.46875 298.246094 906.773438 297.242188 C 907.078125 296.238281 907.332031 295.226562 907.535156 294.195312 C 907.738281 293.167969 907.894531 292.132812 907.996094 291.09375 C 908.097656 290.050781 908.148438 289.003906 908.148438 287.957031 Z M 300.378906 575.847656 L 556.28125 575.847656 C 557.328125 575.847656 558.375 575.796875 559.417969 575.695312 C 560.460938 575.59375 561.496094 575.4375 562.523438 575.234375 C 563.550781 575.03125 564.566406 574.773438 565.566406 574.472656 C 566.570312 574.167969 567.554688 573.816406 568.523438 573.414062 C 569.492188 573.011719 570.4375 572.566406 571.359375 572.070312 C 572.285156 571.578125 573.183594 571.039062 574.054688 570.457031 C 574.925781 569.875 575.765625 569.253906 576.574219 568.585938 C 577.386719 567.921875 578.160156 567.21875 578.902344 566.480469 C 579.640625 565.738281 580.34375 564.964844 581.007812 564.152344 C 581.671875 563.34375 582.296875 562.503906 582.878906 561.632812 C 583.460938 560.761719 584 559.863281 584.492188 558.941406 C 584.988281 558.015625 585.433594 557.070312 585.835938 556.101562 C 586.234375 555.132812 586.589844 554.148438 586.894531 553.144531 C 587.195312 552.144531 587.449219 551.128906 587.65625 550.101562 C 587.859375 549.074219 588.011719 548.039062 588.117188 546.996094 C 588.21875 545.953125 588.269531 544.910156 588.269531 543.859375 C 588.269531 542.8125 588.21875 541.769531 588.117188 540.726562 C 588.011719 539.683594 587.859375 538.648438 587.65625 537.621094 C 587.449219 536.59375 587.195312 535.578125 586.894531 534.574219 C 586.589844 533.574219 586.234375 532.585938 585.835938 531.621094 C 585.433594 530.652344 584.988281 529.707031 584.492188 528.78125 C 584 527.859375 583.460938 526.960938 582.878906 526.089844 C 582.296875 525.21875 581.675781 524.378906 581.007812 523.566406 C 580.34375 522.757812 579.640625 521.980469 578.902344 521.242188 C 578.160156 520.5 577.386719 519.796875 576.574219 519.132812 C 575.765625 518.46875 574.925781 517.84375 574.054688 517.261719 C 573.183594 516.679688 572.285156 516.144531 571.359375 515.648438 C 570.4375 515.15625 569.492188 514.707031 568.523438 514.308594 C 567.554688 513.90625 566.570312 513.554688 565.566406 513.25 C 564.566406 512.945312 563.550781 512.691406 562.523438 512.488281 C 561.496094 512.28125 560.460938 512.128906 559.417969 512.027344 C 558.375 511.925781 557.328125 511.871094 556.28125 511.871094 L 300.378906 511.871094 C 299.332031 511.871094 298.285156 511.925781 297.242188 512.027344 C 296.199219 512.128906 295.164062 512.28125 294.136719 512.488281 C 293.109375 512.691406 292.09375 512.945312 291.09375 513.25 C 290.089844 513.554688 289.105469 513.90625 288.136719 514.308594 C 287.167969 514.707031 286.222656 515.15625 285.300781 515.648438 C 284.375 516.144531 283.476562 516.679688 282.605469 517.261719 C 281.734375 517.84375 280.894531 518.46875 280.085938 519.132812 C 279.273438 519.796875 278.5 520.5 277.757812 521.242188 C 277.019531 521.980469 276.316406 522.757812 275.652344 523.566406 C 274.988281 524.378906 274.363281 525.21875 273.78125 526.089844 C 273.199219 526.960938 272.660156 527.859375 272.167969 528.78125 C 271.671875 529.707031 271.226562 530.652344 270.824219 531.621094 C 270.425781 532.585938 270.070312 533.574219 269.765625 534.574219 C 269.464844 535.578125 269.210938 536.59375 269.003906 537.621094 C 268.800781 538.648438 268.648438 539.683594 268.542969 540.726562 C 268.441406 541.769531 268.390625 542.8125 268.390625 543.859375 C 268.390625 544.910156 268.441406 545.953125 268.542969 546.996094 C 268.648438 548.039062 268.800781 549.074219 269.003906 550.101562 C 269.210938 551.128906 269.464844 552.144531 269.765625 553.144531 C 270.070312 554.148438 270.425781 555.132812 270.824219 556.101562 C 271.226562 557.070312 271.671875 558.015625 272.167969 558.941406 C 272.660156 559.863281 273.199219 560.761719 273.78125 561.632812 C 274.363281 562.503906 274.988281 563.34375 275.652344 564.152344 C 276.316406 564.964844 277.019531 565.738281 277.757812 566.480469 C 278.5 567.21875 279.273438 567.921875 280.085938 568.585938 C 280.894531 569.253906 281.734375 569.875 282.605469 570.457031 C 283.476562 571.039062 284.375 571.578125 285.300781 572.070312 C 286.222656 572.566406 287.167969 573.011719 288.136719 573.414062 C 289.105469 573.816406 290.089844 574.167969 291.09375 574.472656 C 292.09375 574.773438 293.109375 575.03125 294.136719 575.234375 C 295.164062 575.4375 296.199219 575.59375 297.242188 575.695312 C 298.285156 575.796875 299.332031 575.847656 300.378906 575.847656 Z M 620.257812 767.777344 L 300.378906 767.777344 C 299.332031 767.777344 298.285156 767.828125 297.242188 767.929688 C 296.199219 768.035156 295.164062 768.1875 294.136719 768.390625 C 293.109375 768.59375 292.09375 768.851562 291.09375 769.152344 C 290.089844 769.457031 289.105469 769.8125 288.136719 770.210938 C 287.167969 770.613281 286.222656 771.058594 285.300781 771.554688 C 284.375 772.046875 283.476562 772.585938 282.605469 773.167969 C 281.734375 773.75 280.894531 774.371094 280.085938 775.039062 C 279.273438 775.703125 278.5 776.40625 277.757812 777.144531 C 277.019531 777.886719 276.316406 778.660156 275.652344 779.472656 C 274.988281 780.28125 274.363281 781.121094 273.78125 781.992188 C 273.199219 782.863281 272.660156 783.761719 272.167969 784.683594 C 271.671875 785.609375 271.226562 786.554688 270.824219 787.523438 C 270.425781 788.492188 270.070312 789.476562 269.765625 790.480469 C 269.464844 791.480469 269.210938 792.496094 269.003906 793.523438 C 268.800781 794.550781 268.648438 795.585938 268.542969 796.628906 C 268.441406 797.671875 268.390625 798.71875 268.390625 799.765625 C 268.390625 800.8125 268.441406 801.855469 268.542969 802.898438 C 268.648438 803.941406 268.800781 804.976562 269.003906 806.003906 C 269.210938 807.03125 269.464844 808.046875 269.765625 809.050781 C 270.070312 810.050781 270.425781 811.039062 270.824219 812.003906 C 271.226562 812.972656 271.671875 813.917969 272.167969 814.84375 C 272.660156 815.765625 273.199219 816.664062 273.78125 817.535156 C 274.363281 818.40625 274.988281 819.246094 275.652344 820.058594 C 276.316406 820.867188 277.019531 821.644531 277.757812 822.382812 C 278.5 823.125 279.273438 823.828125 280.085938 824.492188 C 280.894531 825.15625 281.734375 825.78125 282.605469 826.363281 C 283.476562 826.945312 284.375 827.480469 285.300781 827.976562 C 286.222656 828.46875 287.167969 828.917969 288.136719 829.316406 C 289.105469 829.71875 290.089844 830.070312 291.09375 830.375 C 292.09375 830.679688 293.109375 830.933594 294.136719 831.136719 C 295.164062 831.34375 296.199219 831.496094 297.242188 831.597656 C 298.285156 831.703125 299.332031 831.753906 300.378906 831.753906 L 620.257812 831.753906 C 621.304688 831.753906 622.351562 831.703125 623.394531 831.597656 C 624.4375 831.496094 625.472656 831.34375 626.5 831.136719 C 627.527344 830.933594 628.542969 830.679688 629.542969 830.375 C 630.546875 830.070312 631.53125 829.71875 632.5 829.316406 C 633.46875 828.917969 634.414062 828.46875 635.335938 827.976562 C 636.261719 827.480469 637.160156 826.945312 638.03125 826.363281 C 638.902344 825.78125 639.742188 825.15625 640.550781 824.492188 C 641.359375 823.828125 642.136719 823.125 642.878906 822.382812 C 643.617188 821.644531 644.320312 820.867188 644.984375 820.058594 C 645.648438 819.246094 646.273438 818.40625 646.855469 817.535156 C 647.4375 816.664062 647.976562 815.765625 648.46875 814.84375 C 648.960938 813.917969 649.410156 812.972656 649.8125 812.003906 C 650.210938 811.039062 650.566406 810.050781 650.867188 809.050781 C 651.171875 808.046875 651.425781 807.03125 651.632812 806.003906 C 651.835938 804.976562 651.988281 803.941406 652.09375 802.898438 C 652.195312 801.855469 652.246094 800.8125 652.246094 799.765625 C 652.246094 798.71875 652.195312 797.671875 652.09375 796.628906 C 651.988281 795.585938 651.835938 794.550781 651.632812 793.523438 C 651.425781 792.496094 651.171875 791.480469 650.867188 790.480469 C 650.566406 789.476562 650.210938 788.492188 649.8125 787.523438 C 649.410156 786.554688 648.960938 785.609375 648.46875 784.683594 C 647.976562 783.761719 647.4375 782.863281 646.855469 781.992188 C 646.273438 781.121094 645.648438 780.28125 644.984375 779.472656 C 644.320312 778.660156 643.617188 777.886719 642.878906 777.144531 C 642.136719 776.40625 641.359375 775.703125 640.550781 775.039062 C 639.742188 774.371094 638.902344 773.75 638.03125 773.167969 C 637.160156 772.585938 636.261719 772.046875 635.335938 771.554688 C 634.414062 771.058594 633.46875 770.613281 632.5 770.210938 C 631.53125 769.8125 630.546875 769.457031 629.542969 769.152344 C 628.542969 768.851562 627.527344 768.59375 626.5 768.390625 C 625.472656 768.1875 624.4375 768.035156 623.394531 767.929688 C 622.351562 767.828125 621.304688 767.777344 620.257812 767.777344 Z M 268.390625 1055.667969 C 268.390625 1056.714844 268.441406 1057.761719 268.542969 1058.804688 C 268.648438 1059.847656 268.800781 1060.882812 269.003906 1061.910156 C 269.210938 1062.9375 269.464844 1063.953125 269.765625 1064.953125 C 270.070312 1065.957031 270.425781 1066.941406 270.824219 1067.910156 C 271.226562 1068.878906 271.671875 1069.824219 272.167969 1070.746094 C 272.660156 1071.671875 273.199219 1072.570312 273.78125 1073.441406 C 274.363281 1074.3125 274.988281 1075.152344 275.652344 1075.960938 C 276.316406 1076.769531 277.019531 1077.546875 277.757812 1078.289062 C 278.5 1079.027344 279.273438 1079.730469 280.085938 1080.394531 C 280.894531 1081.058594 281.734375 1081.683594 282.605469 1082.265625 C 283.476562 1082.847656 284.375 1083.386719 285.300781 1083.878906 C 286.222656 1084.375 287.167969 1084.820312 288.136719 1085.222656 C 289.105469 1085.621094 290.089844 1085.976562 291.09375 1086.277344 C 292.09375 1086.582031 293.109375 1086.835938 294.136719 1087.042969 C 295.164062 1087.246094 296.199219 1087.398438 297.242188 1087.503906 C 298.285156 1087.605469 299.332031 1087.65625 300.378906 1087.65625 L 876.164062 1087.65625 C 877.210938 1087.65625 878.253906 1087.605469 879.296875 1087.503906 C 880.339844 1087.398438 881.375 1087.246094 882.402344 1087.042969 C 883.429688 1086.835938 884.445312 1086.582031 885.449219 1086.277344 C 886.449219 1085.976562 887.433594 1085.621094 888.402344 1085.222656 C 889.371094 1084.820312 890.316406 1084.375 891.242188 1083.878906 C 892.164062 1083.386719 893.0625 1082.847656 893.933594 1082.265625 C 894.804688 1081.683594 895.644531 1081.058594 896.457031 1080.394531 C 897.265625 1079.730469 898.039062 1079.027344 898.78125 1078.289062 C 899.523438 1077.546875 900.222656 1076.769531 900.890625 1075.960938 C 901.554688 1075.152344 902.175781 1074.3125 902.757812 1073.441406 C 903.339844 1072.570312 903.878906 1071.671875 904.371094 1070.746094 C 904.867188 1069.824219 905.3125 1068.878906 905.714844 1067.910156 C 906.117188 1066.941406 906.46875 1065.957031 906.773438 1064.953125 C 907.078125 1063.953125 907.332031 1062.9375 907.535156 1061.910156 C 907.738281 1060.882812 907.894531 1059.847656 907.996094 1058.804688 C 908.097656 1057.761719 908.148438 1056.714844 908.148438 1055.667969 C 908.148438 1054.621094 908.097656 1053.574219 907.996094 1052.53125 C 907.894531 1051.492188 907.738281 1050.457031 907.535156 1049.429688 C 907.332031 1048.402344 907.078125 1047.386719 906.773438 1046.382812 C 906.46875 1045.378906 906.117188 1044.394531 905.714844 1043.425781 C 905.3125 1042.460938 904.867188 1041.511719 904.371094 1040.589844 C 903.878906 1039.664062 903.339844 1038.769531 902.757812 1037.898438 C 902.175781 1037.027344 901.554688 1036.183594 900.890625 1035.375 C 900.222656 1034.566406 899.523438 1033.789062 898.78125 1033.050781 C 898.039062 1032.308594 897.265625 1031.605469 896.457031 1030.941406 C 895.644531 1030.277344 894.804688 1029.652344 893.933594 1029.070312 C 893.0625 1028.488281 892.164062 1027.953125 891.242188 1027.457031 C 890.316406 1026.964844 889.371094 1026.515625 888.402344 1026.117188 C 887.433594 1025.714844 886.449219 1025.363281 885.449219 1025.058594 C 884.445312 1024.753906 883.429688 1024.5 882.402344 1024.296875 C 881.375 1024.089844 880.339844 1023.9375 879.296875 1023.835938 C 878.253906 1023.730469 877.210938 1023.679688 876.164062 1023.679688 L 300.378906 1023.679688 C 299.332031 1023.679688 298.285156 1023.730469 297.242188 1023.835938 C 296.199219 1023.9375 295.164062 1024.089844 294.136719 1024.296875 C 293.109375 1024.5 292.09375 1024.753906 291.09375 1025.058594 C 290.089844 1025.363281 289.105469 1025.714844 288.136719 1026.117188 C 287.167969 1026.515625 286.222656 1026.964844 285.300781 1027.457031 C 284.375 1027.953125 283.476562 1028.488281 282.605469 1029.070312 C 281.734375 1029.652344 280.894531 1030.277344 280.085938 1030.941406 C 279.273438 1031.605469 278.5 1032.308594 277.757812 1033.050781 C 277.019531 1033.789062 276.316406 1034.566406 275.652344 1035.375 C 274.988281 1036.183594 274.363281 1037.027344 273.78125 1037.898438 C 273.199219 1038.769531 272.660156 1039.664062 272.167969 1040.589844 C 271.671875 1041.511719 271.226562 1042.460938 270.824219 1043.425781 C 270.425781 1044.394531 270.070312 1045.378906 269.765625 1046.382812 C 269.464844 1047.386719 269.210938 1048.402344 269.003906 1049.429688 C 268.800781 1050.457031 268.648438 1051.492188 268.542969 1052.53125 C 268.441406 1053.574219 268.390625 1054.621094 268.390625 1055.667969 Z M 268.390625 1055.667969 " fill-opacity="1" fill-rule="nonzero"/></g><g fill="#000000" fill-opacity="1"><g transform="translate(700.244851, 614.662486)"><g><path d="M 0.890625 -0.625 C 0.890625 -0.882812 0.945312 -1.082031 1.0625 -1.21875 C 1.1875 -1.351562 1.359375 -1.421875 1.578125 -1.421875 C 1.804688 -1.421875 1.984375 -1.351562 2.109375 -1.21875 C 2.234375 -1.082031 2.296875 -0.882812 2.296875 -0.625 C 2.296875 -0.363281 2.234375 -0.164062 2.109375 -0.03125 C 1.984375 0.101562 1.804688 0.171875 1.578125 0.171875 C 1.378906 0.171875 1.210938 0.109375 1.078125 -0.015625 C 0.953125 -0.140625 0.890625 -0.34375 0.890625 -0.625 Z M 0.890625 -0.625 "/></g></g></g></svg>