<svg xmlns="http://www.w3.org/2000/svg" xmlns:xlink="http://www.w3.org/1999/xlink" width="1740" zoomAndPan="magnify" viewBox="0 0 1305 1304.999944" height="1740" preserveAspectRatio="xMidYMid meet" version="1.0"><defs><g/></defs><path fill="#dbdad7" d="M 1261.453125 1261.453125 L 782.972656 1261.453125 L 782.972656 1117.621094 C 813.472656 1127.390625 845.839844 1122.207031 871.921875 1103.433594 C 898.34375 1084.402344 913.46875 1054.753906 913.46875 1022.214844 C 913.46875 989.675781 898.34375 960.023438 871.921875 940.992188 C 845.839844 922.21875 813.472656 917.035156 782.972656 926.804688 L 782.972656 782.972656 L 956.964844 782.972656 C 963.933594 782.972656 970.472656 779.574219 974.636719 773.964844 C 978.714844 768.273438 979.820312 760.96875 977.609375 754.339844 L 968.519531 726.984375 C 962.65625 709.484375 965.546875 690.960938 976.25 676.011719 C 987.039062 661.058594 1003.777344 652.476562 1022.214844 652.476562 C 1040.648438 652.476562 1057.386719 661.058594 1068.175781 676.011719 C 1078.878906 690.960938 1081.769531 709.484375 1075.90625 726.984375 L 1066.816406 754.339844 C 1064.605469 760.96875 1065.710938 768.273438 1069.789062 773.964844 C 1073.953125 779.574219 1080.496094 782.972656 1087.460938 782.972656 L 1261.453125 782.972656 Z M 260.992188 782.972656 L 404.824219 782.972656 C 395.054688 813.472656 400.238281 845.839844 419.011719 871.921875 C 438.042969 898.34375 467.691406 913.46875 500.230469 913.46875 C 532.769531 913.46875 562.421875 898.34375 581.453125 871.921875 C 600.226562 845.839844 605.410156 813.472656 595.640625 782.972656 L 739.472656 782.972656 L 739.472656 956.964844 C 739.472656 963.933594 742.871094 970.472656 748.480469 974.636719 C 754.171875 978.714844 761.476562 979.820312 768.105469 977.609375 L 795.460938 968.519531 C 812.878906 962.65625 831.484375 965.546875 846.433594 976.25 C 861.386719 987.039062 869.96875 1003.777344 869.96875 1022.214844 C 869.96875 1040.648438 861.386719 1057.386719 846.433594 1068.175781 C 831.484375 1078.878906 812.878906 1081.769531 795.460938 1075.90625 L 768.105469 1066.816406 C 761.476562 1064.605469 754.171875 1065.710938 748.480469 1069.789062 C 742.871094 1073.953125 739.472656 1080.496094 739.472656 1087.460938 L 739.472656 1261.453125 L 260.992188 1261.453125 Z M 871.921875 581.453125 C 898.34375 562.421875 913.46875 532.769531 913.46875 500.230469 C 913.46875 467.691406 898.34375 438.042969 871.921875 419.011719 C 845.839844 400.238281 813.472656 395.140625 782.972656 404.824219 L 782.972656 260.992188 L 1261.453125 260.992188 L 1261.453125 739.472656 L 1117.621094 739.472656 C 1127.390625 708.972656 1122.207031 676.605469 1103.433594 650.523438 C 1084.402344 624.101562 1054.753906 608.976562 1022.214844 608.976562 C 989.675781 608.976562 960.023438 624.101562 940.992188 650.523438 C 922.21875 676.605469 917.035156 708.972656 926.804688 739.472656 L 782.972656 739.472656 L 782.972656 595.640625 C 813.472656 605.324219 845.839844 600.226562 871.921875 581.453125 Z M 1283.203125 217.492188 L 761.222656 217.492188 C 749.242188 217.492188 739.472656 227.261719 739.472656 239.242188 L 739.472656 434.984375 C 739.472656 441.949219 742.871094 448.492188 748.480469 452.65625 C 754.171875 456.734375 761.476562 457.839844 768.105469 455.628906 L 795.460938 446.539062 C 812.878906 440.675781 831.484375 443.566406 846.433594 454.269531 C 861.386719 465.058594 869.96875 481.796875 869.96875 500.230469 C 869.96875 518.667969 861.386719 535.40625 846.433594 546.195312 C 831.484375 556.898438 812.878906 559.703125 795.460938 553.925781 L 768.105469 544.835938 C 761.476562 542.625 754.171875 543.730469 748.480469 547.808594 C 742.871094 551.972656 739.472656 558.511719 739.472656 565.480469 L 739.472656 739.472656 L 565.480469 739.472656 C 558.511719 739.472656 551.972656 742.871094 547.808594 748.480469 C 543.730469 754.171875 542.625 761.476562 544.835938 768.105469 L 553.925781 795.460938 C 559.789062 812.960938 556.898438 831.484375 546.195312 846.433594 C 535.40625 861.386719 518.667969 869.96875 500.230469 869.96875 C 481.796875 869.96875 465.058594 861.386719 454.269531 846.433594 C 443.566406 831.484375 440.675781 812.960938 446.539062 795.460938 L 455.628906 768.105469 C 457.839844 761.476562 456.734375 754.171875 452.65625 748.480469 C 448.492188 742.871094 441.949219 739.472656 434.984375 739.472656 L 239.242188 739.472656 C 227.261719 739.472656 217.492188 749.242188 217.492188 761.222656 L 217.492188 1283.203125 C 217.492188 1295.183594 227.261719 1304.953125 239.242188 1304.953125 L 1283.203125 1304.953125 C 1295.183594 1304.953125 1304.953125 1295.183594 1304.953125 1283.203125 L 1304.953125 239.242188 C 1304.953125 227.261719 1295.183594 217.492188 1283.203125 217.492188 " fill-opacity="1" fill-rule="nonzero"/><path fill="#dbdad7" d="M 43.5 43.5 L 521.980469 43.5 L 521.980469 217.492188 C 521.980469 224.457031 525.378906 231 530.988281 235.164062 C 536.679688 239.242188 543.984375 240.347656 550.613281 238.136719 L 577.96875 229.046875 C 595.386719 223.183594 613.992188 226.074219 628.941406 236.777344 C 643.894531 247.566406 652.476562 264.304688 652.476562 282.738281 C 652.476562 301.175781 643.894531 317.914062 628.941406 328.703125 C 613.992188 339.40625 595.386719 342.296875 577.96875 336.433594 L 550.613281 327.34375 C 543.984375 325.132812 536.679688 326.238281 530.988281 330.316406 C 525.378906 334.480469 521.980469 341.019531 521.980469 347.988281 L 521.980469 521.980469 L 347.988281 521.980469 C 341.019531 521.980469 334.480469 525.378906 330.316406 530.988281 C 326.238281 536.679688 325.132812 543.984375 327.34375 550.613281 L 336.433594 577.96875 C 342.296875 595.46875 339.40625 613.992188 328.703125 628.941406 C 317.914062 643.894531 301.175781 652.476562 282.738281 652.476562 C 264.304688 652.476562 247.566406 643.894531 236.777344 628.941406 C 226.074219 613.992188 223.183594 595.46875 229.046875 577.96875 L 238.136719 550.613281 C 240.347656 543.984375 239.242188 536.679688 235.164062 530.988281 C 231 525.378906 224.457031 521.980469 217.492188 521.980469 L 43.5 521.980469 Z M 21.75 565.480469 L 187.332031 565.480469 C 177.5625 595.980469 182.746094 628.347656 201.519531 654.429688 C 220.550781 680.851562 250.199219 695.976562 282.738281 695.976562 C 315.277344 695.976562 344.929688 680.851562 363.960938 654.429688 C 382.734375 628.347656 387.917969 595.980469 378.148438 565.480469 L 543.730469 565.480469 C 555.710938 565.480469 565.480469 555.710938 565.480469 543.730469 L 565.480469 378.148438 C 595.980469 387.917969 628.347656 382.734375 654.429688 363.960938 C 680.851562 344.929688 695.976562 315.277344 695.976562 282.738281 C 695.976562 250.199219 680.851562 220.550781 654.429688 201.519531 C 628.347656 182.746094 595.980469 177.5625 565.480469 187.332031 L 565.480469 21.75 C 565.480469 9.769531 555.710938 0 543.730469 0 L 21.75 0 C 9.769531 0 0 9.769531 0 21.75 L 0 543.730469 C 0 555.710938 9.769531 565.480469 21.75 565.480469 " fill-opacity="1" fill-rule="nonzero"/><g fill="#000000" fill-opacity="1"><g transform="translate(745.244845, 432.412479)"><g><path d="M 0.890625 -0.625 C 0.890625 -0.882812 0.945312 -1.082031 1.0625 -1.21875 C 1.1875 -1.351562 1.359375 -1.421875 1.578125 -1.421875 C 1.804688 -1.421875 1.984375 -1.351562 2.109375 -1.21875 C 2.234375 -1.082031 2.296875 -0.882812 2.296875 -0.625 C 2.296875 -0.363281 2.234375 -0.164062 2.109375 -0.03125 C 1.984375 0.101562 1.804688 0.171875 1.578125 0.171875 C 1.378906 0.171875 1.210938 0.109375 1.078125 -0.015625 C 0.953125 -0.140625 0.890625 -0.34375 0.890625 -0.625 Z M 0.890625 -0.625 "/></g></g></g></svg>