<svg xmlns="http://www.w3.org/2000/svg" xmlns:xlink="http://www.w3.org/1999/xlink" width="677" zoomAndPan="magnify" viewBox="0 0 507.75 383.249997" height="511" preserveAspectRatio="xMidYMid meet" version="1.0"><defs><g/><clipPath id="18ef55c346"><path d="M 26.507812 367.3125 L 484.734375 367.3125 L 484.734375 382.5 L 26.507812 382.5 Z M 26.507812 367.3125 " clip-rule="nonzero"/></clipPath><clipPath id="478a425050"><path d="M 494.742188 91.308594 L 506.320312 91.308594 L 506.320312 106.847656 L 494.742188 106.847656 Z M 494.742188 91.308594 " clip-rule="nonzero"/></clipPath><clipPath id="753cf66d68"><path d="M 220 0.0546875 L 268 0.0546875 L 268 59 L 220 59 Z M 220 0.0546875 " clip-rule="nonzero"/></clipPath></defs><path fill="#8a9a9f" d="M 122.398438 373.292969 L 114.65625 373.292969 L 110.46875 352.945312 L 118.210938 352.945312 L 122.398438 373.292969 " fill-opacity="1" fill-rule="nonzero"/><path fill="#493152" d="M 86.246094 215.34375 L 78.371094 215.34375 C 65.773438 215.34375 55.804688 223.476562 54.449219 234.761719 C 53.9375 239.011719 53.621094 243.292969 53.4375 247.542969 C 52.058594 279.222656 56.652344 311.15625 64.894531 342.820312 C 67.15625 351.496094 75.015625 357.535156 83.972656 357.535156 L 106.953125 357.535156 C 84.875 313.886719 78.074219 263.839844 86.246094 215.34375 " fill-opacity="1" fill-rule="nonzero"/><path fill="#6d4a79" d="M 206.113281 295.898438 C 204.851562 275.566406 201.027344 255.152344 194.789062 235.167969 C 191.191406 223.632812 179.207031 215.34375 166.367188 215.34375 L 81.066406 215.34375 C 72.894531 263.839844 80.785156 313.886719 102.863281 357.535156 L 209.929688 357.535156 C 206.449219 337.410156 207.375 316.1875 206.113281 295.898438 " fill-opacity="1" fill-rule="nonzero"/><path fill="#7a232b" d="M 242.683594 120.496094 C 254.355469 120.496094 263.820312 129.972656 263.820312 141.660156 C 263.820312 153.347656 254.355469 162.824219 242.683594 162.824219 C 231.007812 162.824219 221.546875 153.347656 221.546875 141.660156 C 221.546875 129.972656 231.007812 120.496094 242.683594 120.496094 " fill-opacity="1" fill-rule="nonzero"/><path fill="#5f95d5" d="M 242.957031 283.046875 C 242.730469 283.046875 242.519531 282.910156 242.429688 282.6875 C 241.167969 279.53125 240.917969 277.257812 241.691406 275.933594 C 241.933594 275.519531 242.230469 275.273438 242.484375 275.128906 L 241.523438 269.449219 C 241.46875 269.140625 241.679688 268.847656 241.988281 268.792969 C 242.289062 268.742188 242.589844 268.953125 242.644531 269.261719 L 243.78125 275.972656 L 243.195312 276.050781 C 243.199219 276.050781 242.882812 276.117188 242.652344 276.546875 C 242.339844 277.125 242.035156 278.632812 243.488281 282.265625 C 243.605469 282.558594 243.464844 282.890625 243.171875 283.003906 C 243.101562 283.035156 243.03125 283.046875 242.957031 283.046875 " fill-opacity="1" fill-rule="nonzero"/><path fill="#f25949" d="M 210.875 272.78125 C 207.164062 288.09375 232.441406 302.953125 252.179688 308.15625 C 279.039062 315.238281 284.820312 315.238281 304.425781 316.824219 C 321.550781 318.214844 330.210938 307.15625 330.621094 297.1875 C 331.046875 286.867188 318.003906 280.726562 311.121094 278.6875 C 273.703125 267.644531 273.777344 267.84375 246.28125 259.8125 C 246.292969 259.835938 215.972656 251.734375 210.875 272.78125 " fill-opacity="1" fill-rule="nonzero"/><path fill="#f25949" d="M 217.246094 282.601562 C 211.8125 297.386719 182.566406 295.660156 163.265625 288.980469 C 137.003906 279.902344 132.207031 276.675781 115.03125 267.078125 C 100.027344 258.699219 98.976562 244.679688 104.171875 236.171875 C 109.558594 227.367188 123.8125 229.519531 130.660156 231.667969 C 167.886719 243.339844 173.335938 245.964844 200.644531 254.609375 C 200.632812 254.609375 224.707031 262.265625 217.246094 282.601562 " fill-opacity="1" fill-rule="nonzero"/><path fill="#f25949" d="M 138.550781 373.054688 C 142.625 342.765625 149.066406 309.476562 159.542969 289.40625 C 165.800781 277.398438 172.574219 262.265625 172.574219 262.265625 C 172.574219 262.265625 194.558594 255.023438 221.570312 255.195312 C 252.054688 255.398438 267.171875 277.875 267.171875 277.875 C 262.574219 319.953125 251.617188 342.890625 247.722656 374.316406 L 138.550781 373.054688 " fill-opacity="1" fill-rule="nonzero"/><path fill="#f8a49e" d="M 221.21875 254.796875 C 229.371094 254.796875 235.976562 258.582031 235.976562 263.253906 C 235.976562 267.921875 229.371094 271.707031 221.21875 271.707031 C 213.070312 271.707031 206.464844 267.921875 206.464844 263.253906 C 206.464844 258.582031 213.070312 254.796875 221.21875 254.796875 " fill-opacity="1" fill-rule="nonzero"/><path fill="#f8a49e" d="M 200.496094 263.804688 C 200.871094 259.152344 210.238281 256.109375 221.421875 257.023438 C 232.589844 257.9375 241.347656 262.453125 240.960938 267.117188 C 240.585938 271.769531 243.933594 286.394531 225.84375 287.230469 C 203.292969 288.28125 200.121094 268.46875 200.496094 263.804688 " fill-opacity="1" fill-rule="nonzero"/><path fill="#963537" d="M 211.175781 205.941406 C 195.996094 173.308594 225.40625 136.183594 256.898438 146.125 C 270.917969 150.453125 277.765625 159.335938 282.261719 162.824219 C 292.65625 171.917969 289.59375 194.769531 280.335938 206.917969 C 279.5625 207.890625 214.386719 214.636719 211.175781 205.941406 " fill-opacity="1" fill-rule="nonzero"/><path fill="#7a232b" d="M 214.335938 218.8125 C 184.230469 192.105469 206.277344 148.378906 242.234375 144.925781 C 201.207031 176.734375 264.746094 182.1875 214.785156 222.914062 C 213.949219 221.664062 213.800781 220.222656 214.335938 218.8125 " fill-opacity="1" fill-rule="nonzero"/><path fill="#f8a49e" d="M 237.359375 247.09375 C 229.140625 246.101562 221.933594 241.863281 213.949219 243.628906 L 209.914062 260.039062 C 209.050781 263.566406 211.851562 266.917969 215.460938 266.691406 L 231.640625 265.679688 L 237.359375 247.09375 " fill-opacity="1" fill-rule="nonzero"/><path fill="#f68082" d="M 238.761719 242.351562 L 236.660156 249.644531 C 228.40625 247.890625 220.484375 247.492188 212.488281 249.253906 L 220.160156 219.625 C 223.492188 229.140625 230.066406 238.875 238.761719 242.351562 " fill-opacity="1" fill-rule="nonzero"/><path fill="#ffffff" d="M 236.25 215.234375 C 236.175781 215.371094 236.210938 215.285156 236.25 215.195312 L 236.25 215.234375 " fill-opacity="1" fill-rule="nonzero"/><path fill="#f8a49e" d="M 270.691406 186.664062 C 256.324219 188.992188 235.824219 188.417969 227.867188 189.128906 C 220.457031 189.792969 213.25 214.546875 212.625 216.097656 C 212.625 216.097656 210.875 219.550781 217.460938 228.078125 C 224.742188 237.523438 232.515625 242.527344 237.972656 245.964844 C 239.722656 247.066406 242.046875 247.742188 244.082031 248.09375 C 252.738281 249.566406 267.183594 241.238281 273.914062 227.457031 C 281.3125 212.296875 283.949219 197.347656 286.195312 187.027344 C 286.585938 185.238281 280.476562 185.078125 270.691406 186.664062 " fill-opacity="1" fill-rule="nonzero"/><path fill="#f8a49e" d="M 218.796875 207.65625 C 223.03125 215.871094 216.773438 222.5625 211.613281 221.011719 C 206.453125 219.460938 203.054688 210.933594 204.03125 201.964844 C 205.003906 192.980469 211.5 186.929688 218.835938 188.605469 C 224.082031 189.792969 214.863281 200.035156 218.796875 207.65625 " fill-opacity="1" fill-rule="nonzero"/><path fill="#f68082" d="M 216.375 218.742188 C 216.328125 218.742188 216.28125 218.738281 216.238281 218.722656 C 215.996094 218.648438 215.863281 218.390625 215.9375 218.152344 C 216.269531 217.085938 216.582031 215.941406 216.617188 214.832031 C 216.652344 213.699219 216.375 212.710938 215.871094 212.183594 C 215.394531 211.695312 214.65625 211.511719 213.601562 211.636719 C 213.289062 211.671875 212.972656 211.6875 212.660156 211.699219 C 212.023438 211.726562 211.421875 211.753906 210.84375 211.980469 C 210.652344 212.058594 210.425781 211.992188 210.304688 211.824219 C 210.257812 211.757812 205.65625 205.199219 209.8125 197.382812 C 209.929688 197.160156 210.210938 197.078125 210.429688 197.195312 C 210.652344 197.3125 210.734375 197.589844 210.617188 197.8125 C 207.195312 204.242188 210.085938 209.730469 210.867188 211.011719 C 211.464844 210.835938 212.050781 210.8125 212.621094 210.785156 C 212.914062 210.773438 213.203125 210.761719 213.496094 210.726562 C 214.851562 210.570312 215.839844 210.839844 216.527344 211.550781 C 217.210938 212.261719 217.574219 213.46875 217.53125 214.863281 C 217.488281 216.082031 217.160156 217.292969 216.808594 218.421875 C 216.746094 218.617188 216.570312 218.742188 216.375 218.742188 " fill-opacity="1" fill-rule="nonzero"/><path fill="#963537" d="M 245.269531 194.519531 C 246.007812 193.394531 247.03125 192.445312 248.242188 191.820312 C 249.441406 191.167969 250.78125 190.769531 252.140625 190.65625 C 253.488281 190.53125 254.863281 190.644531 256.148438 190.992188 C 257.4375 191.367188 258.675781 191.917969 259.6875 192.855469 C 257.015625 192.917969 254.691406 192.871094 252.378906 193.105469 C 251.230469 193.207031 250.09375 193.382812 248.929688 193.632812 C 247.730469 193.820312 246.605469 194.21875 245.269531 194.519531 " fill-opacity="1" fill-rule="nonzero"/><path fill="#963537" d="M 269.066406 201.664062 C 270.167969 201.1875 271.417969 201.023438 272.605469 201.226562 C 273.804688 201.398438 274.976562 201.851562 275.976562 202.539062 C 276.988281 203.214844 277.851562 204.078125 278.515625 205.0625 C 279.152344 206.066406 279.648438 207.167969 279.738281 208.394531 C 277.8125 206.976562 276.289062 205.691406 274.617188 204.601562 C 273.792969 204.039062 272.941406 203.550781 272.042969 203.089844 C 271.144531 202.5625 270.167969 202.226562 269.066406 201.664062 " fill-opacity="1" fill-rule="nonzero"/><path fill="#f68082" d="M 260.734375 219.234375 C 260.625 219.234375 260.519531 219.222656 260.421875 219.214844 C 259.765625 219.15625 259.304688 219.136719 258.835938 219.117188 C 258.347656 219.101562 257.855469 219.082031 257.140625 219.015625 C 256.636719 218.972656 256.261719 218.523438 256.308594 218.015625 C 256.355469 217.507812 256.808594 217.132812 257.308594 217.179688 C 257.980469 217.242188 258.449219 217.261719 258.910156 217.277344 C 259.273438 217.292969 259.632812 217.308594 260.082031 217.339844 C 260.082031 217.3125 260.082031 217.285156 260.082031 217.257812 C 260.046875 216.328125 259.988281 214.601562 260.246094 211.835938 C 260.292969 211.328125 260.746094 210.953125 261.246094 211 C 261.753906 211.050781 262.125 211.5 262.078125 212.003906 C 261.832031 214.652344 261.886719 216.242188 261.921875 217.191406 C 261.953125 218.089844 261.984375 219.015625 261.054688 219.203125 C 260.945312 219.226562 260.835938 219.234375 260.734375 219.234375 " fill-opacity="1" fill-rule="nonzero"/><path fill="#2e3135" d="M 269.140625 209.910156 L 268.449219 208.925781 C 268.605469 208.8125 272.339844 206.222656 276.1875 207.273438 L 275.867188 208.433594 C 272.578125 207.53125 269.171875 209.886719 269.140625 209.910156 " fill-opacity="1" fill-rule="nonzero"/><path fill="#2e3135" d="M 274.964844 207.066406 L 277.464844 207.503906 L 275.339844 210.007812 C 275.339844 210.007812 273.078125 207.792969 274.964844 207.066406 " fill-opacity="1" fill-rule="nonzero"/><path fill="#2e3135" d="M 243.578125 202.503906 L 242.886719 201.519531 C 243.042969 201.410156 246.777344 198.816406 250.625 199.867188 L 250.308594 201.03125 C 247.019531 200.128906 243.613281 202.480469 243.578125 202.503906 " fill-opacity="1" fill-rule="nonzero"/><path fill="#2e3135" d="M 249.964844 199.699219 L 252.464844 200.136719 L 250.34375 202.640625 C 250.332031 202.640625 248.066406 200.425781 249.964844 199.699219 " fill-opacity="1" fill-rule="nonzero"/><path fill="#f8a49e" d="M 306.773438 214.082031 C 305.859375 209.941406 299.453125 192.542969 298.316406 188.578125 C 296.878906 183.640625 287.972656 197.609375 283.363281 200.875 L 287.632812 219.960938 C 295.390625 221.675781 299.863281 218.199219 306.773438 214.082031 " fill-opacity="1" fill-rule="nonzero"/><path fill="#f8a49e" d="M 284.660156 214.609375 L 290.257812 260.261719 C 292.167969 260.675781 292.617188 261.027344 294.542969 261.378906 C 300.214844 262.402344 305.949219 263.027344 311.644531 262.816406 C 314.605469 262.703125 317.554688 262.253906 320.429688 261.578125 C 315.417969 232.09375 302.777344 208.480469 302.777344 208.480469 C 302.777344 208.480469 293.59375 216.359375 284.660156 214.609375 " fill-opacity="1" fill-rule="nonzero"/><path fill="#f25949" d="M 308.546875 213.496094 L 308.195312 213.269531 C 307.433594 212.769531 307.285156 212.480469 307.023438 211.65625 L 305.984375 208.28125 C 305.660156 207.242188 304.511719 206.554688 303.359375 206.742188 L 284.410156 208.566406 C 283.636719 208.667969 283.136719 209.332031 283.285156 210.03125 L 284.023438 213.507812 C 284.171875 214.210938 284.058594 214.921875 283.722656 215.535156 C 283.722656 215.535156 282.699219 216.472656 282.375 216.847656 C 281.773438 217.546875 281.511719 218.488281 281.625 219.398438 L 291.15625 293.320312 C 292.417969 302.226562 301.726562 318.078125 315.96875 316 C 331.234375 313.773438 333.058594 287.96875 331.972656 281.726562 C 326.761719 251.65625 316.003906 225.765625 312.667969 217.847656 C 312.160156 216.683594 309.671875 214.234375 308.546875 213.496094 " fill-opacity="1" fill-rule="nonzero"/><path fill="#d94331" d="M 284.445312 215.878906 C 284.179688 215.878906 283.949219 215.675781 283.917969 215.402344 C 283.890625 215.109375 284.101562 214.851562 284.394531 214.820312 L 307.28125 212.429688 C 307.550781 212.410156 307.832031 212.609375 307.863281 212.902344 C 307.894531 213.195312 307.683594 213.457031 307.390625 213.484375 L 284.503906 215.875 C 284.484375 215.878906 284.46875 215.878906 284.445312 215.878906 " fill-opacity="1" fill-rule="nonzero"/><path fill="#f8a49e" d="M 178.832031 185.277344 C 182.28125 182.8125 198.671875 174.171875 202.167969 172.003906 C 206.542969 169.292969 203.816406 185.652344 205.066406 191.167969 L 189.125 202.488281 C 182.21875 198.546875 181.21875 192.96875 178.832031 185.277344 " fill-opacity="1" fill-rule="nonzero"/><path fill="#f25949" d="M 194.921875 200.488281 L 160.253906 230.65625 C 158.554688 229.679688 157.980469 229.644531 156.320312 228.605469 C 151.421875 225.566406 146.738281 222.1875 142.652344 218.210938 C 140.527344 216.148438 138.640625 213.832031 136.953125 211.40625 C 160.378906 192.855469 185.566406 183.789062 185.566406 183.789062 C 185.566406 183.789062 187.101562 195.796875 194.921875 200.488281 " fill-opacity="1" fill-rule="nonzero"/><path fill="#f25949" d="M 177.90625 183.652344 L 178.320312 183.714844 C 179.230469 183.851562 179.519531 183.726562 180.269531 183.3125 L 183.304688 181.5 C 184.242188 180.9375 185.550781 181.210938 186.289062 182.113281 L 199.15625 196.171875 C 199.65625 196.773438 199.59375 197.585938 199.007812 198.023438 L 196.136719 200.113281 C 195.558594 200.535156 195.160156 201.136719 194.996094 201.824219 C 194.996094 201.824219 195.136719 203.214844 195.121094 203.714844 C 195.097656 204.640625 194.660156 205.515625 193.972656 206.113281 L 137.492188 254.648438 C 130.597656 260.425781 113.09375 265.96875 103.898438 254.871094 C 94.042969 242.988281 109.933594 222.601562 114.917969 218.6875 C 138.890625 199.835938 164.191406 187.804688 171.960938 184.152344 C 173.097656 183.601562 176.582031 183.4375 177.90625 183.652344 " fill-opacity="1" fill-rule="nonzero"/><path fill="#dd4533" d="M 194.585938 201.707031 C 194.441406 201.707031 194.296875 201.648438 194.191406 201.53125 L 178.789062 184.417969 C 178.589844 184.199219 178.609375 183.867188 178.828125 183.667969 C 179.046875 183.472656 179.378906 183.488281 179.574219 183.707031 L 194.980469 200.820312 C 195.175781 201.039062 195.160156 201.371094 194.941406 201.570312 C 194.839844 201.660156 194.710938 201.707031 194.585938 201.707031 " fill-opacity="1" fill-rule="nonzero"/><path fill="#f8a49e" d="M 301.164062 197.496094 C 300.363281 187.992188 297.042969 179.398438 293.34375 175.195312 C 289.859375 171.230469 284.410156 165.976562 278.238281 163.425781 C 276.828125 162.839844 275.339844 163.363281 274.953125 164.875 C 274.652344 166.039062 274.066406 167.464844 276.414062 169.554688 L 279.914062 171.253906 L 272.179688 167.304688 C 271.21875 166.664062 269.40625 166.941406 268.941406 168.015625 C 267.78125 170.71875 267.808594 173.132812 271.480469 174.65625 C 280.785156 178.523438 284.734375 184.238281 284.734375 184.238281 C 284.734375 184.238281 276.5625 178.433594 271.730469 177.972656 C 270.953125 177.898438 269.644531 178.285156 269.382812 179.035156 C 268.78125 180.722656 268.929688 182.199219 270.394531 183.1875 C 270.394531 183.1875 278.664062 185.503906 282.273438 189.867188 L 274.089844 188.667969 C 272.917969 188.179688 271.59375 189.21875 271.492188 190.503906 C 271.394531 191.742188 271.917969 193.257812 273.117188 193.496094 C 279.886719 194.832031 282.226562 197.597656 282.226562 197.597656 L 282.085938 201.101562 C 282.148438 203.238281 286.921875 207.492188 288.859375 206.792969 L 301.164062 197.496094 " fill-opacity="1" fill-rule="nonzero"/><path fill="#f68082" d="M 288.378906 207.421875 C 287.417969 207.421875 286.332031 206.835938 285.523438 206.285156 C 283.628906 204.992188 281.585938 202.742188 281.539062 201.117188 L 281.667969 197.8125 C 281.082031 197.246094 278.597656 195.140625 273.011719 194.035156 C 271.507812 193.738281 270.824219 191.972656 270.945312 190.460938 C 271.011719 189.613281 271.511719 188.804688 272.246094 188.355469 C 272.871094 187.972656 273.589844 187.890625 274.234375 188.132812 L 280.765625 189.089844 C 276.945312 185.625 270.320312 183.738281 270.246094 183.71875 C 270.1875 183.703125 270.132812 183.679688 270.085938 183.644531 C 269.011719 182.917969 267.925781 181.496094 268.863281 178.851562 C 269.238281 177.789062 270.835938 177.332031 271.78125 177.425781 C 274.605469 177.695312 278.441406 179.667969 281.265625 181.347656 C 279.148438 179.460938 275.867188 177.074219 271.269531 175.167969 C 269.5625 174.457031 268.492188 173.527344 268.003906 172.328125 C 267.503906 171.085938 267.644531 169.648438 268.4375 167.796875 C 268.691406 167.214844 269.230469 166.773438 269.960938 166.554688 C 270.835938 166.289062 271.824219 166.40625 272.484375 166.84375 L 274.386719 167.816406 C 273.902344 166.664062 274.15625 165.726562 274.363281 164.960938 L 274.421875 164.738281 C 274.628906 163.925781 275.128906 163.285156 275.828125 162.933594 C 276.597656 162.550781 277.550781 162.546875 278.449219 162.917969 C 284.722656 165.511719 290.234375 170.828125 293.753906 174.832031 C 297.820312 179.453125 300.945312 188.332031 301.710938 197.449219 C 301.734375 197.753906 301.511719 198.019531 301.210938 198.046875 C 300.914062 198.066406 300.640625 197.847656 300.613281 197.542969 C 299.878906 188.78125 296.789062 179.945312 292.929688 175.5625 C 289.488281 171.644531 284.109375 166.445312 278.027344 163.933594 C 277.425781 163.683594 276.804688 163.675781 276.320312 163.917969 C 275.902344 164.125 275.617188 164.503906 275.484375 165.011719 L 275.421875 165.25 C 275.148438 166.265625 274.863281 167.3125 276.527344 168.910156 L 280.164062 170.765625 C 280.433594 170.902344 280.539062 171.230469 280.40625 171.5 C 280.269531 171.769531 279.945312 171.882812 279.671875 171.75 L 276.175781 170.046875 C 276.128906 170.027344 276.089844 170 276.050781 169.964844 C 275.992188 169.914062 275.933594 169.863281 275.878906 169.8125 L 271.929688 167.792969 C 271.484375 167.5 270.839844 167.4375 270.277344 167.609375 C 269.871094 167.730469 269.570312 167.957031 269.449219 168.234375 C 268.777344 169.796875 268.644531 170.964844 269.023438 171.910156 C 269.398438 172.828125 270.269531 173.558594 271.691406 174.148438 C 281.039062 178.03125 285.023438 183.6875 285.1875 183.925781 C 285.339844 184.144531 285.3125 184.441406 285.121094 184.628906 C 284.933594 184.816406 284.636719 184.839844 284.417969 184.6875 C 284.335938 184.628906 276.3125 178.964844 271.675781 178.519531 C 271.066406 178.460938 270.046875 178.800781 269.902344 179.21875 C 269.332031 180.820312 269.5625 181.925781 270.632812 182.683594 C 271.597656 182.964844 279.183594 185.265625 282.699219 189.515625 C 282.84375 189.691406 282.867188 189.9375 282.753906 190.136719 C 282.644531 190.335938 282.421875 190.449219 282.195312 190.410156 L 274.011719 189.210938 C 273.964844 189.207031 273.921875 189.191406 273.882812 189.175781 C 273.429688 188.988281 273.023438 189.167969 272.820312 189.292969 C 272.378906 189.5625 272.082031 190.046875 272.042969 190.546875 C 271.957031 191.578125 272.386719 192.789062 273.222656 192.957031 C 280.105469 194.316406 282.546875 197.125 282.644531 197.242188 C 282.734375 197.347656 282.78125 197.480469 282.773438 197.621094 L 282.636719 201.121094 C 282.664062 202.117188 284.304688 204.121094 286.140625 205.375 C 287.425781 206.25 288.292969 206.410156 288.671875 206.273438 C 288.960938 206.171875 289.269531 206.316406 289.375 206.605469 C 289.476562 206.890625 289.332031 207.207031 289.042969 207.308594 C 288.835938 207.386719 288.609375 207.421875 288.378906 207.421875 " fill-opacity="1" fill-rule="nonzero"/><path fill="#f8a49e" d="M 288.507812 177.871094 C 288.507812 177.871094 284.011719 172.917969 275.367188 169.15625 L 288.507812 177.871094 " fill-opacity="1" fill-rule="nonzero"/><path fill="#f68082" d="M 288.507812 178.421875 C 288.359375 178.421875 288.210938 178.363281 288.101562 178.242188 C 288.054688 178.195312 283.570312 173.328125 275.144531 169.65625 C 274.867188 169.539062 274.742188 169.210938 274.859375 168.933594 C 274.980469 168.652344 275.300781 168.527344 275.585938 168.648438 C 284.238281 172.417969 288.726562 177.296875 288.914062 177.503906 C 289.117188 177.726562 289.101562 178.074219 288.878906 178.277344 C 288.773438 178.375 288.640625 178.421875 288.507812 178.421875 " fill-opacity="1" fill-rule="nonzero"/><path fill="#ffffff" d="M 251.578125 225.464844 C 251.703125 223.238281 250.042969 220.027344 246.492188 219.011719 L 246.394531 218.976562 C 244.371094 218.386719 240.933594 220.125 240.347656 222.214844 L 251.578125 225.464844 " fill-opacity="1" fill-rule="nonzero"/><path fill="#f8a49e" d="M 192.0625 181.238281 C 192.863281 171.730469 196.183594 163.136719 199.882812 158.933594 C 203.367188 154.96875 208.816406 149.714844 214.988281 147.164062 C 216.398438 146.578125 217.886719 147.101562 218.273438 148.617188 C 218.570312 149.78125 219.160156 151.207031 216.808594 153.292969 L 213.3125 154.996094 L 221.046875 151.042969 C 222.007812 150.40625 223.820312 150.679688 224.28125 151.753906 C 225.445312 154.457031 225.417969 156.871094 221.746094 158.398438 C 212.4375 162.261719 208.488281 167.976562 208.488281 167.976562 C 208.488281 167.976562 216.660156 162.171875 221.496094 161.710938 C 222.269531 161.636719 223.582031 162.023438 223.84375 162.773438 C 224.445312 164.464844 224.292969 165.941406 222.832031 166.925781 C 222.832031 166.925781 214.5625 169.242188 210.953125 173.605469 L 219.132812 172.40625 C 220.308594 171.917969 221.632812 172.957031 221.734375 174.246094 C 221.832031 175.484375 221.308594 176.996094 220.109375 177.234375 C 213.335938 178.574219 211 181.335938 211 181.335938 L 211.140625 184.839844 C 211.078125 186.980469 206.304688 191.230469 204.367188 190.53125 L 192.0625 181.238281 " fill-opacity="1" fill-rule="nonzero"/><path fill="#f68082" d="M 204.847656 191.160156 C 204.617188 191.160156 204.394531 191.125 204.179688 191.046875 C 203.894531 190.945312 203.746094 190.628906 203.851562 190.34375 C 203.957031 190.058594 204.269531 189.910156 204.554688 190.011719 C 204.933594 190.148438 205.800781 189.988281 207.085938 189.113281 C 208.921875 187.863281 210.558594 185.855469 210.589844 184.824219 L 210.453125 181.359375 C 210.445312 181.222656 210.492188 181.085938 210.582031 180.980469 C 210.683594 180.863281 213.121094 178.054688 220.003906 176.695312 C 220.839844 176.53125 221.269531 175.316406 221.183594 174.289062 C 221.144531 173.785156 220.847656 173.304688 220.40625 173.03125 C 220.203125 172.910156 219.796875 172.726562 219.34375 172.914062 C 219.300781 172.933594 219.257812 172.945312 219.214844 172.949219 L 211.03125 174.152344 C 210.808594 174.183594 210.582031 174.074219 210.472656 173.878906 C 210.359375 173.675781 210.382812 173.433594 210.527344 173.257812 C 214.042969 169.007812 221.628906 166.703125 222.59375 166.421875 C 223.660156 165.664062 223.894531 164.558594 223.328125 162.957031 C 223.179688 162.539062 222.179688 162.203125 221.546875 162.257812 C 216.914062 162.703125 208.890625 168.371094 208.808594 168.425781 C 208.589844 168.582031 208.292969 168.558594 208.105469 168.371094 C 207.914062 168.183594 207.886719 167.886719 208.039062 167.664062 C 208.203125 167.425781 212.1875 161.769531 221.535156 157.886719 C 222.957031 157.296875 223.828125 156.566406 224.199219 155.648438 C 224.582031 154.703125 224.449219 153.535156 223.777344 151.972656 C 223.65625 151.695312 223.355469 151.46875 222.949219 151.347656 C 222.386719 151.175781 221.742188 151.242188 221.347656 151.5 L 217.351562 153.546875 C 217.292969 153.597656 217.234375 153.652344 217.175781 153.707031 C 217.136719 153.738281 217.097656 153.765625 217.050781 153.789062 L 213.550781 155.492188 C 213.277344 155.625 212.953125 155.511719 212.820312 155.242188 C 212.6875 154.96875 212.792969 154.640625 213.0625 154.503906 L 216.707031 152.640625 C 218.359375 151.050781 218.078125 150.003906 217.800781 148.988281 L 217.742188 148.753906 C 217.609375 148.246094 217.320312 147.863281 216.90625 147.65625 C 216.425781 147.417969 215.800781 147.421875 215.199219 147.675781 C 209.117188 150.1875 203.738281 155.382812 200.292969 159.300781 C 196.4375 163.683594 193.347656 172.519531 192.609375 181.285156 C 192.582031 181.585938 192.316406 181.8125 192.015625 181.785156 C 191.710938 181.761719 191.488281 181.492188 191.515625 181.191406 C 192.28125 172.070312 195.40625 163.1875 199.46875 158.570312 C 202.988281 154.566406 208.5 149.25 214.777344 146.65625 C 215.671875 146.28125 216.625 146.289062 217.394531 146.671875 C 218.097656 147.023438 218.59375 147.664062 218.804688 148.480469 L 218.863281 148.703125 C 219.070312 149.464844 219.324219 150.402344 218.84375 151.550781 L 220.796875 150.550781 C 221.402344 150.144531 222.394531 150.035156 223.261719 150.289062 C 223.992188 150.507812 224.535156 150.953125 224.785156 151.539062 C 225.582031 153.386719 225.722656 154.828125 225.21875 156.066406 C 224.734375 157.265625 223.664062 158.195312 221.957031 158.90625 C 217.359375 160.8125 214.078125 163.199219 211.960938 165.085938 C 214.785156 163.40625 218.621094 161.433594 221.445312 161.164062 C 222.402344 161.066406 223.988281 161.527344 224.363281 162.59375 C 225.300781 165.234375 224.214844 166.65625 223.140625 167.386719 C 223.089844 167.417969 223.035156 167.441406 222.980469 167.457031 C 222.90625 167.480469 216.277344 169.367188 212.460938 172.828125 L 218.992188 171.871094 C 219.632812 171.628906 220.351562 171.710938 220.980469 172.09375 C 221.714844 172.546875 222.214844 173.351562 222.28125 174.203125 C 222.402344 175.710938 221.71875 177.476562 220.214844 177.773438 C 214.632812 178.878906 212.144531 180.984375 211.558594 181.550781 L 211.6875 184.816406 C 211.640625 186.480469 209.597656 188.730469 207.703125 190.023438 C 206.894531 190.574219 205.808594 191.160156 204.847656 191.160156 " fill-opacity="1" fill-rule="nonzero"/><path fill="#f8a49e" d="M 204.71875 161.609375 C 204.71875 161.609375 209.214844 156.65625 217.859375 152.894531 L 204.71875 161.609375 " fill-opacity="1" fill-rule="nonzero"/><path fill="#f68082" d="M 204.71875 162.164062 C 204.585938 162.164062 204.453125 162.113281 204.347656 162.019531 C 204.121094 161.8125 204.105469 161.464844 204.3125 161.242188 C 204.496094 161.035156 208.988281 156.160156 217.640625 152.390625 C 217.921875 152.269531 218.242188 152.394531 218.363281 152.675781 C 218.484375 152.953125 218.359375 153.277344 218.082031 153.398438 C 209.65625 157.066406 205.167969 161.933594 205.125 161.980469 C 205.015625 162.101562 204.867188 162.164062 204.71875 162.164062 " fill-opacity="1" fill-rule="nonzero"/><path fill="#d94331" d="M 191.917969 368.523438 L 213.652344 372.703125 L 232.050781 359.917969 L 236.332031 337.636719 L 223.984375 318.921875 L 202.253906 314.742188 L 183.839844 327.53125 L 179.5625 349.8125 Z M 213.996094 374.316406 L 191.007812 369.894531 L 177.953125 350.132812 L 182.46875 326.632812 L 201.910156 313.128906 L 224.902344 317.554688 L 237.941406 337.316406 L 233.425781 360.8125 L 213.996094 374.316406 " fill-opacity="1" fill-rule="nonzero"/><path fill="#d94331" d="M 224.046875 280.480469 L 223.808594 280.367188 C 223.640625 280.289062 207.179688 272.480469 205.023438 256.105469 L 206.261719 255.941406 C 208.183594 270.542969 222.054688 278.082031 224.085938 279.109375 C 225.929688 278.269531 237.515625 272.363281 237.4375 256.976562 L 238.6875 256.972656 C 238.730469 266.113281 234.828125 271.988281 231.542969 275.308594 C 227.980469 278.910156 224.445312 280.324219 224.296875 280.382812 L 224.046875 280.480469 " fill-opacity="1" fill-rule="nonzero"/><path fill="#d94331" d="M 222.445312 284.125 L 225.59375 284.125 L 224.019531 281.5625 Z M 227.441406 285.160156 L 220.59375 285.160156 L 224.019531 279.589844 L 227.441406 285.160156 " fill-opacity="1" fill-rule="nonzero"/><g clip-path="url(#18ef55c346)"><path fill="#f7cbb8" d="M 484.644531 382.542969 C 483.636719 373.96875 476.367188 367.316406 467.53125 367.316406 L 43.621094 367.316406 C 34.785156 367.316406 27.515625 373.96875 26.507812 382.542969 L 484.644531 382.542969 " fill-opacity="1" fill-rule="nonzero"/></g><path fill="#8a9a9f" d="M 209.484375 362.019531 L 325.71875 352.753906 L 325.359375 367.429688 L 213.21875 367.429688 C 211.15625 367.429688 209.484375 365.007812 209.484375 362.019531 " fill-opacity="1" fill-rule="nonzero"/><path fill="#abbbc0" d="M 457.453125 238.847656 L 298.183594 238.847656 C 293.261719 238.847656 289.523438 242.035156 288.757812 246.886719 L 270.652344 361.265625 C 270.15625 364.394531 272.429688 367.246094 275.425781 367.246094 L 438.257812 367.246094 C 441.058594 367.246094 443.449219 365.101562 443.914062 362.171875 L 462.503906 244.746094 C 462.949219 241.921875 460.324219 238.847656 457.453125 238.847656 " fill-opacity="1" fill-rule="nonzero"/><path fill="#8a9a9f" d="M 275.023438 359.382812 L 274.097656 358.703125 L 298.027344 326.105469 L 427.859375 326.105469 L 440.371094 358.835938 L 439.296875 359.25 L 427.070312 327.261719 L 298.609375 327.261719 L 275.023438 359.382812 " fill-opacity="1" fill-rule="nonzero"/><path fill="#8a9a9f" d="M 297.742188 326.699219 L 295.71875 246.390625 L 296.871094 246.363281 L 298.890625 326.667969 L 297.742188 326.699219 " fill-opacity="1" fill-rule="nonzero"/><path fill="#8a9a9f" d="M 428.007812 326.878906 L 426.925781 326.488281 L 455.972656 246.183594 L 457.054688 246.574219 L 428.007812 326.878906 " fill-opacity="1" fill-rule="nonzero"/><path fill="#8a9a9f" d="M 443.390625 359.648438 L 270.652344 359.648438 C 270.332031 359.648438 270.074219 359.390625 270.074219 359.070312 C 270.074219 358.75 270.332031 358.492188 270.652344 358.492188 L 443.390625 358.492188 C 443.707031 358.492188 443.964844 358.75 443.964844 359.070312 C 443.964844 359.390625 443.707031 359.648438 443.390625 359.648438 " fill-opacity="1" fill-rule="nonzero"/><path fill="#8a9a9f" d="M 411.507812 362.160156 C 410.828125 362.160156 410.273438 362.71875 410.273438 363.398438 C 410.273438 364.078125 410.828125 364.632812 411.507812 364.632812 L 428.96875 364.632812 C 429.648438 364.632812 430.207031 364.078125 430.207031 363.398438 C 430.207031 362.71875 429.648438 362.160156 428.96875 362.160156 Z M 428.96875 365.785156 L 411.507812 365.785156 C 410.195312 365.785156 409.121094 364.714844 409.121094 363.398438 C 409.121094 362.082031 410.195312 361.011719 411.507812 361.011719 L 428.96875 361.011719 C 430.285156 361.011719 431.355469 362.082031 431.355469 363.398438 C 431.355469 364.714844 430.285156 365.785156 428.96875 365.785156 " fill-opacity="1" fill-rule="nonzero"/><path fill="#f25949" d="M 136.484375 94.480469 C 134.644531 94.480469 133.152344 95.972656 133.152344 97.816406 L 133.152344 117.667969 C 133.152344 119.230469 134.417969 120.5 135.976562 120.5 L 142.726562 120.5 L 142.726562 94.480469 L 136.484375 94.480469 " fill-opacity="1" fill-rule="nonzero"/><path fill="#f7cbb8" d="M 133.148438 89.796875 C 130.207031 89.796875 127.816406 92.191406 127.816406 95.132812 L 127.816406 120.332031 C 127.816406 123.277344 130.207031 125.671875 133.148438 125.671875 L 193.78125 125.671875 C 196.722656 125.671875 199.113281 123.277344 199.113281 120.332031 L 199.113281 118.289062 C 199.113281 118.003906 199.347656 117.769531 199.632812 117.769531 L 201.757812 117.769531 C 203.144531 117.769531 204.273438 116.640625 204.273438 115.253906 L 204.273438 99.453125 C 204.273438 98.066406 203.144531 96.9375 201.757812 96.9375 L 199.632812 96.9375 C 199.347656 96.9375 199.113281 96.707031 199.113281 96.417969 L 199.113281 95.132812 C 199.113281 92.191406 196.722656 89.796875 193.78125 89.796875 Z M 193.78125 126.710938 L 133.148438 126.710938 C 129.636719 126.710938 126.777344 123.851562 126.777344 120.332031 L 126.777344 95.132812 C 126.777344 91.617188 129.636719 88.753906 133.148438 88.753906 L 193.78125 88.753906 C 197.296875 88.753906 200.152344 91.617188 200.152344 95.132812 L 200.152344 95.898438 L 201.757812 95.898438 C 203.71875 95.898438 205.3125 97.492188 205.3125 99.453125 L 205.3125 115.253906 C 205.3125 117.214844 203.71875 118.808594 201.757812 118.808594 L 200.152344 118.808594 L 200.152344 120.332031 C 200.152344 123.851562 197.296875 126.710938 193.78125 126.710938 " fill-opacity="1" fill-rule="nonzero"/><path fill="#f7cbb8" d="M 378.0625 136.179688 C 377.660156 136.179688 377.296875 135.914062 377.191406 135.511719 L 358.617188 66.355469 C 358.519531 66.003906 358.648438 65.628906 358.9375 65.40625 C 359.222656 65.1875 359.617188 65.160156 359.9375 65.339844 L 363.347656 67.308594 C 363.78125 67.558594 363.929688 68.109375 363.683594 68.542969 C 363.429688 68.972656 362.878906 69.121094 362.449219 68.875 L 360.921875 67.992188 L 378.929688 135.042969 C 379.0625 135.523438 378.773438 136.019531 378.292969 136.148438 C 378.214844 136.171875 378.136719 136.179688 378.0625 136.179688 " fill-opacity="1" fill-rule="nonzero"/><path fill="#f7cbb8" d="M 357.519531 70.445312 C 357.367188 70.445312 357.210938 70.40625 357.070312 70.324219 C 356.636719 70.074219 356.488281 69.523438 356.738281 69.089844 L 358.703125 65.671875 C 358.953125 65.238281 359.503906 65.09375 359.9375 65.339844 C 360.367188 65.589844 360.515625 66.140625 360.269531 66.574219 L 358.300781 69.992188 C 358.132812 70.28125 357.832031 70.445312 357.519531 70.445312 " fill-opacity="1" fill-rule="nonzero"/><path fill="#f7cbb8" d="M 378.0625 136.179688 C 377.660156 136.179688 377.296875 135.914062 377.191406 135.511719 C 377.058594 135.03125 377.347656 134.535156 377.824219 134.40625 L 491.726562 103.738281 C 492.078125 103.644531 492.453125 103.769531 492.675781 104.058594 C 492.898438 104.351562 492.925781 104.746094 492.742188 105.0625 L 490.777344 108.480469 C 490.527344 108.910156 489.976562 109.058594 489.542969 108.8125 C 489.113281 108.5625 488.964844 108.007812 489.210938 107.578125 L 490.09375 106.050781 L 378.292969 136.148438 C 378.214844 136.171875 378.136719 136.179688 378.0625 136.179688 " fill-opacity="1" fill-rule="nonzero"/><path fill="#f7cbb8" d="M 491.960938 105.511719 C 491.808594 105.511719 491.652344 105.476562 491.511719 105.390625 L 488.097656 103.421875 C 487.667969 103.175781 487.519531 102.621094 487.765625 102.191406 C 488.015625 101.757812 488.566406 101.609375 489 101.859375 L 492.414062 103.828125 C 492.84375 104.078125 492.992188 104.628906 492.742188 105.0625 C 492.574219 105.351562 492.273438 105.511719 491.960938 105.511719 " fill-opacity="1" fill-rule="nonzero"/><path fill="#f25949" d="M 385.003906 122.5625 C 385 122.5625 385 122.5625 384.996094 122.5625 C 384.5 122.5625 384.097656 122.15625 384.101562 121.65625 C 384.109375 120.121094 384.507812 83.996094 399.164062 75.574219 C 403.945312 72.828125 409.683594 73.34375 416.210938 77.109375 C 419.863281 79.214844 423.28125 81.25 426.496094 83.164062 C 441.394531 92.035156 452.160156 98.4375 460.472656 96.265625 C 464.929688 95.097656 468.734375 91.550781 472.445312 85.101562 C 472.691406 84.667969 473.242188 84.519531 473.675781 84.769531 C 474.109375 85.019531 474.253906 85.570312 474.007812 86.003906 C 470.039062 92.898438 465.882812 96.714844 460.929688 98.011719 C 451.867188 100.378906 441.414062 94.144531 425.574219 84.714844 C 422.367188 82.808594 418.953125 80.773438 415.308594 78.671875 C 409.378906 75.253906 404.25 74.738281 400.0625 77.140625 C 386.300781 85.042969 385.90625 121.300781 385.902344 121.667969 C 385.898438 122.164062 385.496094 122.5625 385.003906 122.5625 " fill-opacity="1" fill-rule="nonzero"/><path fill="#875c95" d="M 352.421875 60.46875 C 352.023438 60.578125 351.660156 60.558594 351.347656 60.414062 C 351.019531 60.269531 350.800781 60.03125 350.671875 59.710938 C 350.539062 59.382812 350.550781 59.007812 350.710938 58.59375 L 353.242188 52.339844 L 348.15625 48.355469 C 347.792969 48.066406 347.582031 47.75 347.535156 47.40625 C 347.488281 47.070312 347.558594 46.753906 347.761719 46.464844 C 347.957031 46.175781 348.253906 45.980469 348.652344 45.871094 C 349.257812 45.710938 349.894531 45.890625 350.550781 46.4375 L 354.417969 49.585938 L 356.160156 44.925781 C 356.324219 44.511719 356.507812 44.183594 356.726562 43.953125 C 356.933594 43.726562 357.207031 43.566406 357.542969 43.476562 C 357.933594 43.371094 358.289062 43.386719 358.605469 43.53125 C 358.921875 43.679688 359.152344 43.914062 359.28125 44.238281 C 359.410156 44.558594 359.386719 44.945312 359.21875 45.375 L 356.796875 51.382812 L 362.097656 55.527344 C 362.460938 55.800781 362.664062 56.117188 362.726562 56.464844 C 362.785156 56.804688 362.707031 57.121094 362.503906 57.410156 C 362.296875 57.691406 361.988281 57.890625 361.574219 58 C 361.253906 58.089844 360.945312 58.078125 360.65625 57.988281 C 360.363281 57.894531 360.035156 57.703125 359.667969 57.414062 L 355.628906 54.164062 L 353.773438 58.996094 C 353.621094 59.425781 353.4375 59.761719 353.222656 59.988281 C 353.011719 60.21875 352.746094 60.382812 352.421875 60.46875 " fill-opacity="1" fill-rule="nonzero"/><g clip-path="url(#478a425050)"><path fill="#875c95" d="M 504.007812 106.675781 C 503.519531 106.804688 503.109375 106.769531 502.78125 106.566406 C 502.449219 106.363281 502.21875 106.015625 502.082031 105.511719 L 500.808594 100.753906 L 495.355469 96.207031 C 495.105469 95.984375 494.949219 95.714844 494.890625 95.394531 C 494.832031 95.066406 494.882812 94.761719 495.058594 94.464844 C 495.226562 94.167969 495.519531 93.964844 495.949219 93.851562 C 496.550781 93.691406 497.15625 93.871094 497.769531 94.398438 L 501.632812 97.671875 L 503.332031 92.898438 C 503.480469 92.488281 503.660156 92.175781 503.855469 91.957031 C 504.054688 91.746094 504.3125 91.597656 504.636719 91.511719 C 505.046875 91.402344 505.394531 91.417969 505.679688 91.574219 C 505.960938 91.71875 506.160156 91.957031 506.257812 92.265625 C 506.367188 92.582031 506.34375 92.929688 506.203125 93.328125 L 503.804688 99.96875 L 505.078125 104.707031 C 505.355469 105.75 504.996094 106.410156 504.007812 106.675781 " fill-opacity="1" fill-rule="nonzero"/></g><path fill="#875c95" d="M 353.582031 193.1875 L 350.980469 199.429688 L 356.277344 199.429688 L 353.628906 193.1875 Z M 346.925781 206.070312 C 346.269531 206.070312 345.796875 205.855469 345.519531 205.414062 C 345.238281 204.976562 345.242188 204.4375 345.542969 203.796875 L 351.539062 190.628906 C 351.792969 190.097656 352.089844 189.710938 352.433594 189.46875 C 352.777344 189.226562 353.175781 189.105469 353.628906 189.105469 C 354.082031 189.105469 354.480469 189.226562 354.824219 189.46875 C 355.167969 189.710938 355.453125 190.097656 355.691406 190.628906 L 361.738281 203.796875 C 362.035156 204.453125 362.046875 204.996094 361.773438 205.425781 C 361.5 205.855469 361.058594 206.070312 360.449219 206.070312 C 359.917969 206.070312 359.507812 205.945312 359.21875 205.695312 C 358.929688 205.445312 358.671875 205.054688 358.457031 204.523438 L 357.472656 202.269531 L 349.761719 202.269531 L 348.796875 204.523438 C 348.5625 205.070312 348.3125 205.464844 348.046875 205.707031 C 347.78125 205.949219 347.40625 206.070312 346.925781 206.070312 " fill-opacity="1" fill-rule="nonzero"/><path fill="#f7cbb8" d="M 376.011719 205.132812 C 375.167969 205.132812 374.746094 204.703125 374.746094 203.839844 L 374.746094 200.347656 L 371.324219 200.347656 C 370.496094 200.347656 370.082031 199.9375 370.082031 199.125 C 370.082031 198.3125 370.496094 197.90625 371.324219 197.90625 L 374.746094 197.90625 L 374.746094 194.550781 C 374.746094 193.6875 375.167969 193.257812 376.011719 193.257812 C 376.855469 193.257812 377.277344 193.6875 377.277344 194.550781 L 377.277344 197.90625 L 380.699219 197.90625 C 381.527344 197.90625 381.941406 198.3125 381.941406 199.125 C 381.941406 199.9375 381.527344 200.347656 380.699219 200.347656 L 377.277344 200.347656 L 377.277344 203.839844 C 377.277344 204.703125 376.855469 205.132812 376.011719 205.132812 " fill-opacity="1" fill-rule="nonzero"/><path fill="#875c95" d="M 394.714844 203.160156 L 398.582031 203.160156 C 399.519531 203.160156 400.207031 202.980469 400.644531 202.621094 C 401.085938 202.261719 401.304688 201.714844 401.304688 200.976562 C 401.304688 200.257812 401.085938 199.71875 400.644531 199.359375 C 400.207031 199 399.519531 198.820312 398.582031 198.820312 L 394.714844 198.820312 Z M 394.714844 196.121094 L 398.183594 196.121094 C 399.964844 196.121094 400.855469 195.433594 400.855469 194.054688 C 400.855469 192.695312 399.964844 192.015625 398.183594 192.015625 L 394.714844 192.015625 Z M 393.144531 205.859375 C 391.878906 205.859375 391.246094 205.226562 391.246094 203.960938 L 391.246094 191.21875 C 391.246094 189.949219 391.878906 189.316406 393.144531 189.316406 L 398.816406 189.316406 C 400.582031 189.316406 401.945312 189.699219 402.90625 190.464844 C 403.867188 191.234375 404.347656 192.28125 404.347656 193.609375 C 404.347656 194.488281 404.128906 195.242188 403.691406 195.875 C 403.253906 196.507812 402.644531 196.980469 401.863281 197.292969 C 402.800781 197.558594 403.523438 198.03125 404.03125 198.703125 C 404.539062 199.375 404.792969 200.207031 404.792969 201.191406 C 404.792969 202.660156 404.28125 203.804688 403.257812 204.628906 C 402.234375 205.449219 400.839844 205.859375 399.074219 205.859375 L 393.144531 205.859375 " fill-opacity="1" fill-rule="nonzero"/><path fill="#f7cbb8" d="M 415.15625 200.957031 C 414.761719 200.957031 414.429688 200.820312 414.160156 200.554688 C 413.882812 200.292969 413.75 199.960938 413.75 199.570312 C 413.75 199.164062 413.882812 198.828125 414.160156 198.5625 C 414.429688 198.296875 414.761719 198.164062 415.15625 198.164062 L 419.980469 198.164062 C 420.375 198.164062 420.707031 198.296875 420.980469 198.5625 C 421.253906 198.828125 421.386719 199.164062 421.386719 199.570312 C 421.386719 199.960938 421.253906 200.292969 420.980469 200.554688 C 420.707031 200.820312 420.375 200.957031 419.980469 200.957031 L 415.15625 200.957031 " fill-opacity="1" fill-rule="nonzero"/><path fill="#f25949" d="M 438.945312 206.117188 C 437.164062 206.117188 435.640625 205.769531 434.371094 205.0625 C 433.105469 204.359375 432.132812 203.371094 431.457031 202.09375 C 430.777344 200.820312 430.4375 199.3125 430.4375 197.578125 C 430.4375 195.855469 430.777344 194.359375 431.457031 193.082031 C 432.132812 191.808594 433.105469 190.816406 434.371094 190.113281 C 435.640625 189.410156 437.164062 189.058594 438.945312 189.058594 C 439.726562 189.058594 440.519531 189.160156 441.324219 189.363281 C 442.128906 189.566406 442.828125 189.839844 443.421875 190.183594 C 443.90625 190.464844 444.199219 190.816406 444.3125 191.238281 C 444.417969 191.664062 444.382812 192.0625 444.203125 192.4375 C 444.027344 192.8125 443.75 193.078125 443.375 193.234375 C 443 193.390625 442.578125 193.335938 442.109375 193.070312 C 441.640625 192.789062 441.144531 192.585938 440.632812 192.460938 C 440.113281 192.335938 439.59375 192.273438 439.0625 192.273438 C 437.484375 192.273438 436.289062 192.730469 435.484375 193.644531 C 434.679688 194.5625 434.28125 195.871094 434.28125 197.578125 C 434.28125 199.28125 434.679688 200.597656 435.484375 201.519531 C 436.289062 202.441406 437.484375 202.902344 439.0625 202.902344 C 439.5625 202.902344 440.074219 202.839844 440.597656 202.714844 C 441.121094 202.589844 441.625 202.394531 442.109375 202.128906 C 442.609375 201.863281 443.046875 201.804688 443.421875 201.953125 C 443.792969 202.101562 444.074219 202.351562 444.253906 202.703125 C 444.429688 203.054688 444.472656 203.441406 444.378906 203.855469 C 444.289062 204.269531 444.023438 204.609375 443.585938 204.875 C 442.988281 205.265625 442.273438 205.570312 441.441406 205.789062 C 440.605469 206.007812 439.773438 206.117188 438.945312 206.117188 " fill-opacity="1" fill-rule="nonzero"/><path fill="#875c95" d="M 285.285156 121.160156 C 284.867188 121.382812 284.46875 121.453125 284.082031 121.375 C 283.695312 121.296875 283.390625 121.09375 283.167969 120.773438 C 282.945312 120.449219 282.867188 120.039062 282.941406 119.539062 L 284.144531 112.046875 L 277.574219 108.945312 C 277.097656 108.71875 276.792969 108.425781 276.65625 108.066406 C 276.519531 107.703125 276.523438 107.339844 276.660156 106.972656 C 276.804688 106.605469 277.082031 106.3125 277.496094 106.09375 C 278.117188 105.761719 278.859375 105.8125 279.722656 106.238281 L 284.753906 108.726562 L 285.5 103.175781 C 285.574219 102.679688 285.699219 102.273438 285.871094 101.96875 C 286.042969 101.664062 286.304688 101.421875 286.648438 101.238281 C 287.050781 101.027344 287.445312 100.957031 287.832031 101.035156 C 288.21875 101.117188 288.523438 101.316406 288.746094 101.640625 C 288.972656 101.960938 289.042969 102.382812 288.964844 102.90625 L 287.8125 110.101562 L 294.660156 113.320312 C 295.128906 113.535156 295.4375 113.824219 295.582031 114.1875 C 295.734375 114.550781 295.730469 114.914062 295.578125 115.277344 C 295.425781 115.640625 295.136719 115.9375 294.710938 116.164062 C 294.375 116.339844 294.039062 116.414062 293.695312 116.382812 C 293.351562 116.351562 292.941406 116.222656 292.472656 115.996094 L 287.222656 113.445312 L 286.402344 119.214844 C 286.335938 119.726562 286.214844 120.136719 286.039062 120.441406 C 285.867188 120.746094 285.613281 120.988281 285.285156 121.160156 " fill-opacity="1" fill-rule="nonzero"/><path fill="#f7cbb8" d="M 303.347656 107.730469 C 302.617188 108.117188 302.0625 107.953125 301.679688 107.234375 C 301.308594 106.53125 301.488281 105.984375 302.21875 105.59375 L 310.503906 101.203125 C 311.238281 100.8125 311.789062 100.972656 312.164062 101.679688 C 312.542969 102.394531 312.363281 102.949219 311.636719 103.335938 Z M 301.167969 103.601562 C 300.433594 103.992188 299.878906 103.828125 299.5 103.109375 C 299.117188 102.390625 299.292969 101.835938 300.023438 101.449219 L 308.3125 97.054688 C 309.039062 96.664062 309.601562 96.832031 309.980469 97.550781 C 310.359375 98.269531 310.183594 98.824219 309.449219 99.210938 L 301.167969 103.601562 " fill-opacity="1" fill-rule="nonzero"/><path fill="#f25949" d="M 325.773438 99.585938 C 325.222656 99.875 324.695312 99.941406 324.195312 99.785156 C 323.695312 99.625 323.304688 99.28125 323.027344 98.757812 C 322.757812 98.246094 322.699219 97.738281 322.851562 97.242188 C 323.003906 96.746094 323.355469 96.351562 323.90625 96.058594 C 324.460938 95.765625 324.980469 95.699219 325.460938 95.859375 C 325.945312 96.019531 326.320312 96.355469 326.589844 96.867188 C 326.867188 97.394531 326.941406 97.902344 326.804688 98.402344 C 326.667969 98.894531 326.324219 99.292969 325.773438 99.585938 Z M 323.367188 94.9375 C 323.066406 95.097656 322.773438 95.121094 322.496094 95.015625 C 322.21875 94.90625 321.984375 94.679688 321.804688 94.332031 C 321.488281 93.738281 321.304688 93.128906 321.257812 92.496094 C 321.207031 91.871094 321.296875 91.121094 321.53125 90.253906 C 321.695312 89.636719 321.777344 89.136719 321.773438 88.757812 C 321.765625 88.382812 321.679688 88.035156 321.511719 87.714844 C 321.308594 87.328125 321.003906 87.101562 320.605469 87.027344 C 320.203125 86.957031 319.742188 87.0625 319.21875 87.339844 C 318.71875 87.605469 318.296875 87.90625 317.9375 88.253906 C 317.582031 88.605469 317.265625 89.003906 316.992188 89.449219 C 316.660156 89.925781 316.304688 90.191406 315.921875 90.242188 C 315.542969 90.292969 315.203125 90.195312 314.90625 89.945312 C 314.605469 89.695312 314.425781 89.359375 314.367188 88.929688 C 314.308594 88.5 314.433594 88.042969 314.746094 87.5625 C 315.140625 86.945312 315.636719 86.363281 316.230469 85.828125 C 316.824219 85.292969 317.421875 84.867188 318.03125 84.542969 C 318.941406 84.058594 319.820312 83.785156 320.667969 83.714844 C 321.515625 83.648438 322.269531 83.777344 322.933594 84.109375 C 323.59375 84.4375 324.109375 84.957031 324.480469 85.664062 C 324.820312 86.300781 324.992188 86.960938 324.992188 87.652344 C 324.992188 88.339844 324.792969 89.171875 324.390625 90.148438 C 324.023438 91.03125 323.828125 91.722656 323.792969 92.230469 C 323.757812 92.734375 323.820312 93.21875 323.980469 93.683594 C 324.054688 93.925781 324.046875 94.15625 323.960938 94.371094 C 323.867188 94.585938 323.671875 94.777344 323.367188 94.9375 " fill-opacity="1" fill-rule="nonzero"/><path fill="#f25949" d="M 251.875 54.332031 C 251.644531 54.195312 251.546875 53.90625 251.65625 53.65625 C 251.78125 53.363281 251.925781 53.074219 252.09375 52.789062 C 253.796875 49.863281 257.183594 48.257812 260.523438 48.792969 C 260.808594 48.835938 261.015625 49.113281 260.96875 49.402344 C 260.921875 49.695312 260.648438 49.894531 260.355469 49.847656 C 257.449219 49.382812 254.5 50.78125 253.015625 53.328125 C 252.871094 53.574219 252.746094 53.824219 252.632812 54.078125 C 252.519531 54.351562 252.203125 54.476562 251.929688 54.355469 C 251.914062 54.351562 251.894531 54.339844 251.875 54.332031 " fill-opacity="1" fill-rule="nonzero"/><path fill="#f25949" d="M 228.363281 40.617188 C 228.34375 40.605469 228.328125 40.59375 228.308594 40.578125 C 228.074219 40.402344 228.027344 40.066406 228.203125 39.832031 C 228.371094 39.609375 228.527344 39.375 228.667969 39.128906 C 230.144531 36.59375 229.945312 33.449219 228.15625 31.125 C 227.976562 30.890625 228.023438 30.554688 228.253906 30.375 C 228.488281 30.195312 228.820312 30.234375 229.003906 30.472656 C 231.054688 33.144531 231.285156 36.753906 229.59375 39.667969 C 229.425781 39.949219 229.25 40.21875 229.058594 40.476562 C 228.894531 40.695312 228.59375 40.75 228.363281 40.617188 " fill-opacity="1" fill-rule="nonzero"/><path fill="#f25949" d="M 262.636719 8.710938 C 261.578125 8.09375 260.695312 7.273438 260.003906 6.273438 C 259.835938 6.03125 259.898438 5.695312 260.140625 5.527344 C 260.386719 5.359375 260.714844 5.425781 260.882812 5.664062 C 262.066406 7.386719 263.996094 8.523438 266.082031 8.730469 C 266.367188 8.753906 266.589844 9.019531 266.558594 9.3125 C 266.53125 9.609375 266.269531 9.824219 265.972656 9.792969 C 264.792969 9.675781 263.671875 9.3125 262.636719 8.710938 " fill-opacity="1" fill-rule="nonzero"/><g clip-path="url(#753cf66d68)"><path fill="#f7cbb8" d="M 223.132812 35.898438 L 258.5 56.527344 L 265.996094 2.9375 Z M 258.726562 58.515625 L 221.292969 36.683594 C 221.0625 36.550781 220.914062 36.308594 220.898438 36.039062 C 220.882812 35.773438 221 35.515625 221.210938 35.355469 L 266.574219 0.472656 C 267.089844 0.0742188 267.945312 0.574219 267.855469 1.21875 L 259.917969 57.933594 C 259.886719 58.199219 259.71875 58.425781 259.480469 58.542969 C 259.238281 58.660156 258.957031 58.648438 258.726562 58.515625 " fill-opacity="1" fill-rule="nonzero"/></g><g fill="#000000" fill-opacity="1"><g transform="translate(242.922583, 202.71563)"><g><path d="M 0.890625 -0.625 C 0.890625 -0.882812 0.945312 -1.082031 1.0625 -1.21875 C 1.1875 -1.351562 1.359375 -1.421875 1.578125 -1.421875 C 1.804688 -1.421875 1.984375 -1.351562 2.109375 -1.21875 C 2.234375 -1.082031 2.296875 -0.882812 2.296875 -0.625 C 2.296875 -0.363281 2.226562 -0.164062 2.09375 -0.03125 C 1.96875 0.101562 1.796875 0.171875 1.578125 0.171875 C 1.378906 0.171875 1.210938 0.109375 1.078125 -0.015625 C 0.953125 -0.140625 0.890625 -0.34375 0.890625 -0.625 Z M 0.890625 -0.625 "/></g></g></g></svg>